<?xml version="1.0" standalone="no"?>
<!DOCTYPE svg PUBLIC "-//W3C//DTD SVG 1.1//EN" "http://www.w3.org/Graphics/SVG/1.1/DTD/svg11.dtd" >
<svg>
<metadata>
Created by FontForge 20090622 at Thu Oct 25 10:08:30 2018
 By deploy user
Copyright (c) 2014, Vaibhav Singh (design) and Rosetta Type Foundry s.r.o. (post-production).
</metadata>
<defs>
<font id="Eczar-ExtraBold" horiz-adv-x="0" >
  <font-face 
    font-family="Eczar ExtraBold"
    font-weight="800"
    font-stretch="normal"
    units-per-em="1000"
    panose-1="2 0 6 3 4 3 0 0 0 4"
    ascent="800"
    descent="-200"
    x-height="482"
    cap-height="666"
    bbox="-634 -634 2322 1143"
    underline-thickness="100"
    underline-position="-1"
    unicode-range="U+000D-U+A8FB"
  />
<missing-glyph horiz-adv-x="512" 
d="M465 458v-435h-418v435h418zM344 154v174h-174v-174h174z" />
    <glyph glyph-name=".notdef" horiz-adv-x="512" 
d="M465 458v-435h-418v435h418zM344 154v174h-174v-174h174z" />
    <glyph glyph-name="uni0000" horiz-adv-x="600" 
 />
    <glyph glyph-name="uni0000" horiz-adv-x="600" 
 />
    <glyph glyph-name="uni000D" unicode="&#xd;" horiz-adv-x="600" 
 />
    <glyph glyph-name="space" unicode=" " horiz-adv-x="265" 
 />
    <glyph glyph-name="uni00A0" unicode="&#xa0;" horiz-adv-x="265" 
 />
    <glyph glyph-name="uni2002" unicode="&#x2002;" horiz-adv-x="500" 
 />
    <glyph glyph-name="uni2003" unicode="&#x2003;" horiz-adv-x="950" 
 />
    <glyph glyph-name="uni2009" unicode="&#x2009;" horiz-adv-x="100" 
 />
    <glyph glyph-name="exclam" unicode="!" horiz-adv-x="366" 
d="M66 717q50 18 120 18q74 0 115 -20l-50 -449h-137zM179 202q88 -40 110 -112q-23 -74 -93 -110q-80 26 -115 93q11 80 98 129z" />
    <glyph glyph-name="quotedbl" unicode="&#x22;" horiz-adv-x="475" 
d="M6 424q42 102 42 192l-1 20l53 57l124 -24l1 -15q0 -54 -33 -135.5t-78 -134.5zM255 424q42 102 42 192l-1 20l53 57l124 -24l1 -15q0 -54 -33 -135.5t-78 -134.5z" />
    <glyph glyph-name="numbersign" unicode="#" horiz-adv-x="621" 
d="M470 313l-16 -101h86v-95h-100l-20 -129l-99 12l18 117h-95l-20 -129l-99 12l18 117h-91v95h105l16 101h-92v94h106l19 123l99 -11l-17 -112h95l19 123l99 -11l-17 -112h85v-94h-99zM369 313h-95l-16 -101h95z" />
    <glyph glyph-name="dollar" unicode="$" horiz-adv-x="621" 
d="M589 190q0 -80 -54.5 -133t-143.5 -69v-133h-143v130q-114 13 -198 54l1 2l-1 28q0 100 21 172h90l81 -149q37 -13 89 -18q52 23 52 66q0 48 -74 85l-108 51l-43 24q-110 67 -110 173q0 77 54 132.5t146 73.5v106h142v-102q94 -8 169 -38q-6 -128 -24 -198h-105l-49 130
q-43 16 -94 19q-44 -26 -44 -70q0 -26 24 -45.5t132 -67.5t149 -101t41 -122z" />
    <glyph glyph-name="percent" unicode="%" horiz-adv-x="833" 
d="M85 559.5q49 53.5 116 53.5q68 0 117 -54.5t49 -127.5t-47 -123t-114 -50q-69 0 -119.5 51t-50.5 124t49 126.5zM600 608l79 -63l-458 -575l-79 64zM223 358q26 26 26 75q0 33 -14 55.5t-40 22.5q-10 0 -21 -4q-24 -28 -24 -73q0 -32 15.5 -54.5t45.5 -22.5zM515 281
q49 53 116 53q68 0 117 -54t49 -127t-47 -123t-114 -50q-69 0 -119.5 51t-50.5 124t49 126zM653 79q26 28 26 76q0 32 -14 54.5t-40 22.5l-21 -3q-24 -30 -24 -74q0 -33 16 -55t46 -22z" />
    <glyph glyph-name="ampersand" unicode="&#x26;" horiz-adv-x="712" 
d="M707 300q-61 41 -104 49q28 -59 28 -123q0 -113 -83.5 -184t-220.5 -71t-227.5 67t-90.5 169q0 111 104 160q-83 43 -83 124q0 75 71 126t182 51q121 0 219 -46l-61 -153l-178 81q-23 -9 -39.5 -32.5t-16.5 -51.5q0 -36 26 -66l102 -40l-19 -82q-58 1 -92 -25t-34 -69
q0 -48 40 -75.5t96 -27.5q60 0 99 24q48 40 48 115q0 51 -22 92l-50 -31l-42 78q189 120 290 120q64 0 107 -46z" />
    <glyph glyph-name="quotesingle" unicode="'" horiz-adv-x="192" 
d="M-28 490q28 69 28 156l-3 48l52 57l124 -16q4 -60 -24.5 -146t-69.5 -139z" />
    <glyph glyph-name="parenleft" unicode="(" horiz-adv-x="386" 
d="M226 -155q-193 222 -193 461q0 236 196 426l116 -66q-110 -186 -110 -356q0 -94 28 -190t81 -208z" />
    <glyph glyph-name="parenright" unicode=")" horiz-adv-x="386" 
d="M42 -88q53 112 81 208t28 190q0 170 -110 356l116 66q196 -190 196 -426q0 -239 -193 -461z" />
    <glyph glyph-name="asterisk" unicode="*" horiz-adv-x="434" 
d="M127 577l-146 45l44 159l112 -115l1 152l164 3l-88 -161l-76 5l16 -16zM228 680l145 50l56 -153l-179 30zM275 602l90 -123l-130 -100l-24 181zM153 589l60 -48l-91 -125l-133 97z" />
    <glyph glyph-name="plus" unicode="+" horiz-adv-x="569" 
d="M517 210h-174v-178h-117v178h-174v110h174v179h117v-179h174v-110z" />
    <glyph glyph-name="comma" unicode="," horiz-adv-x="329" 
d="M51 -85q29 24 48 56t21 56l-54 47q12 80 97 127q107 -42 107 -131q0 -58 -52 -120t-120 -90z" />
    <glyph glyph-name="hyphen" unicode="-" horiz-adv-x="500" 
d="M34 316l25 49h320l65 -103l-25 -49h-320z" />
    <glyph glyph-name="period" unicode="." horiz-adv-x="320" 
d="M225 -45q-30 12 -67.5 41t-56.5 55q43 88 100 122q31 -13 65 -41.5t54 -54.5q-13 -33 -40 -68t-55 -54z" />
    <glyph glyph-name="slash" unicode="/" horiz-adv-x="428" 
d="M315 739l116 -51l-306 -807l-118 49z" />
    <glyph glyph-name="zero" unicode="0" horiz-adv-x="614" 
d="M17 326q0 149 82.5 245.5t208.5 96.5q125 0 206.5 -95t81.5 -246q0 -154 -78 -249t-208 -95q-131 0 -212 96.5t-81 246.5zM272 562q-21 -27 -33 -91t-12 -135q0 -99 24.5 -173.5t72.5 -74.5q11 0 22 4q20 30 31.5 90.5t11.5 130.5q0 102 -24.5 176.5t-71.5 74.5z" />
    <glyph glyph-name="one" unicode="1" horiz-adv-x="469" 
d="M477 55l-2 -55h-446l-6 32q42 30 136 58v394l-117 -46l-37 72l272 160l83 -61v-533z" />
    <glyph glyph-name="two" unicode="2" horiz-adv-x="617" 
d="M581 221q-4 -108 -37 -221l-23 1v-1h-466l-22 98l214 227q92 104 92 164q0 36 -22.5 59t-64.5 27l-58 -187h-127q-22 73 -22 185l1 28q119 69 245 69q111 0 181.5 -58.5t70.5 -147.5q0 -57 -36 -115t-125 -144l-121 -118l4 -7l138 29l94 135z" />
    <glyph glyph-name="three" unicode="3" horiz-adv-x="611" 
d="M415 342q68 -7 112.5 -54.5t44.5 -112.5q0 -86 -78.5 -140.5t-204.5 -54.5q-132 0 -253 53l57 183l125 -80q65 -40 108 -50q33 33 33 75t-33 72.5t-88 30.5l-51 -1l-5 92h12q63 3 104.5 36.5t41.5 79.5q0 40 -29.5 67.5t-76.5 32.5l-50 -158h-116q-15 56 -15 142l2 49
l-1 2q95 64 241 64q112 0 181.5 -49t69.5 -125q0 -48 -33.5 -90t-97.5 -64z" />
    <glyph glyph-name="four" unicode="4" horiz-adv-x="630" 
d="M502 151v-83l70 -13l-2 -55h-377l-6 32q31 24 122 57v62h-261l-39 105l345 414l38 -10l110 -8v-382l108 2l5 -90l-32 -31h-81zM309 265v108l5 86l-136 -196z" />
    <glyph glyph-name="five" unicode="5" horiz-adv-x="582" 
d="M307 408q103 -2 173.5 -61t70.5 -149q0 -97 -73.5 -159.5t-190.5 -62.5q-61 0 -130.5 17.5t-126.5 51.5l57 182q58 -51 126 -89.5t123 -52.5q34 35 34 77q0 54 -48 81.5t-128 27.5q-38 0 -78 -12l-55 60l29 331h366v-1l64 1l1 -23q0 -42 -7 -101.5t-16 -90.5h-123
l-27 113l-97 6l-12 -153q20 7 68 7z" />
    <glyph glyph-name="six" unicode="6" horiz-adv-x="599" 
d="M254 349q54 50 132 50q80 0 135 -54.5t55 -138.5q0 -99 -70 -162.5t-180 -63.5q-129 0 -211.5 78.5t-82.5 205.5q0 100 50 190t153 147t254 57l34 -1l-1 -186l-199 53q-44 -25 -69 -94t-25 -149q0 -90 30 -151t86 -59q45 35 45 104q0 43 -20 73.5t-49 30.5q-20 0 -45 -17
z" />
    <glyph glyph-name="seven" unicode="7" horiz-adv-x="527" 
d="M537 548q-161 -295 -274 -574l-188 66q75 148 141.5 264.5t142.5 224.5l-7 8l-157 -6l-20 -113h-132q-9 30 -15.5 93t-6.5 110l1 29h466z" />
    <glyph glyph-name="eight" unicode="8" horiz-adv-x="591" 
d="M437 352q118 -78 118 -182q0 -86 -70.5 -139t-185.5 -53q-116 0 -189.5 52t-73.5 134q0 49 28 93.5t78 73.5q-84 62 -84 145t67 137.5t173 54.5q101 0 165.5 -49.5t64.5 -122.5q0 -42 -23 -81t-68 -63zM254 567q-21 -21 -21 -53q0 -31 24 -52.5t76 -49.5q36 34 36 83
q0 35 -21.5 57.5t-55.5 22.5q-21 0 -38 -8zM354 70q19 29 19 59q0 39 -22.5 65t-80.5 60q-49 -43 -49 -101q0 -38 24 -64t66 -26q21 0 43 7z" />
    <glyph glyph-name="nine" unicode="9" horiz-adv-x="592" 
d="M339 244q-44 -20 -94 -20q-91 0 -155 62.5t-64 154.5q0 99 71 164t183 65q127 0 206.5 -85.5t79.5 -220.5q0 -161 -115 -268.5t-292 -107.5l-48 2l-31 188l205 -58q45 25 68.5 93.5t23.5 151.5q0 87 -26.5 146t-78.5 53q-21 -9 -33 -38.5t-12 -66.5q0 -47 22.5 -80
t61.5 -33l18 2z" />
    <glyph glyph-name="colon" unicode=":" horiz-adv-x="374" 
d="M282 400q-22 -73 -93 -111q-80 27 -115 93q11 82 98 129q87 -39 110 -111zM282 90q-23 -74 -93 -110q-80 26 -115 93q11 80 98 129q88 -40 110 -112z" />
    <glyph glyph-name="semicolon" unicode=";" horiz-adv-x="334" 
d="M275 400q-22 -73 -93 -111q-80 27 -115 93q11 82 98 129q87 -39 110 -111zM51 -85q29 24 48 56t21 56l-54 47q12 80 97 127q107 -42 107 -131q0 -58 -52 -120t-120 -90z" />
    <glyph glyph-name="less" unicode="&#x3c;" horiz-adv-x="578" 
d="M517 401l-288 -155l1 -6l291 -143l-54 -103l-409 208l-2 70l410 228z" />
    <glyph glyph-name="equal" unicode="=" horiz-adv-x="576" 
d="M524 304h-472v97h472v-97zM524 116h-472v97h472v-97z" />
    <glyph glyph-name="greater" unicode="&#x3e;" horiz-adv-x="578" 
d="M112 500l410 -228l-2 -70l-409 -208l-54 103l291 143l1 6l-288 155z" />
    <glyph glyph-name="question" unicode="?" horiz-adv-x="661" 
d="M316 735q115 0 187 -59t72 -149q0 -68 -47 -114l-83 -74q-40 -39 -49 -85h-166q0 57 21 94t59.5 78.5t47.5 59.5t9 39q0 62 -58 84l-18 -1l-67 -154h-115q-24 93 -24 174l1 18l-1 3q97 86 231 86zM320 202q88 -40 110 -112q-23 -74 -93 -110q-80 26 -115 93q11 80 98 129
z" />
    <glyph glyph-name="at" unicode="@" horiz-adv-x="1098" 
d="M563 750q167 0 283.5 -62t174 -160t57.5 -206q0 -128 -75 -222t-199 -117l-31 -1q-116 0 -159 74l-104 -68l-39 -3q-67 0 -111.5 39t-44.5 92q0 34 21.5 68t63.5 54l188 4v69q0 75 -45 97q-24 -2 -37 -9l-29 -114l-114 -1q-17 65 -17 120l3 43q66 22 144.5 36t129.5 14
q46 0 88.5 -19.5t65.5 -53.5q12 -18 12 -92v-197q0 -25 16 -25q15 0 29 16q25 26 40.5 79.5t15.5 107.5q0 129 -87.5 207.5t-233.5 78.5q-156 0 -251.5 -92t-95.5 -237q0 -139 89 -264l-102 -62q-87 78 -131.5 173.5t-44.5 193.5q0 117 62 217.5t182 161t286 60.5zM511 131
q0 -25 15 -42l62 13v75q-77 0 -77 -46z" />
    <glyph glyph-name="A" unicode="A" horiz-adv-x="741" 
d="M757 55l-1 -55h-362l-6 32q35 27 75 47l-31 83h-204l-35 -93l81 -14l-1 -55h-287l-6 32q34 27 84 52l207 514l-17 47l182 45l250 -623zM398 254l-68 185l-68 -185h136z" />
    <glyph glyph-name="B" unicode="B" horiz-adv-x="717" 
d="M543 350q71 -15 108.5 -60t37.5 -105q0 -84 -71 -133t-195 -52h-395l-6 32q37 28 85 52v515l-71 12l1 55q140 8 363 8q114 0 187.5 -49.5t73.5 -123.5q0 -47 -31 -91.5t-87 -59.5zM455 476q0 32 -15.5 62t-40.5 39l-82 -15v-178h43q47 0 71 27t24 65zM378 93l13 -1
q41 0 63 29.5t22 69.5q0 43 -26.5 79t-65.5 36h-67v-205z" />
    <glyph glyph-name="C" unicode="C" horiz-adv-x="611" 
d="M607 71l-214 -88l-29 -1q-130 0 -209.5 51t-113.5 128.5t-34 162.5q0 94 40.5 177t122.5 134t200 51q121 0 218 -66l1 -17q0 -80 -27 -188h-124l-36 143q-50 18 -110 24q-77 -83 -77 -232q0 -105 48 -172t138 -68l175 54z" />
    <glyph glyph-name="D" unicode="D" horiz-adv-x="757" 
d="M382 674q117 0 200 -48.5t125 -125.5t42 -161q0 -148 -95 -242t-253 -97h-373l-6 32q37 28 85 52v515l-71 12l1 55q156 8 345 8zM376 100q70 0 113 64.5t43 162.5q0 76 -29 146t-79 104l-107 -15v-452q30 -10 59 -10z" />
    <glyph glyph-name="E" unicode="E" horiz-adv-x="670" 
d="M620 218q2 -99 -12 -218h-580l-6 32q37 28 85 52v514l-76 13l1 55h585q2 -37 -4 -101.5t-17 -113.5h-115l-20 106l-144 10v-191l203 17v-115l-203 8v-185l149 13l39 113z" />
    <glyph glyph-name="F" unicode="F" horiz-adv-x="646" 
d="M311 568v-211l219 16v-123l-219 11v-184l124 -22l-1 -55h-404l-6 32q27 22 77 48v518l-76 13l1 55h585q2 -37 -4 -105.5t-17 -117.5h-115l-21 115z" />
    <glyph glyph-name="G" unicode="G" horiz-adv-x="720" 
d="M630 236v-169l-231 -87l-33 -1q-129 0 -209.5 52t-115 130t-34.5 160q0 157 108 261t278 104q131 0 225 -61l1 -20q0 -86 -25 -175h-123l-36 130q-69 21 -141 22q-39 -38 -59.5 -99.5t-20.5 -129.5q0 -114 54 -183t142 -69l34 1v117q-57 28 -90 53l6 33h345l1 -47z" />
    <glyph glyph-name="H" unicode="H" horiz-adv-x="855" 
d="M833 55l-1 -55h-377l-6 32q37 28 85 52v197h-217v-211l89 -15l-1 -55h-377l-6 32q37 28 85 52v514l-77 13l1 55h365l6 -32q-37 -28 -85 -52v-199h217v215l-77 13l1 55h365l6 -32q-37 -28 -85 -52v-512z" />
    <glyph glyph-name="I" unicode="I" horiz-adv-x="428" 
d="M406 55l-1 -55h-377l-6 32q37 28 85 52v514l-77 13l1 55h365l6 -32q-37 -28 -85 -52v-512z" />
    <glyph glyph-name="J" unicode="J" horiz-adv-x="425" 
d="M407 634q-41 -31 -86 -53v-406q0 -140 -69.5 -225t-248.5 -140l-34 59q82 52 112 115.5t31 160.5v452l-81 14l1 55h369z" />
    <glyph glyph-name="K" unicode="K" horiz-adv-x="787" 
d="M782 55l-1 -55h-263l-184 263l-17 -18v-177l73 -13l-1 -55h-361l-6 32q37 28 85 52v514l-77 13l1 55h365l6 -32q-37 -28 -85 -52v-193l197 211l-63 11l1 55h280l6 -32q-25 -19 -97 -48l-171 -180l249 -336z" />
    <glyph glyph-name="L" unicode="L" horiz-adv-x="643" 
d="M644 223q0 -140 -15 -223h-601l-6 32q37 28 85 52v514l-77 13l1 55h365l6 -32q-37 -28 -85 -52v-481l158 18l50 153l119 -11v-38z" />
    <glyph glyph-name="M" unicode="M" horiz-adv-x="1007" 
d="M985 47l-1 -47h-368l-6 32q33 26 85 52l-1 180l14 182l-165 -430l-142 -23l-163 452l14 -181l-1 -192l85 -25l-1 -47h-308l-6 32q33 27 88 54l10 492l-86 25l1 47h327l-1 -1l159 -446l169 447h283l6 -32q-37 -29 -90 -55l8 -490z" />
    <glyph glyph-name="N" unicode="N" horiz-adv-x="802" 
d="M780 634q-33 -26 -78 -49l-7 -585l-179 -14l-280 413l13 -119v-210l88 -15l-1 -55h-308l-6 32q37 28 85 52v512l-75 15l1 55h266v-1l276 -418l-14 123v224l-98 17l1 55h310z" />
    <glyph glyph-name="O" unicode="O" horiz-adv-x="698" 
d="M347 686q149 0 246 -101t97 -262q0 -156 -93 -249.5t-243 -93.5q-154 0 -250 96t-96 252q0 157 95.5 257.5t243.5 100.5zM283 568q-25 -25 -40.5 -82t-15.5 -136q0 -123 39 -194t106 -71q17 0 37 8q28 30 45 91.5t17 136.5q0 108 -35 183t-102 75q-24 0 -51 -11z" />
    <glyph glyph-name="P" unicode="P" horiz-adv-x="682" 
d="M311 229v-152l124 -22l-1 -55h-404l-6 32q27 22 77 48v518l-76 13l1 55l367 8q123 1 201.5 -63.5t78.5 -164.5q0 -94 -76 -154.5t-194 -61.5zM311 562v-221q27 -8 54 -8q48 0 72.5 33t24.5 82q0 38 -12 76t-32 53z" />
    <glyph glyph-name="Q" unicode="Q" horiz-adv-x="735" 
d="M640 -202l-278 182q-162 0 -258 96t-96 252q0 157 95.5 257.5t243.5 100.5q149 0 246 -101t97 -262q0 -111 -46.5 -189t-125.5 -117l217 -49zM227 350q0 -123 39 -194t106 -71q17 0 37 8q28 30 45 91.5t17 136.5q0 108 -35 183t-102 75q-24 0 -51 -11q-25 -25 -40.5 -82
t-15.5 -136z" />
    <glyph glyph-name="R" unicode="R" horiz-adv-x="746" 
d="M743 55l-1 -55h-248l-129 249l-48 -1v-180l75 -13l-1 -55h-363l-6 32q37 28 85 52v514l-76 13l1 55l359 8q125 0 206 -60.5t81 -153.5q0 -58 -34 -106t-92 -76l132 -213zM317 350q24 -7 47 -7q102 0 102 112q0 76 -42 122l-107 -15v-212z" />
    <glyph glyph-name="S" unicode="S" horiz-adv-x="622" 
d="M589 190q0 -94 -76 -151.5t-198 -57.5q-62 0 -136 15.5t-129 42.5l1 2l-1 28q0 100 21 172h90l81 -149q37 -13 89 -18q52 23 52 66q0 48 -74 85l-108 51l-43 24q-110 67 -110 173q0 95 78 154t203 59q56 0 121 -11.5t109 -29.5q-6 -128 -24 -198h-105l-49 130
q-43 16 -94 19q-44 -26 -44 -70q0 -26 24 -45.5t132 -67.5t149 -101t41 -122z" />
    <glyph glyph-name="T" unicode="T" horiz-adv-x="692" 
d="M686 672l1 -23q0 -45 -7 -116t-16 -114h-107l-16 154l-89 10v-512l92 -16l-1 -55h-390l-6 32q31 25 95 56v495l-91 -10l-16 -154h-106q-23 105 -23 225l1 28l341 -4l337 4h1z" />
    <glyph glyph-name="U" unicode="U" horiz-adv-x="773" 
d="M767 634q-37 -28 -85 -52v-297q-1 -164 -78 -234.5t-200 -70.5q-146 0 -231.5 83t-89.5 229v306l-77 13l1 55h365l6 -32q-37 -28 -85 -52v-325q0 -87 37 -128.5t97 -41.5q47 0 79 27q33 46 34 173v310l-80 14l1 55h300z" />
    <glyph glyph-name="V" unicode="V" horiz-adv-x="738" 
d="M467 3l1 -1q-74 -12 -182 -20l-220 617l-70 12l1 55h353l6 -32q-27 -22 -77 -48l92 -299l12 -143h9l146 452l-86 15l1 55h283l6 -32q-31 -24 -77 -48z" />
    <glyph glyph-name="W" unicode="W" horiz-adv-x="1049" 
d="M1053 634q-31 -25 -73 -46l-169 -586q-66 -12 -175 -20l-104 321l-25 -118l-56 -183q-66 -12 -175 -20l-205 617l-67 12l1 55h351l6 -32q-33 -26 -78 -49l79 -291l5 -150h6l98 343l-44 136l195 41l100 -349l8 -171h1l122 451l-93 16l1 55h285z" />
    <glyph glyph-name="X" unicode="X" horiz-adv-x="727" 
d="M749 55l-1 -55h-350l-6 32l52 35l-112 165l-107 -164l76 -13l-1 -55h-300l-6 32q41 31 89 54l176 252l-179 262l-64 11l1 55h337l6 -32l-49 -33l103 -150l92 147l-76 13l1 55h282l6 -32q-34 -27 -87 -53l-150 -229l195 -285z" />
    <glyph glyph-name="Y" unicode="Y" horiz-adv-x="697" 
d="M452 70l85 -15l-1 -55h-364l-6 32q34 27 84 52v158l-190 358l-64 11l1 55h308l6 -32l-47 -32l80 -150l28 -89h7l119 236l-68 12l1 55h269l6 -32q-35 -28 -92 -56l-162 -302v-206z" />
    <glyph glyph-name="Z" unicode="Z" horiz-adv-x="689" 
d="M653 235q-3 -99 -26 -235l-538 -1l-58 91l372 483l-167 -14l-49 -143h-114q-11 68 -11 144l5 106h536l45 -88l-364 -475l188 9l59 140z" />
    <glyph glyph-name="bracketleft" unicode="[" horiz-adv-x="440" 
d="M414 648l-130 -38v-630l130 -38l-6 -64h-324v834h324z" />
    <glyph glyph-name="backslash" unicode="\" horiz-adv-x="417" 
d="M-39 681l146 58l308 -809l-148 -56z" />
    <glyph glyph-name="bracketright" unicode="]" horiz-adv-x="440" 
d="M356 712v-834h-324l-6 64l130 38v630l-130 38l6 64h324z" />
    <glyph glyph-name="asciicircum" unicode="^" horiz-adv-x="483" 
d="M289 650l188 -270l-93 -60l-139 200h-7l-132 -201l-98 60l183 271h98z" />
    <glyph glyph-name="underscore" unicode="_" horiz-adv-x="532" 
d="M522 -221h-512v97h512v-97z" />
    <glyph glyph-name="grave" unicode="`" horiz-adv-x="303" 
d="M12 702l120 106l157 -197l-98 -76q-136 132 -179 167z" />
    <glyph glyph-name="a" unicode="a" horiz-adv-x="581" 
d="M578 65l-143 -82q-68 0 -112 74l-104 -69l-38 -3q-67 0 -112 39.5t-45 92.5q0 34 21.5 67.5t63.5 54.5l188 4v75q0 74 -45 98q-22 -2 -37 -10l-29 -112l-114 -1q-17 58 -17 112l4 49q64 23 144.5 37t129.5 14q97 0 153 -74q12 -18 12 -92v-200q0 -31 24 -31l33 1l20 1z
M220 132q0 -25 15 -42l62 13v75q-77 0 -77 -46z" />
    <glyph glyph-name="b" unicode="b" horiz-adv-x="590" 
d="M356 494l33 3q82 0 134.5 -65t52.5 -166q0 -126 -82 -205t-220 -79q-102 0 -222 37l1 1v609l-75 19l-2 50q95 33 219 39l59 -54v-266zM316 84q53 55 53 148q0 55 -24.5 93t-66.5 38l-24 -3v-274l37 -4z" />
    <glyph glyph-name="c" unicode="c" horiz-adv-x="479" 
d="M322 -12q-28 -6 -57 -6q-109 0 -183 73t-74 185q0 116 74 190t187 74q79 0 140 -39t75 -112l-165 -79q-35 96 -76 129q-44 -46 -44 -134q0 -72 35 -116.5t99 -44.5q47 0 111 32l26 -59z" />
    <glyph glyph-name="d" unicode="d" horiz-adv-x="609" 
d="M607 65l-144 -82q-35 0 -66.5 23t-51.5 64h-2l-114 -87q-97 -1 -159 70.5t-62 180.5q0 117 74.5 191t196.5 74l47 -3v133l-75 19l-2 50q95 33 219 39l59 -54v-544q0 -31 24 -31l33 1l20 1zM217 254q0 -56 22.5 -93t63.5 -37l23 3v262q-27 10 -58 12q-51 -49 -51 -147z
" />
    <glyph glyph-name="e" unicode="e" horiz-adv-x="516" 
d="M444 219l-249 1q10 -54 47 -83t92 -29t127 39l28 -62l-158 -96q-30 -6 -60 -6q-114 0 -188.5 70.5t-74.5 182.5q0 114 77 191t187 77q102 0 166.5 -61.5t64.5 -164.5zM252 413q-40 -27 -56 -109l128 9q-5 39 -24.5 67.5t-47.5 32.5z" />
    <glyph glyph-name="f" unicode="f" horiz-adv-x="405" 
d="M284 349v-255q55 -21 91 -45l-1 -49h-357l-1 35q29 18 66 33v282h-78l-1 56l57 38l22 14v65q0 96 63 162t154 66q78 0 161 -49l-102 -175q-63 61 -150 107l74 -160h114l1 -56l-52 -69h-61z" />
    <glyph glyph-name="g" unicode="g" horiz-adv-x="591" 
d="M201 127q166 -2 340 -52q17 -33 17 -72q0 -100 -96.5 -177.5t-225.5 -77.5q-85 0 -151.5 37.5t-77.5 120.5l99 87l-45 3l-22 82q58 58 118 93q-65 21 -98.5 63.5t-33.5 91.5q0 76 70 128t177 52q82 0 142 -30q31 89 142 91l31 -154l-42 4q-26 0 -52 -8q23 -37 23 -78
q0 -76 -70 -125.5t-180 -49.5l-29 1zM241 419q-10 -6 -16.5 -33.5t-6.5 -56.5q0 -40 16 -67.5t46 -27.5l15 2q12 7 20 31.5t8 52.5q0 39 -17.5 70.5t-47.5 31.5zM270 -109q44 0 85 12.5t61 34.5q-90 31 -243 49q-15 -20 -15 -36q0 -30 31.5 -45t80.5 -15z" />
    <glyph glyph-name="h" unicode="h" horiz-adv-x="658" 
d="M582 88l64 -39l-1 -49h-264v273q0 100 -70 96l-27 -5v-281l53 -34l-1 -49h-327l-1 35q34 21 75 36v558l-75 19l-2 50q95 33 219 39l59 -54v-256q67 49 132 71q39 2 83 -14t71 -59q11 -20 12 -93v-244z" />
    <glyph glyph-name="i" unicode="i" horiz-adv-x="366" 
d="M192 543q-81 37 -133 102q43 83 111 135q76 -43 126 -116q-38 -74 -104 -121zM282 88q43 -18 72 -39l-1 -49h-347l-1 35q32 20 76 37v324l-75 19l-2 49q96 34 219 39l59 -53v-362z" />
    <glyph glyph-name="j" unicode="j" horiz-adv-x="346" 
d="M193 543q-81 37 -133 102q43 83 111 135q76 -44 126 -116q-37 -73 -104 -121zM5 464q96 34 219 39l59 -53v-489q0 -74 -76 -124.5t-203 -58.5l-17 41q95 32 95 112v465l-75 19z" />
    <glyph glyph-name="k" unicode="k" horiz-adv-x="644" 
d="M581 76q25 -20 46 -31l-4 -48h-214q-13 12 -40 52l-85 135v-184h-276l-1 35q32 20 76 37v557l-76 19l-2 50q95 33 219 39h1l59 -54v-412l96 131l-54 13l-2 49q95 34 221 39l51 -73l-142 -178z" />
    <glyph glyph-name="l" unicode="l" horiz-adv-x="369" 
d="M282 88q43 -18 72 -39l-1 -49h-347l-1 35q32 20 76 37v557l-75 19l-2 50q95 33 219 39l59 -54v-595z" />
    <glyph glyph-name="m" unicode="m" horiz-adv-x="968" 
d="M878 91q47 -19 79 -42l-2 -49h-278v273q0 100 -70 96l-27 -5l1 -280l56 -35l-2 -49h-255v273q0 100 -70 96l-26 -5v-280l55 -35l-1 -49h-329l-1 35q34 21 75 36v325l-75 19l-2 49q96 34 219 39l59 -61v-15q67 49 131 71q39 2 83 -14t71 -59q2 -2 2 -5q73 54 141 78
q39 2 83 -14t71 -59q11 -20 12 -93v-241z" />
    <glyph glyph-name="n" unicode="n" horiz-adv-x="666" 
d="M583 88q43 -18 72 -39l-2 -49h-271v273q0 100 -70 96l-28 -5v-280l55 -35l-1 -49h-329l-1 35q34 21 75 36v325l-75 19l-2 49q96 34 219 39l59 -61v-16q69 50 133 72q39 2 83 -14t71 -59q11 -20 12 -93v-244z" />
    <glyph glyph-name="o" unicode="o" horiz-adv-x="539" 
d="M8 245q0 114 73.5 186.5t185.5 72.5q113 0 186 -73.5t73 -189.5t-71.5 -188.5t-182.5 -72.5q-113 0 -188.5 74.5t-75.5 190.5zM296 82q28 24 28 147q0 167 -63 167q-17 0 -27 -7q-24 -37 -24 -150q0 -161 65 -161q10 0 21 4z" />
    <glyph glyph-name="p" unicode="p" horiz-adv-x="619" 
d="M348 -1q-32 0 -68 6v-106l99 -51l-1 -49h-364l-1 36l66 26v535l-74 19l-2 49q96 34 219 39v-1l58 -52v-33l102 77l33 3q83 0 135 -65.5t52 -166.5q0 -116 -69.5 -191t-184.5 -75zM304 363l-24 -3v-266q29 -7 62 -7q46 53 46 145q0 55 -22 93t-62 38z" />
    <glyph glyph-name="q" unicode="q" horiz-adv-x="602" 
d="M537 -118l53 -34l-1 -49h-356l-1 36q48 29 104 45v185l-98 -75q-96 -1 -158.5 70t-62.5 179q0 118 80 191.5t214 73.5q112 0 226 -42v-580zM312 130l24 3v262q-27 10 -59 12q-51 -49 -51 -147q0 -56 22.5 -93t63.5 -37z" />
    <glyph glyph-name="r" unicode="r" horiz-adv-x="517" 
d="M404 263q-74 64 -120 73v-236q70 -25 111 -51l-1 -49h-385l-1 35q34 21 75 36v325l-75 19l-2 49q96 34 219 39l59 -88l70 82q19 6 42 6q45 0 83 -23.5t50 -63.5z" />
    <glyph glyph-name="s" unicode="s" horiz-adv-x="472" 
d="M211 384q0 -22 23.5 -38.5t69.5 -41t74 -43.5t50 -50.5t22 -72.5q0 -71 -59 -114.5t-157 -43.5q-113 0 -219 54l63 146q86 -69 174 -108q15 13 15 31q0 15 -14 29t-89 53.5t-103.5 76t-28.5 80.5q0 72 65.5 117t165.5 45q98 0 164 -34l2 -36q0 -54 -17 -108h-99l-38 93
l-21 2q-43 -8 -43 -37z" />
    <glyph glyph-name="t" unicode="t" horiz-adv-x="421" 
d="M276 349v-185q0 -39 39 -39l76 4l4 -53l-177 -93q-55 -2 -98.5 32.5t-44.5 82.5v252h-78l-1 56q37 34 90 70l60 137h90l33 -139h136v-57l-51 -68h-78z" />
    <glyph glyph-name="u" unicode="u" horiz-adv-x="656" 
d="M654 65l-144 -82q-33 1 -64 23.5t-51 61.5q-79 -60 -152 -85q-36 -4 -80.5 15t-72.5 62q-12 19 -13 93v243l-75 19l-2 49q96 34 219 39l59 -53v-256q0 -84 71 -78l24 4v281l-51 18l-2 49q85 32 195 35l59 -53v-311q0 -31 24 -31l33 1l20 1z" />
    <glyph glyph-name="v" unicode="v" horiz-adv-x="565" 
d="M569 429l-44 -30l-121 -294l-45 -102q-42 -12 -111 -12q-41 0 -69 5l-145 386l-65 44v56h245l74 -238l14 -66h11q20 146 31 304h224z" />
    <glyph glyph-name="w" unicode="w" horiz-adv-x="803" 
d="M806 429q-20 -17 -41 -28l-145 -397q-42 -13 -109 -13q-37 0 -64 5l-47 131l-54 -123q-42 -13 -114 -13q-40 0 -67 5l-142 392l-54 38v56h233l100 -321h12l37 102l-77 213l203 4l88 -319h11l-1 321h230z" />
    <glyph glyph-name="x" unicode="x" horiz-adv-x="602" 
d="M513 97q43 -19 83 -48l-1 -49h-230l-104 145l-27 -145h-230l-1 44l15 5l180 184l-97 135l-88 58v56h235l92 -134l25 134h215l1 -45l-13 -5l-166 -173z" />
    <glyph glyph-name="y" unicode="y" horiz-adv-x="584" 
d="M587 429l-44 -27l-47 -172q-53 -186 -129 -287t-219 -177l-103 178q123 33 236 78l-113 28l-118 323l-82 53v56h254l61 -228l5 -68h16q37 185 53 296h229z" />
    <glyph glyph-name="z" unicode="z" horiz-adv-x="537" 
d="M514 177l-40 -198l-333 48l-65 -45l-66 55l267 372l-78 -14l-46 -98h-107q-8 37 -8 99q0 50 5 80v6h387l33 21l63 -61l-242 -327l118 29z" />
    <glyph glyph-name="braceleft" unicode="{" horiz-adv-x="565" 
d="M471 -145q-132 7 -221 60.5t-89 123.5v119q-1 65 -22.5 85.5t-76.5 24.5l6 59q50 4 71 25t22 79v100q0 81 87 135t230 63l6 -121h-125l16 -159l1 -16q0 -70 -59 -129v-9q59 -61 59 -130l-1 -16l-16 -161l122 -12z" />
    <glyph glyph-name="bar" unicode="|" horiz-adv-x="333" 
d="M93 735h145l1 -960h-146v960z" />
    <glyph glyph-name="braceright" unicode="}" horiz-adv-x="567" 
d="M85 -24l122 12l-16 161l-1 16q0 67 59 130v9q-59 61 -59 129l1 16l16 159h-125l6 121q143 -9 230 -63t87 -135v-100q1 -58 22 -79t71 -25l6 -59q-55 -4 -76.5 -24.5t-22.5 -85.5v-119q0 -70 -89 -123.5t-221 -60.5z" />
    <glyph glyph-name="asciitilde" unicode="~" horiz-adv-x="607" 
d="M63 229q54 82 82 115t55 33q35 0 209 -89l88 72l50 -43q-49 -84 -78.5 -119.5t-60.5 -35.5t-110.5 41t-96.5 41q-22 0 -79 -59z" />
    <glyph glyph-name="exclamdown" unicode="&#xa1;" horiz-adv-x="366" 
d="M66 -212q50 -18 120 -18q74 0 115 20l-50 449h-137zM179 303q88 40 110 112q-23 74 -93 110q-80 -26 -115 -93q11 -80 98 -129z" />
    <glyph glyph-name="cent" unicode="&#xa2;" horiz-adv-x="495" 
d="M470 92l-142 -84v-125h-110v119q-94 14 -152 80.5t-58 159.5q0 95 57.5 162t152.5 83v110h110v-112q60 -12 102.5 -46.5t53.5 -89.5l-165 -75q-34 89 -76 122q-44 -44 -44 -127q0 -68 35 -110t99 -42q48 0 111 30z" />
    <glyph glyph-name="sterling" unicode="&#xa3;" horiz-adv-x="617" 
d="M573 241q13 -54 13 -170l-3 -67l1 -4h-560l-6 32q35 28 92 56q22 51 22 101l-5 50h-109l-6 37l43 41h47q-35 88 -35 132q0 91 79 156t198 65q124 0 221 -55h1l1 -42q0 -107 -15 -158h-99l-76 137l-52 13q-44 -23 -44 -80q0 -26 28 -150h126l6 -37l-43 -41h-80
q0 -85 -42 -150l142 10l64 132z" />
    <glyph glyph-name="currency" unicode="&#xa4;" horiz-adv-x="510" 
d="M443 357q0 -70 -36 -121l57 -62l-52 -51l-57 62q-47 -29 -100 -29q-55 0 -99 27l-52 -62l-54 49l55 60q-40 54 -40 127q0 66 37 116l-58 65l55 49l57 -63q47 30 101 30q58 0 102 -28l51 60l56 -47l-57 -61q34 -50 34 -121zM270 259q17 0 32 4q29 31 29 85
q0 43 -22.5 72.5t-69.5 29.5l-31 -3q-31 -31 -31 -83q0 -43 24 -74t69 -31z" />
    <glyph glyph-name="yen" unicode="&#xa5;" horiz-adv-x="685" 
d="M428 235v-42h129l6 -37l-43 -39h-92v-47l85 -15l-1 -55h-364l-6 32q34 27 84 52v33h-128l-6 37l43 39h91v42h-128l-6 37l43 39h54l-153 289l-64 11l1 55h308l6 -32l-47 -32l80 -150l28 -89h7l119 236l-68 12l1 55h269l6 -32q-35 -28 -92 -56l-143 -267h110l6 -37l-43 -39
h-92z" />
    <glyph glyph-name="brokenbar" unicode="&#xa6;" horiz-adv-x="332" 
d="M93 616h145v-258h-145v258zM93 182h145v-258h-145v258z" />
    <glyph glyph-name="section" unicode="&#xa7;" horiz-adv-x="549" 
d="M419 132q63 -51 63 -123q0 -68 -56.5 -113.5t-145.5 -45.5q-114 0 -214 61l79 137q53 -50 161 -104q31 15 31 45q0 18 -13.5 30.5t-83.5 45.5q-104 52 -138.5 90.5t-34.5 87.5q0 82 85 130q-76 56 -76 129q0 74 64.5 121.5t165.5 47.5q97 0 171 -35l1 -35q0 -64 -15 -117
h-99l-41 99l-37 5q-21 -6 -34 -21.5t-13 -34.5q0 -33 48 -59l58 -30q77 -39 120 -78t43 -100q0 -85 -89 -133zM209 277q0 -24 18.5 -41t118.5 -60q19 20 19 41q0 45 -70 80l-61 29q-25 -23 -25 -49z" />
    <glyph glyph-name="dieresis" unicode="&#xa8;" horiz-adv-x="556" 
d="M252 654q-24 -71 -90 -106q-74 25 -110 89q12 78 93 123q87 -38 107 -106zM509 654q-24 -71 -90 -106q-74 25 -110 89q12 78 93 123q87 -38 107 -106z" />
    <glyph glyph-name="copyright" unicode="&#xa9;" horiz-adv-x="769" 
d="M385 -26q-151 0 -256 103.5t-105 254.5t104 255.5t253 104.5q150 0 257 -105.5t107 -256.5q0 -149 -105 -252.5t-255 -103.5zM382 57q118 0 198.5 80t80.5 195q0 116 -81 196.5t-195 80.5q-115 0 -195.5 -81t-80.5 -199q0 -116 78.5 -194t194.5 -78zM431 137l-33 -2
q-91 0 -149.5 53.5t-58.5 141.5t58 143.5t150 55.5q124 0 170 -122l-127 -61q-23 77 -65 107q-37 -39 -37 -102q0 -48 34 -78.5t95 -30.5q29 0 70 13l18 -47z" />
    <glyph glyph-name="ordfeminine" unicode="&#xaa;" horiz-adv-x="453" 
d="M224 461v45q0 48 -31 61l-28 -3l-21 -76l-83 -1q-7 42 -7 81l1 28q98 32 201 32q64 -4 97 -51q7 -13 7 -54v-120q0 -21 16 -21l36 1l1 -29l-99 -58q-53 2 -80 52l-69 -48l-30 -3q-47 0 -74 24.5t-27 58.5q0 52 54 80zM171 369l53 8v41l-15 1q-20 2 -34.5 -6t-14.5 -22
t11 -22zM423 255v-67h-392v67h392z" />
    <glyph glyph-name="guillemotleft" unicode="&#xab;" horiz-adv-x="657" 
d="M228 480l92 -65l-87 -162l94 -154l-99 -70l-176 178v92zM506 480l92 -65l-87 -162l94 -154l-99 -70l-176 178v92z" />
    <glyph glyph-name="logicalnot" unicode="&#xac;" horiz-adv-x="592" 
d="M540 0h-117v172h-371v110h488v-282z" />
    <glyph glyph-name="uni00AD" unicode="&#xad;" horiz-adv-x="500" 
d="M34 316l25 49h320l65 -103l-25 -49h-320z" />
    <glyph glyph-name="registered" unicode="&#xae;" horiz-adv-x="575" 
d="M290 778q117 0 195 -77.5t78 -195.5q0 -117 -77.5 -196.5t-198.5 -79.5q-120 0 -198 78t-78 196t79.5 196.5t199.5 78.5zM282 291q95 0 155 60t60 152q0 94 -59 154t-151 60t-151 -62t-59 -157q0 -94 56.5 -150.5t148.5 -56.5zM408 407l27 -4v-24h-105l-52 98h-17v-69
l32 -5l-1 -24h-147l-3 15l36 20v195l-32 5v26h151q53 0 85 -23.5t32 -58.5q0 -52 -55 -73zM261 516l19 -2q44 0 44 41q0 31 -24 47l-39 -6v-80z" />
    <glyph glyph-name="macron" unicode="&#xaf;" horiz-adv-x="454" 
d="M424 677l5 -59l-47 -50h-314l-6 84q51 25 113 25h249z" />
    <glyph glyph-name="degree" unicode="&#xb0;" horiz-adv-x="374" 
d="M30 521q0 59 40.5 100.5t99.5 41.5q60 0 102 -41t42 -101q0 -64 -39 -102.5t-101 -38.5q-61 0 -102.5 40t-41.5 101zM200 469q15 18 15 45q0 24 -13.5 42.5t-36.5 18.5q-12 0 -26 -6q-13 -19 -13 -44q0 -24 13 -41.5t38 -17.5z" />
    <glyph glyph-name="plusminus" unicode="&#xb1;" horiz-adv-x="561" 
d="M509 342h-170v-175h-117v175h-170v109h170v175h117v-175h170v-109zM506 0h-453v109h453v-109z" />
    <glyph glyph-name="twosuperior" unicode="&#xb2;" horiz-adv-x="336" 
d="M309 524l-18 -109h-241l-20 53l67 58q83 72 83 118q0 42 -34 53l-36 -104h-65q-13 39 -13 100l1 14q60 44 133 44q57 0 94 -31t37 -75q0 -76 -124 -149l4 -7z" />
    <glyph glyph-name="threesuperior" unicode="&#xb3;" horiz-adv-x="345" 
d="M254 582q28 -7 45 -28.5t17 -50.5q0 -48 -44 -73t-107 -25q-75 0 -135 27l26 109q66 -59 113 -83q26 12 26 37q0 43 -61 43h-24l-3 54h28q54 6 54 51q0 43 -42 51l-42 -80h-55q-5 17 -7.5 50.5t-0.5 52.5q53 34 130 34q56 0 92.5 -28.5t36.5 -68.5q0 -47 -47 -69v-3z" />
    <glyph glyph-name="foursuperior" unicode="&#x2074;" horiz-adv-x="344" 
d="M324 547v-40l-20 -22h-37v-31l36 -9v-30h-215l-3 15q28 20 73 32v23h-138l-24 55l172 210v1h2l97 -17v-188zM158 545v21l14 82l-78 -104z" />
    <glyph glyph-name="acute" unicode="&#xb4;" horiz-adv-x="303" 
d="M14 611l157 197l120 -106q-43 -35 -179 -167z" />
    <glyph glyph-name="uni00B5" unicode="&#xb5;" horiz-adv-x="623" 
d="M621 65l-144 -82q-71 0 -116 86q-74 -56 -143 -82q-31 1 -60 30h-5l95 -200q-14 -18 -60 -34.5t-93 -16.5q-28 0 -50 7l-1 701q97 22 201 20v-300q0 -82 72 -78l23 4v354q97 22 201 20v-355q0 -31 24 -31l33 1l20 1z" />
    <glyph glyph-name="paragraph" unicode="&#xb6;" horiz-adv-x="721" 
d="M614 577v-680l79 -9l-1 -53h-78v-1h-124v749l-71 3v-752h-124v1h-101l-6 44q33 16 107 34v659q-47 -21 -74.5 -65.5t-27.5 -103.5t33 -125l-38 -37q-84 24 -136 88t-52 141q0 100 82 161.5t218 61.5l37 -1l366 -46l-7 -73z" />
    <glyph glyph-name="periodcentered" unicode="&#xb7;" horiz-adv-x="309" 
d="M154 179q-30 12 -67.5 41t-56.5 55q43 88 100 122q31 -13 65 -41.5t54 -54.5q-13 -33 -40 -68t-55 -54z" />
    <glyph glyph-name="cedilla" unicode="&#xb8;" horiz-adv-x="298" 
d="M133 -56q56 0 95.5 -25t39.5 -59q0 -57 -61.5 -96.5t-150.5 -36.5l-21 34q45 16 69 39t24 45q0 19 -18.5 29.5t-51.5 7.5l-27 47l63 77h73z" />
    <glyph glyph-name="onesuperior" unicode="&#xb9;" horiz-adv-x="286" 
d="M271 444v-29h-240l-3 15q28 25 66 34v178l-58 -22l-20 42l148 80v1h1v-1l50 -31v-249z" />
    <glyph glyph-name="ordmasculine" unicode="&#xba;" horiz-adv-x="442" 
d="M28 457q0 76 53.5 125t129.5 49q73 0 124 -49.5t51 -125.5t-51 -124t-127 -48q-77 0 -128.5 49t-51.5 124zM229 363q17 7 17 78q0 101 -44 101l-15 -3q-18 -11 -18 -84q0 -93 47 -93zM400 188h-384v67h384v-67z" />
    <glyph glyph-name="guillemotright" unicode="&#xbb;" horiz-adv-x="657" 
d="M151 29l-99 70l94 154l-87 162l92 65l176 -181v-92zM429 29l-99 70l94 154l-87 162l92 65l176 -181v-92z" />
    <glyph glyph-name="onequarter" unicode="&#xbc;" horiz-adv-x="834" 
d="M271 363v-29h-240l-3 15q28 25 66 34v178l-58 -22l-20 42l148 80v1h1v-1l50 -31v-249zM673 698l71 -70l-591 -618l-72 68zM814 132v-40l-20 -22h-37v-31l36 -9v-30h-215l-3 15q28 20 73 32v23h-138l-24 55l172 210v1h2l97 -17v-188zM648 130v21l14 82l-78 -104z" />
    <glyph glyph-name="onehalf" unicode="&#xbd;" horiz-adv-x="810" 
d="M271 363v-29h-240l-3 15q28 25 66 34v178l-58 -22l-20 42l148 80v1h1v-1l50 -31v-249zM673 698l71 -70l-591 -618l-72 68zM801 109l-18 -109h-241l-20 53l67 58q83 72 83 118q0 42 -34 53l-36 -104h-65q-13 39 -13 100l1 14q60 44 133 44q57 0 94 -31t37 -75
q0 -76 -124 -149l4 -7z" />
    <glyph glyph-name="threequarters" unicode="&#xbe;" horiz-adv-x="868" 
d="M247 501q28 -7 45 -28.5t17 -50.5q0 -48 -44 -73t-107 -25q-75 0 -135 27l26 109q66 -59 113 -83q26 12 26 37q0 43 -61 43h-24l-3 54h28q54 6 54 51q0 43 -42 51l-42 -80h-55q-5 17 -7.5 50.5t-0.5 52.5q53 34 130 34q56 0 92.5 -28.5t36.5 -68.5q0 -47 -47 -69v-3z
M707 698l71 -70l-591 -618l-72 68zM848 132v-40l-20 -22h-37v-31l36 -9v-30h-215l-3 15q28 20 73 32v23h-138l-24 55l172 210v1h2l97 -17v-188zM682 130v21l14 82l-78 -104z" />
    <glyph glyph-name="questiondown" unicode="&#xbf;" horiz-adv-x="661" 
d="M343 -265q-115 0 -187 59t-72 149q0 68 47 114l83 74q40 39 49 85h166q0 -57 -21 -94t-59.5 -78.5t-47.5 -59.5t-9 -39q0 -62 58 -84l18 1l67 154h115q24 -93 24 -174l-1 -18l1 -3q-97 -86 -231 -86zM339 268q-88 40 -110 112q23 74 93 110q80 -26 115 -93
q-11 -80 -98 -129z" />
    <glyph glyph-name="Agrave" unicode="&#xc0;" horiz-adv-x="741" 
d="M757 55l-1 -55h-362l-6 32q35 27 75 47l-31 83h-204l-35 -93l81 -14l-1 -55h-287l-6 32q34 27 84 52l207 514l-17 47l182 45l250 -623zM398 254l-68 185l-68 -185h136zM461 684l-264 100l66 138l249 -149z" />
    <glyph glyph-name="Aacute" unicode="&#xc1;" horiz-adv-x="741" 
d="M757 55l-1 -55h-362l-6 32q35 27 75 47l-31 83h-204l-35 -93l81 -14l-1 -55h-287l-6 32q34 27 84 52l207 514l-17 47l182 45l250 -623zM398 254l-68 185l-68 -185h136zM458 922l66 -138l-264 -100l-51 89z" />
    <glyph glyph-name="Acircumflex" unicode="&#xc2;" horiz-adv-x="741" 
d="M757 55l-1 -55h-362l-6 32q35 27 75 47l-31 83h-204l-35 -93l81 -14l-1 -55h-287l-6 32q34 27 84 52l207 514l-17 47l182 45l250 -623zM398 254l-68 185l-68 -185h136zM297 944h131l157 -175l-64 -62l-161 116l-153 -116l-68 62z" />
    <glyph glyph-name="Atilde" unicode="&#xc3;" horiz-adv-x="741" 
d="M757 55l-1 -55h-362l-6 32q35 27 75 47l-31 83h-204l-35 -93l81 -14l-1 -55h-287l-6 32q34 27 84 52l207 514l-17 47l182 45l250 -623zM398 254l-68 185l-68 -185h136zM127 767q54 82 82 115t55 33q35 0 209 -89l88 72l50 -43q-49 -84 -78.5 -119.5t-60.5 -35.5
t-110.5 41t-96.5 41q-22 0 -79 -59z" />
    <glyph glyph-name="Adieresis" unicode="&#xc4;" horiz-adv-x="741" 
d="M757 55l-1 -55h-362l-6 32q35 27 75 47l-31 83h-204l-35 -93l81 -14l-1 -55h-287l-6 32q34 27 84 52l207 514l-17 47l182 45l250 -623zM398 254l-68 185l-68 -185h136zM332 830q-24 -71 -90 -106q-74 25 -110 89q12 78 93 123q87 -38 107 -106zM589 830q-24 -71 -90 -106
q-74 25 -110 89q12 78 93 123q87 -38 107 -106z" />
    <glyph glyph-name="Aring" unicode="&#xc5;" horiz-adv-x="741" 
d="M757 55l-1 -55h-362l-6 32q35 27 75 47l-31 83h-204l-35 -93l81 -14l-1 -55h-287l-6 32q34 27 84 52l207 514l-17 47l182 45l250 -623zM398 254l-68 185l-68 -185h136zM233 836q0 55 36 92t91 37q54 0 91 -37.5t37 -94.5q0 -55 -34.5 -89.5t-89.5 -34.5t-93 35t-38 92z
M302 818q0 -26 17.5 -42t42.5 -16t41 16t16 41q0 26 -17 42.5t-42 16.5t-41.5 -16.5t-16.5 -41.5z" />
    <glyph glyph-name="AE" unicode="&#xc6;" horiz-adv-x="982" 
d="M946 218q2 -99 -12 -218l-17 1v-1h-564l-6 33q26 21 85 52v77h-177l-47 -93l80 -14l-1 -55h-287l-6 33q27 22 97 58l260 507l-77 13l1 55h667q2 -37 -4 -101.5t-17 -113.5h-115l-20 105l-152 10v-191l211 18v-115l-211 9v-179l159 10l38 109zM432 254v264l-131 -264h131z
" />
    <glyph glyph-name="Ccedilla" unicode="&#xc7;" horiz-adv-x="611" 
d="M336 -56q56 0 95.5 -25t39.5 -59q0 -57 -61.5 -96.5t-150.5 -36.5l-21 34q45 16 69 39t24 45q0 19 -18.5 29.5t-51.5 7.5l-27 47l49 59q-130 21 -203 110.5t-73 225.5q0 94 40.5 177t122.5 134t200 51q121 0 218 -66l1 -17q0 -80 -27 -188h-124l-36 143q-50 18 -110 24
q-77 -83 -77 -232q0 -105 48 -172t138 -68l175 54l31 -93l-214 -88l-36 -1z" />
    <glyph glyph-name="Egrave" unicode="&#xc8;" horiz-adv-x="670" 
d="M620 218q2 -99 -12 -218h-580l-6 32q37 28 85 52v514l-76 13l1 55h585q2 -37 -4 -101.5t-17 -113.5h-115l-20 106l-144 10v-191l203 17v-115l-203 8v-185l149 13l39 113zM433 684l-264 100l66 138l249 -149z" />
    <glyph glyph-name="Eacute" unicode="&#xc9;" horiz-adv-x="670" 
d="M620 218q2 -99 -12 -218h-580l-6 32q37 28 85 52v514l-76 13l1 55h585q2 -37 -4 -101.5t-17 -113.5h-115l-20 106l-144 10v-191l203 17v-115l-203 8v-185l149 13l39 113zM430 922l66 -138l-264 -100l-51 89z" />
    <glyph glyph-name="Ecircumflex" unicode="&#xca;" horiz-adv-x="670" 
d="M620 218q2 -99 -12 -218h-580l-6 32q37 28 85 52v514l-76 13l1 55h585q2 -37 -4 -101.5t-17 -113.5h-115l-20 106l-144 10v-191l203 17v-115l-203 8v-185l149 13l39 113zM269 944h131l157 -175l-64 -62l-161 116l-153 -116l-68 62z" />
    <glyph glyph-name="Edieresis" unicode="&#xcb;" horiz-adv-x="670" 
d="M620 218q2 -99 -12 -218h-580l-6 32q37 28 85 52v514l-76 13l1 55h585q2 -37 -4 -101.5t-17 -113.5h-115l-20 106l-144 10v-191l203 17v-115l-203 8v-185l149 13l39 113zM304 830q-24 -71 -90 -106q-74 25 -110 89q12 78 93 123q87 -38 107 -106zM561 830
q-24 -71 -90 -106q-74 25 -110 89q12 78 93 123q87 -38 107 -106z" />
    <glyph glyph-name="Igrave" unicode="&#xcc;" horiz-adv-x="428" 
d="M406 55l-1 -55h-377l-6 32q37 28 85 52v514l-77 13l1 55h365l6 -32q-37 -28 -85 -52v-512zM314 684l-264 100l66 138l249 -149z" />
    <glyph glyph-name="Iacute" unicode="&#xcd;" horiz-adv-x="428" 
d="M406 55l-1 -55h-377l-6 32q37 28 85 52v514l-77 13l1 55h365l6 -32q-37 -28 -85 -52v-512zM311 922l66 -138l-264 -100l-51 89z" />
    <glyph glyph-name="Icircumflex" unicode="&#xce;" horiz-adv-x="428" 
d="M406 55l-1 -55h-377l-6 32q37 28 85 52v514l-77 13l1 55h365l6 -32q-37 -28 -85 -52v-512zM150 944h131l157 -175l-64 -62l-161 116l-153 -116l-68 62z" />
    <glyph glyph-name="Idieresis" unicode="&#xcf;" horiz-adv-x="428" 
d="M406 55l-1 -55h-377l-6 32q37 28 85 52v514l-77 13l1 55h365l6 -32q-37 -28 -85 -52v-512zM185 830q-24 -71 -90 -106q-74 25 -110 89q12 78 93 123q87 -38 107 -106zM442 830q-24 -71 -90 -106q-74 25 -110 89q12 78 93 123q87 -38 107 -106z" />
    <glyph glyph-name="Eth" unicode="&#xd0;" horiz-adv-x="784" 
d="M382 674q117 0 200 -48.5t125 -125.5t42 -161q0 -148 -95 -242t-253 -97h-373l-6 32q37 28 85 52v178h-89l-6 37l43 43h52v257l-71 12l1 55q156 8 345 8zM376 100q70 0 113 64.5t43 162.5q0 76 -29 146t-79 104l-107 -15v-220h120l6 -37l-43 -43h-83v-152q30 -10 59 -10z
" />
    <glyph glyph-name="Ntilde" unicode="&#xd1;" horiz-adv-x="802" 
d="M780 634q-33 -26 -78 -49l-7 -585l-179 -14l-280 413l13 -119v-210l88 -15l-1 -55h-308l-6 32q37 28 85 52v512l-75 15l1 55h266v-1l276 -418l-14 123v224l-98 17l1 55h310zM148 767q54 82 82 115t55 33q35 0 209 -89l88 72l50 -43q-49 -84 -78.5 -119.5t-60.5 -35.5
t-110.5 41t-96.5 41q-22 0 -79 -59z" />
    <glyph glyph-name="Ograve" unicode="&#xd2;" horiz-adv-x="698" 
d="M347 686q149 0 246 -101t97 -262q0 -156 -93 -249.5t-243 -93.5q-154 0 -250 96t-96 252q0 157 95.5 257.5t243.5 100.5zM283 568q-25 -25 -40.5 -82t-15.5 -136q0 -123 39 -194t106 -71q17 0 37 8q28 30 45 91.5t17 136.5q0 108 -35 183t-102 75q-24 0 -51 -11zM451 684
l-264 100l66 138l249 -149z" />
    <glyph glyph-name="Oacute" unicode="&#xd3;" horiz-adv-x="698" 
d="M347 686q149 0 246 -101t97 -262q0 -156 -93 -249.5t-243 -93.5q-154 0 -250 96t-96 252q0 157 95.5 257.5t243.5 100.5zM283 568q-25 -25 -40.5 -82t-15.5 -136q0 -123 39 -194t106 -71q17 0 37 8q28 30 45 91.5t17 136.5q0 108 -35 183t-102 75q-24 0 -51 -11zM448 922
l66 -138l-264 -100l-51 89z" />
    <glyph glyph-name="Ocircumflex" unicode="&#xd4;" horiz-adv-x="698" 
d="M347 686q149 0 246 -101t97 -262q0 -156 -93 -249.5t-243 -93.5q-154 0 -250 96t-96 252q0 157 95.5 257.5t243.5 100.5zM283 568q-25 -25 -40.5 -82t-15.5 -136q0 -123 39 -194t106 -71q17 0 37 8q28 30 45 91.5t17 136.5q0 108 -35 183t-102 75q-24 0 -51 -11zM287 944
h131l157 -175l-64 -62l-161 116l-153 -116l-68 62z" />
    <glyph glyph-name="Otilde" unicode="&#xd5;" horiz-adv-x="698" 
d="M347 686q149 0 246 -101t97 -262q0 -156 -93 -249.5t-243 -93.5q-154 0 -250 96t-96 252q0 157 95.5 257.5t243.5 100.5zM283 568q-25 -25 -40.5 -82t-15.5 -136q0 -123 39 -194t106 -71q17 0 37 8q28 30 45 91.5t17 136.5q0 108 -35 183t-102 75q-24 0 -51 -11zM117 767
q54 82 82 115t55 33q35 0 209 -89l88 72l50 -43q-49 -84 -78.5 -119.5t-60.5 -35.5t-110.5 41t-96.5 41q-22 0 -79 -59z" />
    <glyph glyph-name="Odieresis" unicode="&#xd6;" horiz-adv-x="698" 
d="M347 686q149 0 246 -101t97 -262q0 -156 -93 -249.5t-243 -93.5q-154 0 -250 96t-96 252q0 157 95.5 257.5t243.5 100.5zM283 568q-25 -25 -40.5 -82t-15.5 -136q0 -123 39 -194t106 -71q17 0 37 8q28 30 45 91.5t17 136.5q0 108 -35 183t-102 75q-24 0 -51 -11zM322 830
q-24 -71 -90 -106q-74 25 -110 89q12 78 93 123q87 -38 107 -106zM579 830q-24 -71 -90 -106q-74 25 -110 89q12 78 93 123q87 -38 107 -106z" />
    <glyph glyph-name="multiply" unicode="&#xd7;" horiz-adv-x="553" 
d="M497 383l-141 -142l142 -142l-82 -82l-141 143l-139 -142l-79 78l140 142l-142 144l82 81l142 -144l138 142z" />
    <glyph glyph-name="Oslash" unicode="&#xd8;" horiz-adv-x="713" 
d="M568 609q122 -103 122 -286q0 -156 -93 -249.5t-243 -93.5q-67 0 -127 21l-52 -94l-79 43l51 91q-139 96 -139 287q0 157 95.5 257.5t243.5 100.5q78 0 144 -30l53 95l79 -45zM227 350q0 -75 16 -137l178 317q-36 49 -87 49q-24 0 -51 -11q-25 -25 -40.5 -82t-15.5 -136z
M409 93q28 30 45 91.5t17 136.5q0 53 -9 99l-169 -302q35 -33 79 -33q17 0 37 8z" />
    <glyph glyph-name="Ugrave" unicode="&#xd9;" horiz-adv-x="773" 
d="M767 634q-37 -28 -85 -52v-297q-1 -164 -78 -234.5t-200 -70.5q-146 0 -231.5 83t-89.5 229v306l-77 13l1 55h365l6 -32q-37 -28 -85 -52v-325q0 -87 37 -128.5t97 -41.5q47 0 79 27q33 46 34 173v310l-80 14l1 55h300zM486 684l-264 100l66 138l249 -149z" />
    <glyph glyph-name="Uacute" unicode="&#xda;" horiz-adv-x="773" 
d="M767 634q-37 -28 -85 -52v-297q-1 -164 -78 -234.5t-200 -70.5q-146 0 -231.5 83t-89.5 229v306l-77 13l1 55h365l6 -32q-37 -28 -85 -52v-325q0 -87 37 -128.5t97 -41.5q47 0 79 27q33 46 34 173v310l-80 14l1 55h300zM483 922l66 -138l-264 -100l-51 89z" />
    <glyph glyph-name="Ucircumflex" unicode="&#xdb;" horiz-adv-x="773" 
d="M767 634q-37 -28 -85 -52v-297q-1 -164 -78 -234.5t-200 -70.5q-146 0 -231.5 83t-89.5 229v306l-77 13l1 55h365l6 -32q-37 -28 -85 -52v-325q0 -87 37 -128.5t97 -41.5q47 0 79 27q33 46 34 173v310l-80 14l1 55h300zM322 944h131l157 -175l-64 -62l-161 116l-153 -116
l-68 62z" />
    <glyph glyph-name="Udieresis" unicode="&#xdc;" horiz-adv-x="773" 
d="M767 634q-37 -28 -85 -52v-297q-1 -164 -78 -234.5t-200 -70.5q-146 0 -231.5 83t-89.5 229v306l-77 13l1 55h365l6 -32q-37 -28 -85 -52v-325q0 -87 37 -128.5t97 -41.5q47 0 79 27q33 46 34 173v310l-80 14l1 55h300zM357 830q-24 -71 -90 -106q-74 25 -110 89
q12 78 93 123q87 -38 107 -106zM614 830q-24 -71 -90 -106q-74 25 -110 89q12 78 93 123q87 -38 107 -106z" />
    <glyph glyph-name="Yacute" unicode="&#xdd;" horiz-adv-x="697" 
d="M452 70l85 -15l-1 -55h-364l-6 32q34 27 84 52v158l-190 358l-64 11l1 55h308l6 -32l-47 -32l80 -150l28 -89h7l119 236l-68 12l1 55h269l6 -32q-35 -28 -92 -56l-162 -302v-206zM468 922l66 -138l-264 -100l-51 89z" />
    <glyph glyph-name="Thorn" unicode="&#xde;" horiz-adv-x="661" 
d="M322 139v-69l89 -15l-1 -55h-378l-6 33q24 20 86 52v496l-78 14l1 55h359l6 -33q-26 -21 -78 -48v-43h79q109 -1 178.5 -57.5t69.5 -139.5q0 -79 -64 -132.5t-164 -56.5zM322 413v-177l35 -5q40 0 64.5 27t24.5 66q0 58 -50 98z" />
    <glyph glyph-name="germandbls" unicode="&#xdf;" horiz-adv-x="681" 
d="M498 381q4 -25 62.5 -71.5t83 -82.5t24.5 -85q0 -75 -57 -118t-146 -43q-73 0 -148 23l42 163q51 -51 103 -65q16 19 16 37q0 20 -12 35t-56 46.5t-62.5 57.5t-23.5 65q59 77 59 151q0 49 -29 79l-16 1q-36 0 -59 -13l4 -124v-437h-274l-1 35q32 21 74 36v271h-86l-1 56
q39 39 87 66q0 89 42.5 135.5t102 67t108.5 20.5q97 0 165.5 -54t68.5 -127q0 -66 -71 -125z" />
    <glyph glyph-name="agrave" unicode="&#xe0;" horiz-adv-x="581" 
d="M578 65l-143 -82q-68 0 -112 74l-104 -69l-38 -3q-67 0 -112 39.5t-45 92.5q0 34 21.5 67.5t63.5 54.5l188 4v75q0 74 -45 98q-22 -2 -37 -10l-29 -112l-114 -1q-17 58 -17 112l4 49q64 23 144.5 37t129.5 14q97 0 153 -74q12 -18 12 -92v-200q0 -31 24 -31l33 1l20 1z
M220 132q0 -25 15 -42l62 13v75q-77 0 -77 -46zM98 696l120 106l157 -197l-98 -76q-136 132 -179 167z" />
    <glyph glyph-name="aacute" unicode="&#xe1;" horiz-adv-x="581" 
d="M578 65l-143 -82q-68 0 -112 74l-104 -69l-38 -3q-67 0 -112 39.5t-45 92.5q0 34 21.5 67.5t63.5 54.5l188 4v75q0 74 -45 98q-22 -2 -37 -10l-29 -112l-114 -1q-17 58 -17 112l4 49q64 23 144.5 37t129.5 14q97 0 153 -74q12 -18 12 -92v-200q0 -31 24 -31l33 1l20 1z
M220 132q0 -25 15 -42l62 13v75q-77 0 -77 -46zM167 605l157 197l120 -106q-43 -35 -179 -167z" />
    <glyph glyph-name="acircumflex" unicode="&#xe2;" horiz-adv-x="581" 
d="M578 65l-143 -82q-68 0 -112 74l-104 -69l-38 -3q-67 0 -112 39.5t-45 92.5q0 34 21.5 67.5t63.5 54.5l188 4v75q0 74 -45 98q-22 -2 -37 -10l-29 -112l-114 -1q-17 58 -17 112l4 49q64 23 144.5 37t129.5 14q97 0 153 -74q12 -18 12 -92v-200q0 -31 24 -31l33 1l20 1z
M220 132q0 -25 15 -42l62 13v75q-77 0 -77 -46zM213 745h127l133 -162l-60 -57l-141 110l-124 -115l-71 54z" />
    <glyph glyph-name="atilde" unicode="&#xe3;" horiz-adv-x="581" 
d="M578 65l-143 -82q-68 0 -112 74l-104 -69l-38 -3q-67 0 -112 39.5t-45 92.5q0 34 21.5 67.5t63.5 54.5l188 4v75q0 74 -45 98q-22 -2 -37 -10l-29 -112l-114 -1q-17 58 -17 112l4 49q64 23 144.5 37t129.5 14q97 0 153 -74q12 -18 12 -92v-200q0 -31 24 -31l33 1l20 1z
M220 132q0 -25 15 -42l62 13v75q-77 0 -77 -46zM46 591q55 95 86.5 126.5t70.5 31.5q23 0 75.5 -29.5t96.5 -62.5l84 86l61 -44q-79 -161 -149 -161q-16 0 -33.5 7.5t-71 42t-69.5 34.5t-34 -18t-53 -62z" />
    <glyph glyph-name="adieresis" unicode="&#xe4;" horiz-adv-x="581" 
d="M578 65l-143 -82q-68 0 -112 74l-104 -69l-38 -3q-67 0 -112 39.5t-45 92.5q0 34 21.5 67.5t63.5 54.5l188 4v75q0 74 -45 98q-22 -2 -37 -10l-29 -112l-114 -1q-17 58 -17 112l4 49q64 23 144.5 37t129.5 14q97 0 153 -74q12 -18 12 -92v-200q0 -31 24 -31l33 1l20 1z
M220 132q0 -25 15 -42l62 13v75q-77 0 -77 -46zM243 648q-24 -71 -90 -106q-74 25 -110 89q12 78 93 123q87 -38 107 -106zM500 648q-24 -71 -90 -106q-74 25 -110 89q12 78 93 123q87 -38 107 -106z" />
    <glyph glyph-name="aring" unicode="&#xe5;" horiz-adv-x="581" 
d="M578 65l-143 -82q-68 0 -112 74l-104 -69l-38 -3q-67 0 -112 39.5t-45 92.5q0 34 21.5 67.5t63.5 54.5l188 4v75q0 74 -45 98q-22 -2 -37 -10l-29 -112l-114 -1q-17 58 -17 112l4 49q64 23 144.5 37t129.5 14q97 0 153 -74q12 -18 12 -92v-200q0 -31 24 -31l33 1l20 1z
M220 132q0 -25 15 -42l62 13v75q-77 0 -77 -46zM144 654q0 55 36 92t91 37q54 0 91 -37.5t37 -94.5q0 -55 -34.5 -89.5t-89.5 -34.5t-93 35t-38 92zM213 636q0 -26 17.5 -42t42.5 -16t41 16t16 41q0 26 -17 42.5t-42 16.5t-41.5 -16.5t-16.5 -41.5z" />
    <glyph glyph-name="ae" unicode="&#xe6;" horiz-adv-x="809" 
d="M729 219l-242 1q9 -56 46.5 -84t92.5 -28q54 0 128 39l28 -62l-158 -96q-30 -6 -60 -6q-125 0 -203 86l-142 -81l-38 -3q-67 0 -112 39.5t-45 92.5q0 34 21.5 67.5t63.5 54.5l190 4l-1 69q-1 74 -45 97q-25 -2 -37 -10l-29 -112l-122 6q-10 43 -10 91l5 63q151 53 291 53
q37 -3 73 -37q66 41 141 41q102 0 166.5 -61.5t64.5 -164.5h-8zM545 413q-44 -30 -57 -108l129 9q-5 38 -24.5 66.5t-47.5 32.5zM235 90q26 3 95 24q-15 27 -23 64h-8q-79 0 -79 -46q0 -25 15 -42z" />
    <glyph glyph-name="ccedilla" unicode="&#xe7;" horiz-adv-x="479" 
d="M322 -12l-51 -6l-21 -38q56 0 95.5 -25t39.5 -59q0 -57 -61.5 -96.5t-150.5 -36.5l-21 34q45 16 69 39t24 45q0 19 -18.5 29.5t-51.5 7.5l-27 47l50 61q-83 21 -136.5 87t-53.5 163q0 116 74 190t187 74q79 0 140 -39t75 -112l-165 -79q-35 96 -76 129q-44 -46 -44 -134
q0 -72 35 -116.5t99 -44.5q47 0 111 32l26 -59z" />
    <glyph glyph-name="egrave" unicode="&#xe8;" horiz-adv-x="516" 
d="M444 219l-249 1q10 -54 47 -83t92 -29t127 39l28 -62l-158 -96q-30 -6 -60 -6q-114 0 -188.5 70.5t-74.5 182.5q0 114 77 191t187 77q102 0 166.5 -61.5t64.5 -164.5zM252 413q-40 -27 -56 -109l128 9q-5 39 -24.5 67.5t-47.5 32.5zM94 696l120 106l157 -197l-98 -76
q-136 132 -179 167z" />
    <glyph glyph-name="eacute" unicode="&#xe9;" horiz-adv-x="516" 
d="M444 219l-249 1q10 -54 47 -83t92 -29t127 39l28 -62l-158 -96q-30 -6 -60 -6q-114 0 -188.5 70.5t-74.5 182.5q0 114 77 191t187 77q102 0 166.5 -61.5t64.5 -164.5zM252 413q-40 -27 -56 -109l128 9q-5 39 -24.5 67.5t-47.5 32.5zM163 605l157 197l120 -106
q-43 -35 -179 -167z" />
    <glyph glyph-name="ecircumflex" unicode="&#xea;" horiz-adv-x="516" 
d="M444 219l-249 1q10 -54 47 -83t92 -29t127 39l28 -62l-158 -96q-30 -6 -60 -6q-114 0 -188.5 70.5t-74.5 182.5q0 114 77 191t187 77q102 0 166.5 -61.5t64.5 -164.5zM252 413q-40 -27 -56 -109l128 9q-5 39 -24.5 67.5t-47.5 32.5zM209 745h127l133 -162l-60 -57
l-141 110l-124 -115l-71 54z" />
    <glyph glyph-name="edieresis" unicode="&#xeb;" horiz-adv-x="516" 
d="M444 219l-249 1q10 -54 47 -83t92 -29t127 39l28 -62l-158 -96q-30 -6 -60 -6q-114 0 -188.5 70.5t-74.5 182.5q0 114 77 191t187 77q102 0 166.5 -61.5t64.5 -164.5zM252 413q-40 -27 -56 -109l128 9q-5 39 -24.5 67.5t-47.5 32.5zM239 648q-24 -71 -90 -106
q-74 25 -110 89q12 78 93 123q87 -38 107 -106zM496 648q-24 -71 -90 -106q-74 25 -110 89q12 78 93 123q87 -38 107 -106z" />
    <glyph glyph-name="igrave" unicode="&#xec;" horiz-adv-x="349" 
d="M282 84l55 -35l-1 -49h-329l-1 35q34 21 75 36v317l-75 19l-2 49q96 34 219 39l59 -53v-358zM-4 696l120 106l157 -197l-98 -76q-136 132 -179 167z" />
    <glyph glyph-name="iacute" unicode="&#xed;" horiz-adv-x="349" 
d="M282 84l55 -35l-1 -49h-329l-1 35q34 21 75 36v317l-75 19l-2 49q96 34 219 39l59 -53v-358zM65 605l157 197l120 -106q-43 -35 -179 -167z" />
    <glyph glyph-name="icircumflex" unicode="&#xee;" horiz-adv-x="349" 
d="M282 84l55 -35l-1 -49h-329l-1 35q34 21 75 36v317l-75 19l-2 49q96 34 219 39l59 -53v-358zM111 745h127l133 -162l-60 -57l-141 110l-124 -115l-71 54z" />
    <glyph glyph-name="idieresis" unicode="&#xef;" horiz-adv-x="349" 
d="M282 84l55 -35l-1 -49h-329l-1 35q34 21 75 36v317l-75 19l-2 49q96 34 219 39l59 -53v-358zM141 648q-24 -71 -90 -106q-74 25 -110 89q12 78 93 123q87 -38 107 -106zM398 648q-24 -71 -90 -106q-74 25 -110 89q12 78 93 123q87 -38 107 -106z" />
    <glyph glyph-name="eth" unicode="&#xf0;" horiz-adv-x="557" 
d="M452 599q100 -187 100 -344q0 -126 -72.5 -204.5t-186.5 -78.5q-118 0 -197.5 75.5t-79.5 192.5q0 104 63 169.5t157 65.5q43 0 83 -17l-30 78l-59 -23l-76 51l-6 45l86 36l-40 66l138 68l54 -71l80 33l57 -114zM320 74q43 52 43 168q0 52 -10 93q-38 32 -82 41
q-21 -21 -34.5 -63t-13.5 -88q0 -62 25 -106t72 -45z" />
    <glyph glyph-name="ntilde" unicode="&#xf1;" horiz-adv-x="666" 
d="M583 88q43 -18 72 -39l-2 -49h-271v273q0 100 -70 96l-28 -5v-280l55 -35l-1 -49h-329l-1 35q34 21 75 36v325l-75 19l-2 49q96 34 219 39l59 -61v-16q69 50 133 72q39 2 83 -14t71 -59q11 -20 12 -93v-244zM108 591q55 95 86.5 126.5t70.5 31.5q23 0 75.5 -29.5
t96.5 -62.5l84 86l61 -44q-79 -161 -149 -161q-16 0 -33.5 7.5t-71 42t-69.5 34.5t-34 -18t-53 -62z" />
    <glyph glyph-name="ograve" unicode="&#xf2;" horiz-adv-x="539" 
d="M8 245q0 114 73.5 186.5t185.5 72.5q113 0 186 -73.5t73 -189.5t-71.5 -188.5t-182.5 -72.5q-113 0 -188.5 74.5t-75.5 190.5zM296 82q28 24 28 147q0 167 -63 167q-17 0 -27 -7q-24 -37 -24 -150q0 -161 65 -161q10 0 21 4zM94 696l120 106l157 -197l-98 -76
q-136 132 -179 167z" />
    <glyph glyph-name="oacute" unicode="&#xf3;" horiz-adv-x="539" 
d="M8 245q0 114 73.5 186.5t185.5 72.5q113 0 186 -73.5t73 -189.5t-71.5 -188.5t-182.5 -72.5q-113 0 -188.5 74.5t-75.5 190.5zM296 82q28 24 28 147q0 167 -63 167q-17 0 -27 -7q-24 -37 -24 -150q0 -161 65 -161q10 0 21 4zM163 605l157 197l120 -106q-43 -35 -179 -167
z" />
    <glyph glyph-name="ocircumflex" unicode="&#xf4;" horiz-adv-x="539" 
d="M8 245q0 114 73.5 186.5t185.5 72.5q113 0 186 -73.5t73 -189.5t-71.5 -188.5t-182.5 -72.5q-113 0 -188.5 74.5t-75.5 190.5zM296 82q28 24 28 147q0 167 -63 167q-17 0 -27 -7q-24 -37 -24 -150q0 -161 65 -161q10 0 21 4zM209 745h127l133 -162l-60 -57l-141 110
l-124 -115l-71 54z" />
    <glyph glyph-name="otilde" unicode="&#xf5;" horiz-adv-x="539" 
d="M8 245q0 114 73.5 186.5t185.5 72.5q113 0 186 -73.5t73 -189.5t-71.5 -188.5t-182.5 -72.5q-113 0 -188.5 74.5t-75.5 190.5zM296 82q28 24 28 147q0 167 -63 167q-17 0 -27 -7q-24 -37 -24 -150q0 -161 65 -161q10 0 21 4zM42 591q55 95 86.5 126.5t70.5 31.5
q23 0 75.5 -29.5t96.5 -62.5l84 86l61 -44q-79 -161 -149 -161q-16 0 -33.5 7.5t-71 42t-69.5 34.5t-34 -18t-53 -62z" />
    <glyph glyph-name="odieresis" unicode="&#xf6;" horiz-adv-x="539" 
d="M8 245q0 114 73.5 186.5t185.5 72.5q113 0 186 -73.5t73 -189.5t-71.5 -188.5t-182.5 -72.5q-113 0 -188.5 74.5t-75.5 190.5zM296 82q28 24 28 147q0 167 -63 167q-17 0 -27 -7q-24 -37 -24 -150q0 -161 65 -161q10 0 21 4zM239 648q-24 -71 -90 -106q-74 25 -110 89
q12 78 93 123q87 -38 107 -106zM496 648q-24 -71 -90 -106q-74 25 -110 89q12 78 93 123q87 -38 107 -106z" />
    <glyph glyph-name="divide" unicode="&#xf7;" horiz-adv-x="594" 
d="M391 447q-22 -67 -83 -98q-70 21 -103 83q11 73 87 115q80 -36 99 -100zM542 210h-490v110h490v-110zM391 78q-23 -68 -83 -98q-70 21 -103 83q10 72 87 115q80 -36 99 -100z" />
    <glyph glyph-name="oslash" unicode="&#xf8;" horiz-adv-x="551" 
d="M468 413q58 -69 58 -172q0 -116 -71.5 -188.5t-182.5 -72.5q-43 0 -82 12l-62 -89l-105 69l59 84q-74 74 -74 189q0 114 73.5 186.5t185.5 72.5q49 0 97 -17l53 79l107 -68zM296 82q28 24 28 147q0 167 -63 167q-17 0 -27 -7q-24 -37 -24 -150q0 -161 65 -161q10 0 21 4z
" />
    <glyph glyph-name="ugrave" unicode="&#xf9;" horiz-adv-x="656" 
d="M654 65l-144 -82q-33 1 -64 23.5t-51 61.5q-79 -60 -152 -85q-36 -4 -80.5 15t-72.5 62q-12 19 -13 93v243l-75 19l-2 49q96 34 219 39l59 -53v-256q0 -84 71 -78l24 4v281l-51 18l-2 49q85 32 195 35l59 -53v-311q0 -31 24 -31l33 1l20 1zM134 696l120 106l157 -197
l-98 -76q-136 132 -179 167z" />
    <glyph glyph-name="uacute" unicode="&#xfa;" horiz-adv-x="656" 
d="M654 65l-144 -82q-33 1 -64 23.5t-51 61.5q-79 -60 -152 -85q-36 -4 -80.5 15t-72.5 62q-12 19 -13 93v243l-75 19l-2 49q96 34 219 39l59 -53v-256q0 -84 71 -78l24 4v281l-51 18l-2 49q85 32 195 35l59 -53v-311q0 -31 24 -31l33 1l20 1zM203 605l157 197l120 -106
q-43 -35 -179 -167z" />
    <glyph glyph-name="ucircumflex" unicode="&#xfb;" horiz-adv-x="656" 
d="M654 65l-144 -82q-33 1 -64 23.5t-51 61.5q-79 -60 -152 -85q-36 -4 -80.5 15t-72.5 62q-12 19 -13 93v243l-75 19l-2 49q96 34 219 39l59 -53v-256q0 -84 71 -78l24 4v281l-51 18l-2 49q85 32 195 35l59 -53v-311q0 -31 24 -31l33 1l20 1zM249 745h127l133 -162l-60 -57
l-141 110l-124 -115l-71 54z" />
    <glyph glyph-name="udieresis" unicode="&#xfc;" horiz-adv-x="656" 
d="M654 65l-144 -82q-33 1 -64 23.5t-51 61.5q-79 -60 -152 -85q-36 -4 -80.5 15t-72.5 62q-12 19 -13 93v243l-75 19l-2 49q96 34 219 39l59 -53v-256q0 -84 71 -78l24 4v281l-51 18l-2 49q85 32 195 35l59 -53v-311q0 -31 24 -31l33 1l20 1zM279 648q-24 -71 -90 -106
q-74 25 -110 89q12 78 93 123q87 -38 107 -106zM536 648q-24 -71 -90 -106q-74 25 -110 89q12 78 93 123q87 -38 107 -106z" />
    <glyph glyph-name="yacute" unicode="&#xfd;" horiz-adv-x="584" 
d="M587 429l-44 -27l-47 -172q-53 -186 -129 -287t-219 -177l-103 178q123 33 236 78l-113 28l-118 323l-82 53v56h254l61 -228l5 -68h16q37 185 53 296h229zM202 605l157 197l120 -106q-43 -35 -179 -167z" />
    <glyph glyph-name="thorn" unicode="&#xfe;" horiz-adv-x="605" 
d="M290 -18l-23 1v-85l98 -50l-1 -49h-363l-1 36l66 26v576h1v178l-89 31l-2 49q98 34 234 42l59 -54v-267l103 78l33 3q82 0 134.5 -65t52.5 -166q0 -126 -82 -205t-220 -79zM294 363q-13 0 -25 -4v-272l39 -5l24 2q53 55 53 148q0 55 -24.5 93t-66.5 38z" />
    <glyph glyph-name="ydieresis" unicode="&#xff;" horiz-adv-x="584" 
d="M587 429l-44 -27l-47 -172q-53 -186 -129 -287t-219 -177l-103 178q123 33 236 78l-113 28l-118 323l-82 53v56h254l61 -228l5 -68h16q37 185 53 296h229zM278 648q-24 -71 -90 -106q-74 25 -110 89q12 78 93 123q87 -38 107 -106zM535 648q-24 -71 -90 -106
q-74 25 -110 89q12 78 93 123q87 -38 107 -106z" />
    <glyph glyph-name="Amacron" unicode="&#x100;" horiz-adv-x="741" 
d="M757 55l-1 -55h-362l-6 32q35 27 75 47l-31 83h-204l-35 -93l81 -14l-1 -55h-287l-6 32q34 27 84 52l207 514l-17 47l182 45l250 -623zM398 254l-68 185l-68 -185h136zM578 851l5 -59l-47 -50h-373l-6 84q49 25 113 25h308z" />
    <glyph glyph-name="amacron" unicode="&#x101;" horiz-adv-x="581" 
d="M578 65l-143 -82q-68 0 -112 74l-104 -69l-38 -3q-67 0 -112 39.5t-45 92.5q0 34 21.5 67.5t63.5 54.5l188 4v75q0 74 -45 98q-22 -2 -37 -10l-29 -112l-114 -1q-17 58 -17 112l4 49q64 23 144.5 37t129.5 14q97 0 153 -74q12 -18 12 -92v-200q0 -31 24 -31l33 1l20 1z
M220 132q0 -25 15 -42l62 13v75q-77 0 -77 -46zM464 671l5 -59l-47 -50h-314l-6 84q51 25 113 25h249z" />
    <glyph glyph-name="Abreve" unicode="&#x102;" horiz-adv-x="741" 
d="M757 55l-1 -55h-362l-6 32q35 27 75 47l-31 83h-204l-35 -93l81 -14l-1 -55h-287l-6 32q34 27 84 52l207 514l-17 47l182 45l250 -623zM398 254l-68 185l-68 -185h136zM539 893q-8 -83 -56.5 -124t-117.5 -41q-73 0 -123 43t-57 121l109 3q8 -68 62 -68t60 67z" />
    <glyph glyph-name="abreve" unicode="&#x103;" horiz-adv-x="581" 
d="M578 65l-143 -82q-68 0 -112 74l-104 -69l-38 -3q-67 0 -112 39.5t-45 92.5q0 34 21.5 67.5t63.5 54.5l188 4v75q0 74 -45 98q-22 -2 -37 -10l-29 -112l-114 -1q-17 58 -17 112l4 49q64 23 144.5 37t129.5 14q97 0 153 -74q12 -18 12 -92v-200q0 -31 24 -31l33 1l20 1z
M220 132q0 -25 15 -42l62 13v75q-77 0 -77 -46zM449 713q-1 -75 -50 -122.5t-125 -47.5q-75 0 -125 47t-54 123l109 2q2 -34 20.5 -52t42.5 -18q25 0 42 18.5t17 51.5z" />
    <glyph glyph-name="Aogonek" unicode="&#x104;" horiz-adv-x="741" 
d="M757 55l-1 -55h-71q-67 -42 -100 -74.5t-33 -68.5q0 -52 54 -52q34 0 76 26l26 -54l-129 -71l-25 -2q-59 0 -97.5 34t-38.5 84t45.5 97t132.5 81h-202l-6 32q35 27 75 47l-31 83h-204l-35 -93l81 -14l-1 -55h-287l-6 32q34 27 84 52l207 514l-17 47l182 45l250 -623z
M398 254l-68 185l-68 -185h136z" />
    <glyph glyph-name="aogonek" unicode="&#x105;" horiz-adv-x="567" 
d="M392 -107q0 -52 54 -52q35 0 77 26l25 -55l-129 -70l-25 -2q-59 0 -97.5 34t-38.5 83q0 82 112 147q-29 21 -47 53l-104 -69l-38 -3q-67 0 -112 39.5t-45 92.5q0 34 21.5 67.5t63.5 54.5l188 4v75q0 74 -45 98q-22 -2 -37 -10l-29 -112l-114 -1q-17 58 -17 112l4 49
q64 23 144.5 37t129.5 14q97 0 153 -74q12 -18 12 -92v-200q0 -31 24 -31l33 1l20 1l3 -45l-61 -35q-64 -41 -94.5 -71.5t-30.5 -65.5zM220 132q0 -25 15 -42l62 13v75q-77 0 -77 -46z" />
    <glyph glyph-name="Cacute" unicode="&#x106;" horiz-adv-x="611" 
d="M607 71l-214 -88l-29 -1q-130 0 -209.5 51t-113.5 128.5t-34 162.5q0 94 40.5 177t122.5 134t200 51q121 0 218 -66l1 -17q0 -80 -27 -188h-124l-36 143q-50 18 -110 24q-77 -83 -77 -232q0 -105 48 -172t138 -68l175 54zM439 922l66 -138l-264 -100l-51 89z" />
    <glyph glyph-name="cacute" unicode="&#x107;" horiz-adv-x="479" 
d="M322 -12q-28 -6 -57 -6q-109 0 -183 73t-74 185q0 116 74 190t187 74q79 0 140 -39t75 -112l-165 -79q-35 96 -76 129q-44 -46 -44 -134q0 -72 35 -116.5t99 -44.5q47 0 111 32l26 -59zM167 605l157 197l120 -106q-43 -35 -179 -167z" />
    <glyph glyph-name="Ccaron" unicode="&#x10c;" horiz-adv-x="611" 
d="M607 71l-214 -88l-29 -1q-130 0 -209.5 51t-113.5 128.5t-34 162.5q0 94 40.5 177t122.5 134t200 51q121 0 218 -66l1 -17q0 -80 -27 -188h-124l-36 143q-50 18 -110 24q-77 -83 -77 -232q0 -105 48 -172t138 -68l175 54zM341 811l137 124l77 -64l-155 -156l-131 -2
l-151 147l88 77z" />
    <glyph glyph-name="ccaron" unicode="&#x10d;" horiz-adv-x="479" 
d="M322 -12q-28 -6 -57 -6q-109 0 -183 73t-74 185q0 116 74 190t187 74q79 0 140 -39t75 -112l-165 -79q-35 96 -76 129q-44 -46 -44 -134q0 -72 35 -116.5t99 -44.5q47 0 111 32l26 -59zM276 636l123 143l81 -70l-137 -172l-139 -2l-150 157l96 86z" />
    <glyph glyph-name="Dcaron" unicode="&#x10e;" horiz-adv-x="757" 
d="M382 674q117 0 200 -48.5t125 -125.5t42 -161q0 -148 -95 -242t-253 -97h-373l-6 32q37 28 85 52v515l-71 12l1 55q156 8 345 8zM376 100q70 0 113 64.5t43 162.5q0 76 -29 146t-79 104l-107 -15v-452q30 -10 59 -10zM381 811l137 124l77 -64l-155 -156l-131 -2l-151 147
l88 77z" />
    <glyph glyph-name="dcaron" unicode="&#x10f;" horiz-adv-x="781" 
d="M607 65l-144 -82q-35 0 -66.5 23t-51.5 64h-2l-114 -87q-97 -1 -159 70.5t-62 180.5q0 117 74.5 191t196.5 74l47 -3v133l-75 19l-2 50q95 33 219 39l59 -54v-544q0 -31 24 -31l33 1l20 1zM217 254q0 -56 22.5 -93t63.5 -37l23 3v262q-27 10 -58 12q-51 -49 -51 -147z
M748 812q34 -50 34 -107q0 -61 -36.5 -122.5t-100.5 -111.5l-60 47q54 83 54 134q0 40 -34 44v55z" />
    <glyph glyph-name="Dcroat" unicode="&#x110;" horiz-adv-x="784" 
d="M382 674q117 0 200 -48.5t125 -125.5t42 -161q0 -148 -95 -242t-253 -97h-373l-6 32q37 28 85 52v178h-89l-6 37l43 43h52v257l-71 12l1 55q156 8 345 8zM376 100q70 0 113 64.5t43 162.5q0 76 -29 146t-79 104l-107 -15v-220h120l6 -37l-43 -43h-83v-152q30 -10 59 -10z
" />
    <glyph glyph-name="dcroat" unicode="&#x111;" horiz-adv-x="626" 
d="M551 108l33 1l20 1l3 -45l-144 -82q-35 0 -66.5 23t-51.5 64h-2l-114 -87q-97 -1 -159 70.5t-62 180.5q0 117 74.5 191t196.5 74l47 -3v30h-104l-6 37l43 40h67v26l-75 19l-2 50q95 33 219 39l59 -54v-80h84l6 -37l-43 -40h-47v-392q0 -26 24 -26zM217 254
q0 -56 22.5 -93t63.5 -37l23 3v262q-27 10 -58 12q-51 -49 -51 -147z" />
    <glyph glyph-name="Emacron" unicode="&#x112;" horiz-adv-x="670" 
d="M620 218q2 -99 -12 -218h-580l-6 32q37 28 85 52v514l-76 13l1 55h585q2 -37 -4 -101.5t-17 -113.5h-115l-20 106l-144 10v-191l203 17v-115l-203 8v-185l149 13l39 113zM550 851l5 -59l-47 -50h-373l-6 84q49 25 113 25h308z" />
    <glyph glyph-name="emacron" unicode="&#x113;" horiz-adv-x="516" 
d="M444 219l-249 1q10 -54 47 -83t92 -29t127 39l28 -62l-158 -96q-30 -6 -60 -6q-114 0 -188.5 70.5t-74.5 182.5q0 114 77 191t187 77q102 0 166.5 -61.5t64.5 -164.5zM252 413q-40 -27 -56 -109l128 9q-5 39 -24.5 67.5t-47.5 32.5zM460 671l5 -59l-47 -50h-314l-6 84
q51 25 113 25h249z" />
    <glyph glyph-name="Edotaccent" unicode="&#x116;" horiz-adv-x="670" 
d="M620 218q2 -99 -12 -218h-580l-6 32q37 28 85 52v514l-76 13l1 55h585q2 -37 -4 -101.5t-17 -113.5h-115l-20 106l-144 10v-191l203 17v-115l-203 8v-185l149 13l39 113zM436 830q-23 -71 -89 -106q-75 25 -110 89q11 77 93 123q87 -37 106 -106z" />
    <glyph glyph-name="edotaccent" unicode="&#x117;" horiz-adv-x="516" 
d="M444 219l-249 1q10 -54 47 -83t92 -29t127 39l28 -62l-158 -96q-30 -6 -60 -6q-114 0 -188.5 70.5t-74.5 182.5q0 114 77 191t187 77q102 0 166.5 -61.5t64.5 -164.5zM252 413q-40 -27 -56 -109l128 9q-5 39 -24.5 67.5t-47.5 32.5zM371 648q-23 -71 -89 -106
q-75 25 -110 89q11 77 93 123q87 -37 106 -106z" />
    <glyph glyph-name="Eogonek" unicode="&#x118;" horiz-adv-x="674" 
d="M632 -225l-129 -71l-25 -2q-59 0 -97.5 34t-38.5 84t47 98t136 82h-497l-6 32q37 28 85 52v514l-76 13l1 55h585q2 -37 -4 -101.5t-17 -113.5h-115l-20 106l-144 10v-191l203 17v-115l-203 8v-185l149 13l39 113l115 -9q2 -95 -12 -214l4 -4q-69 -44 -102.5 -76.5
t-33.5 -68.5q0 -52 54 -52q34 0 76 26z" />
    <glyph glyph-name="eogonek" unicode="&#x119;" horiz-adv-x="530" 
d="M444 219l-249 1q10 -54 47 -83t92 -29t127 39l28 -62q-109 -68 -142.5 -100.5t-33.5 -68.5q0 -52 54 -52q33 0 76 25l26 -54l-130 -71l-24 -2q-58 0 -97 34.5t-39 83.5q0 55 54 106q-102 13 -163.5 82t-61.5 168q0 114 77 191t187 77q102 0 166.5 -61.5t64.5 -164.5z
M252 413q-40 -27 -56 -109l128 9q-5 39 -24.5 67.5t-47.5 32.5z" />
    <glyph glyph-name="Ecaron" unicode="&#x11a;" horiz-adv-x="670" 
d="M620 218q2 -99 -12 -218h-580l-6 32q37 28 85 52v514l-76 13l1 55h585q2 -37 -4 -101.5t-17 -113.5h-115l-20 106l-144 10v-191l203 17v-115l-203 8v-185l149 13l39 113zM332 811l137 124l77 -64l-155 -156l-131 -2l-151 147l88 77z" />
    <glyph glyph-name="ecaron" unicode="&#x11b;" horiz-adv-x="516" 
d="M444 219l-249 1q10 -54 47 -83t92 -29t127 39l28 -62l-158 -96q-30 -6 -60 -6q-114 0 -188.5 70.5t-74.5 182.5q0 114 77 191t187 77q102 0 166.5 -61.5t64.5 -164.5zM252 413q-40 -27 -56 -109l128 9q-5 39 -24.5 67.5t-47.5 32.5zM272 636l123 143l81 -70l-137 -172
l-139 -2l-150 157l96 86z" />
    <glyph glyph-name="Gbreve" unicode="&#x11e;" horiz-adv-x="720" 
d="M630 236v-169l-231 -87l-33 -1q-129 0 -209.5 52t-115 130t-34.5 160q0 157 108 261t278 104q131 0 225 -61l1 -20q0 -86 -25 -175h-123l-36 130q-69 21 -141 22q-39 -38 -59.5 -99.5t-20.5 -129.5q0 -114 54 -183t142 -69l34 1v117q-57 28 -90 53l6 33h345l1 -47z
M536 893q-8 -83 -56.5 -124t-117.5 -41q-73 0 -123 43t-57 121l109 3q8 -68 62 -68t60 67z" />
    <glyph glyph-name="gbreve" unicode="&#x11f;" horiz-adv-x="591" 
d="M201 127q166 -2 340 -52q17 -33 17 -72q0 -100 -96.5 -177.5t-225.5 -77.5q-85 0 -151.5 37.5t-77.5 120.5l99 87l-45 3l-22 82q58 58 118 93q-65 21 -98.5 63.5t-33.5 91.5q0 76 70 128t177 52q82 0 142 -30q31 89 142 91l31 -154l-42 4q-26 0 -52 -8q23 -37 23 -78
q0 -76 -70 -125.5t-180 -49.5l-29 1zM241 419q-10 -6 -16.5 -33.5t-6.5 -56.5q0 -40 16 -67.5t46 -27.5l15 2q12 7 20 31.5t8 52.5q0 39 -17.5 70.5t-47.5 31.5zM270 -109q44 0 85 12.5t61 34.5q-90 31 -243 49q-15 -20 -15 -36q0 -30 31.5 -45t80.5 -15zM446 713
q-1 -75 -50 -122.5t-125 -47.5q-75 0 -125 47t-54 123l109 2q2 -34 20.5 -52t42.5 -18q25 0 42 18.5t17 51.5z" />
    <glyph glyph-name="uni0122" unicode="&#x122;" horiz-adv-x="720" 
d="M630 236v-169l-231 -87l-33 -1q-129 0 -209.5 52t-115 130t-34.5 160q0 157 108 261t278 104q131 0 225 -61l1 -20q0 -86 -25 -175h-123l-36 130q-69 21 -141 22q-39 -38 -59.5 -99.5t-20.5 -129.5q0 -114 54 -183t142 -69l34 1v117q-57 28 -90 53l6 33h345l1 -47z
M396 -69q61 -28 61 -85q0 -46 -36 -99.5t-80 -77.5l-56 41q32 43 32 80q0 34 -27 54l-2 41z" />
    <glyph glyph-name="uni0123" unicode="&#x123;" horiz-adv-x="591" 
d="M201 127q166 -2 340 -52q17 -33 17 -72q0 -100 -96.5 -177.5t-225.5 -77.5q-85 0 -151.5 37.5t-77.5 120.5l99 87l-45 3l-22 82q58 58 118 93q-65 21 -98.5 63.5t-33.5 91.5q0 76 70 128t177 52q82 0 142 -30q31 89 142 91l31 -154l-42 4q-26 0 -52 -8q23 -37 23 -78
q0 -76 -70 -125.5t-180 -49.5l-29 1zM241 419q-10 -6 -16.5 -33.5t-6.5 -56.5q0 -40 16 -67.5t46 -27.5l15 2q12 7 20 31.5t8 52.5q0 39 -17.5 70.5t-47.5 31.5zM270 -109q44 0 85 12.5t61 34.5q-90 31 -243 49q-15 -20 -15 -36q0 -30 31.5 -45t80.5 -15zM337 790
q61 -28 61 -85q0 -46 -36 -99.5t-80 -77.5l-56 41q32 43 32 80q0 34 -27 54l-2 41z" />
    <glyph glyph-name="Imacron" unicode="&#x12a;" horiz-adv-x="441" 
d="M40 737l-6 84q49 25 113 25h263l5 -59l-47 -50h-328zM320 70l89 -15l-1 -55h-377l-6 32q37 28 85 52v514l-77 13l1 55h365l6 -32q-37 -28 -85 -52v-512z" />
    <glyph glyph-name="imacron" unicode="&#x12b;" horiz-adv-x="366" 
d="M19 564l-6 84q51 25 113 25h222l5 -59l-47 -50h-287zM287 84l55 -35l-1 -49h-329l-1 35q34 21 75 36v317l-75 19l-2 49q96 34 219 39l59 -53v-358z" />
    <glyph glyph-name="Iogonek" unicode="&#x12e;" horiz-adv-x="428" 
d="M317 0q-67 -42 -100 -74.5t-33 -68.5q0 -52 54 -52q34 0 76 26l26 -54l-129 -71l-25 -2q-59 0 -97.5 34t-38.5 84t45.5 97t132.5 81h-200l-6 32q37 28 85 52v514l-77 13l1 55h365l6 -32q-37 -28 -85 -52v-512l89 -15l-1 -55h-88z" />
    <glyph glyph-name="iogonek" unicode="&#x12f;" horiz-adv-x="369" 
d="M192 543q-81 37 -133 102q43 83 111 135q76 -43 126 -116q-38 -74 -104 -121zM307 0q-61 -40 -90.5 -70t-29.5 -64q0 -52 54 -52q35 0 77 26l25 -55l-129 -70l-25 -2q-59 0 -97.5 34t-38.5 83q0 47 40 91.5t118 78.5h-205l-1 35q32 20 76 37v324l-75 19l-2 49
q96 34 219 39l59 -53v-362q43 -18 72 -39l-1 -49h-46z" />
    <glyph glyph-name="Idotaccent" unicode="&#x130;" horiz-adv-x="428" 
d="M406 55l-1 -55h-377l-6 32q37 28 85 52v514l-77 13l1 55h365l6 -32q-37 -28 -85 -52v-512zM317 830q-23 -71 -89 -106q-75 25 -110 89q11 77 93 123q87 -37 106 -106z" />
    <glyph glyph-name="dotlessi" unicode="&#x131;" horiz-adv-x="349" 
d="M282 84l55 -35l-1 -49h-329l-1 35q34 21 75 36v317l-75 19l-2 49q96 34 219 39l59 -53v-358z" />
    <glyph glyph-name="uni0136" unicode="&#x136;" horiz-adv-x="787" 
d="M782 55l-1 -55h-263l-184 263l-17 -18v-177l73 -13l-1 -55h-361l-6 32q37 28 85 52v514l-77 13l1 55h365l6 -32q-37 -28 -85 -52v-193l197 211l-63 11l1 55h280l6 -32q-25 -19 -97 -48l-171 -180l249 -336zM447 -69q61 -28 61 -85q0 -46 -36 -99.5t-80 -77.5l-56 41
q32 43 32 80q0 34 -27 54l-2 41z" />
    <glyph glyph-name="uni0137" unicode="&#x137;" horiz-adv-x="644" 
d="M581 76q25 -20 46 -31l-4 -48h-214q-13 12 -40 52l-85 135v-184h-276l-1 35q32 20 76 37v557l-76 19l-2 50q95 33 219 39h1l59 -54v-412l96 131l-54 13l-2 49q95 34 221 39l51 -73l-142 -178zM367 -69q61 -28 61 -85q0 -46 -36 -99.5t-80 -77.5l-56 41q32 43 32 80
q0 34 -27 54l-2 41z" />
    <glyph glyph-name="Lacute" unicode="&#x139;" horiz-adv-x="643" 
d="M644 223q0 -140 -15 -223h-601l-6 32q37 28 85 52v514l-77 13l1 55h365l6 -32q-37 -28 -85 -52v-481l158 18l50 153l119 -11v-38zM328 922l66 -138l-264 -100l-51 89z" />
    <glyph glyph-name="lacute" unicode="&#x13a;" horiz-adv-x="369" 
d="M282 88q43 -18 72 -39l-1 -49h-347l-1 35q32 20 76 37v557l-75 19l-2 50q95 33 219 39l59 -54v-595zM273 1007l66 -138l-264 -100l-51 89z" />
    <glyph glyph-name="uni013B" unicode="&#x13b;" horiz-adv-x="643" 
d="M644 223q0 -140 -15 -223h-601l-6 32q37 28 85 52v514l-77 13l1 55h365l6 -32q-37 -28 -85 -52v-481l158 18l50 153l119 -11v-38zM371 -69q61 -28 61 -85q0 -46 -36 -99.5t-80 -77.5l-56 41q32 43 32 80q0 34 -27 54l-2 41z" />
    <glyph glyph-name="uni013C" unicode="&#x13c;" horiz-adv-x="369" 
d="M282 88q43 -18 72 -39l-1 -49h-347l-1 35q32 20 76 37v557l-75 19l-2 50q95 33 219 39l59 -54v-595zM232 -69q61 -28 61 -85q0 -46 -36 -99.5t-80 -77.5l-56 41q32 43 32 80q0 34 -27 54l-2 41z" />
    <glyph glyph-name="Lcaron" unicode="&#x13d;" horiz-adv-x="658" 
d="M644 223q0 -140 -15 -223h-601l-6 32q37 28 85 52v514l-77 13l1 55h365l6 -32q-37 -28 -85 -52v-481l158 18l50 153l119 -11v-38zM613 756q34 -50 34 -107q0 -61 -36.5 -122.5t-100.5 -111.5l-60 47q54 83 54 134q0 40 -34 44v55z" />
    <glyph glyph-name="lcaron" unicode="&#x13e;" horiz-adv-x="537" 
d="M282 88q43 -18 72 -39l-1 -49h-347l-1 35q32 20 76 37v557l-75 19l-2 50q95 33 219 39l59 -54v-595zM501 802q34 -50 34 -107q0 -61 -36.5 -122.5t-100.5 -111.5l-60 47q54 83 54 134q0 40 -34 44v55z" />
    <glyph glyph-name="Lslash" unicode="&#x141;" horiz-adv-x="658" 
d="M663 223q0 -140 -15 -223h-601l-6 32q37 28 85 52v169l-73 -32l-27 62l100 44v271l-77 13l1 55h365l6 -32q-37 -28 -85 -52v-162l101 44l16 -25l-17 -51l-100 -44v-243l158 18l50 153l119 -11v-38z" />
    <glyph glyph-name="lslash" unicode="&#x142;" horiz-adv-x="456" 
d="M306 386v-298q43 -18 72 -39l-1 -49h-347l-1 35q32 20 76 37v215l-66 -32l-36 72l102 50v252l-75 19l-2 50q95 33 219 39l59 -54v-207l61 30l27 -16v-61z" />
    <glyph glyph-name="Nacute" unicode="&#x143;" horiz-adv-x="802" 
d="M780 634q-33 -26 -78 -49l-7 -585l-179 -14l-280 413l13 -119v-210l88 -15l-1 -55h-308l-6 32q37 28 85 52v512l-75 15l1 55h266v-1l276 -418l-14 123v224l-98 17l1 55h310zM479 922l66 -138l-264 -100l-51 89z" />
    <glyph glyph-name="nacute" unicode="&#x144;" horiz-adv-x="666" 
d="M583 88q43 -18 72 -39l-2 -49h-271v273q0 100 -70 96l-28 -5v-280l55 -35l-1 -49h-329l-1 35q34 21 75 36v325l-75 19l-2 49q96 34 219 39l59 -61v-16q69 50 133 72q39 2 83 -14t71 -59q11 -20 12 -93v-244zM229 605l157 197l120 -106q-43 -35 -179 -167z" />
    <glyph glyph-name="uni0145" unicode="&#x145;" horiz-adv-x="802" 
d="M780 634q-33 -26 -78 -49l-7 -585l-179 -14l-280 413l13 -119v-210l88 -15l-1 -55h-308l-6 32q37 28 85 52v512l-75 15l1 55h266v-1l276 -418l-14 123v224l-98 17l1 55h310zM434 -69q61 -28 61 -85q0 -46 -36 -99.5t-80 -77.5l-56 41q32 43 32 80q0 34 -27 54l-2 41z" />
    <glyph glyph-name="uni0146" unicode="&#x146;" horiz-adv-x="666" 
d="M583 88q43 -18 72 -39l-2 -49h-271v273q0 100 -70 96l-28 -5v-280l55 -35l-1 -49h-329l-1 35q34 21 75 36v325l-75 19l-2 49q96 34 219 39l59 -61v-16q69 50 133 72q39 2 83 -14t71 -59q11 -20 12 -93v-244zM376 -69q61 -28 61 -85q0 -46 -36 -99.5t-80 -77.5l-56 41
q32 43 32 80q0 34 -27 54l-2 41z" />
    <glyph glyph-name="Ncaron" unicode="&#x147;" horiz-adv-x="802" 
d="M780 634q-33 -26 -78 -49l-7 -585l-179 -14l-280 413l13 -119v-210l88 -15l-1 -55h-308l-6 32q37 28 85 52v512l-75 15l1 55h266v-1l276 -418l-14 123v224l-98 17l1 55h310zM381 811l137 124l77 -64l-155 -156l-131 -2l-151 147l88 77z" />
    <glyph glyph-name="ncaron" unicode="&#x148;" horiz-adv-x="666" 
d="M583 88q43 -18 72 -39l-2 -49h-271v273q0 100 -70 96l-28 -5v-280l55 -35l-1 -49h-329l-1 35q34 21 75 36v325l-75 19l-2 49q96 34 219 39l59 -61v-16q69 50 133 72q39 2 83 -14t71 -59q11 -20 12 -93v-244zM338 636l123 143l81 -70l-137 -172l-139 -2l-150 157l96 86z
" />
    <glyph glyph-name="Omacron" unicode="&#x14c;" horiz-adv-x="698" 
d="M347 686q149 0 246 -101t97 -262q0 -156 -93 -249.5t-243 -93.5q-154 0 -250 96t-96 252q0 157 95.5 257.5t243.5 100.5zM283 568q-25 -25 -40.5 -82t-15.5 -136q0 -123 39 -194t106 -71q17 0 37 8q28 30 45 91.5t17 136.5q0 108 -35 183t-102 75q-24 0 -51 -11zM568 851
l5 -59l-47 -50h-373l-6 84q49 25 113 25h308z" />
    <glyph glyph-name="omacron" unicode="&#x14d;" horiz-adv-x="539" 
d="M8 245q0 114 73.5 186.5t185.5 72.5q113 0 186 -73.5t73 -189.5t-71.5 -188.5t-182.5 -72.5q-113 0 -188.5 74.5t-75.5 190.5zM296 82q28 24 28 147q0 167 -63 167q-17 0 -27 -7q-24 -37 -24 -150q0 -161 65 -161q10 0 21 4zM460 671l5 -59l-47 -50h-314l-6 84
q51 25 113 25h249z" />
    <glyph glyph-name="Ohungarumlaut" unicode="&#x150;" horiz-adv-x="698" 
d="M347 686q149 0 246 -101t97 -262q0 -156 -93 -249.5t-243 -93.5q-154 0 -250 96t-96 252q0 157 95.5 257.5t243.5 100.5zM283 568q-25 -25 -40.5 -82t-15.5 -136q0 -123 39 -194t106 -71q17 0 37 8q28 30 45 91.5t17 136.5q0 108 -35 183t-102 75q-24 0 -51 -11zM317 941
l99 -96q-45 -32 -174 -137l-80 71zM536 923l99 -96q-37 -26 -174 -137l-80 71z" />
    <glyph glyph-name="ohungarumlaut" unicode="&#x151;" horiz-adv-x="539" 
d="M8 245q0 114 73.5 186.5t185.5 72.5q113 0 186 -73.5t73 -189.5t-71.5 -188.5t-182.5 -72.5q-113 0 -188.5 74.5t-75.5 190.5zM296 82q28 24 28 147q0 167 -63 167q-17 0 -27 -7q-24 -37 -24 -150q0 -161 65 -161q10 0 21 4zM218 778l110 -88q-53 -44 -125 -118l-45 -43
l-86 64zM438 778l110 -88q-53 -44 -125 -118l-45 -43l-86 64z" />
    <glyph glyph-name="OE" unicode="&#x152;" horiz-adv-x="1005" 
d="M984 218q2 -99 -12 -218h-466q-54 -18 -121 -18q-90 0 -172 38.5t-133.5 117.5t-51.5 192q0 155 102.5 255t255.5 100q60 0 117 -19h477q2 -37 -4 -101.5t-17 -113.5h-115l-20 104l-158 10v-189l202 17v-115l-202 8v-178l165 11l38 108zM235 340q0 -106 40 -179.5
t116 -73.5q32 0 65 14v456q-33 18 -85 18q-37 0 -64 -9q-34 -29 -53 -90.5t-19 -135.5z" />
    <glyph glyph-name="oe" unicode="&#x153;" horiz-adv-x="839" 
d="M767 219l-253 1q9 -55 46 -83.5t95 -28.5t129 39l28 -62l-157 -96l-54 -5q-91 0 -165 53q-69 -57 -164 -57q-113 0 -188.5 74.5t-75.5 190.5q0 114 73.5 186.5t185.5 72.5q96 0 165 -57q71 57 163 57q102 0 166.5 -61.5t64.5 -164.5zM575 413q-43 -27 -59 -109l131 9
q-5 39 -24.5 67.5t-47.5 32.5zM296 82q28 24 28 147q0 167 -64 167q-16 0 -26 -7q-24 -37 -24 -151q0 -160 65 -160q10 0 21 4z" />
    <glyph glyph-name="Racute" unicode="&#x154;" horiz-adv-x="746" 
d="M743 55l-1 -55h-248l-129 249l-48 -1v-180l75 -13l-1 -55h-363l-6 32q37 28 85 52v514l-76 13l1 55l359 8q125 0 206 -60.5t81 -153.5q0 -58 -34 -106t-92 -76l132 -213zM317 350q24 -7 47 -7q102 0 102 112q0 76 -42 122l-107 -15v-212zM455 922l66 -138l-264 -100
l-51 89z" />
    <glyph glyph-name="racute" unicode="&#x155;" horiz-adv-x="517" 
d="M404 263q-74 64 -120 73v-236q70 -25 111 -51l-1 -49h-385l-1 35q34 21 75 36v325l-75 19l-2 49q96 34 219 39l59 -88l70 82q19 6 42 6q45 0 83 -23.5t50 -63.5zM173 605l157 197l120 -106q-43 -35 -179 -167z" />
    <glyph glyph-name="uni0156" unicode="&#x156;" horiz-adv-x="746" 
d="M743 55l-1 -55h-248l-129 249l-48 -1v-180l75 -13l-1 -55h-363l-6 32q37 28 85 52v514l-76 13l1 55l359 8q125 0 206 -60.5t81 -153.5q0 -58 -34 -106t-92 -76l132 -213zM317 350q24 -7 47 -7q102 0 102 112q0 76 -42 122l-107 -15v-212zM409 -69q61 -28 61 -85
q0 -46 -36 -99.5t-80 -77.5l-56 41q32 43 32 80q0 34 -27 54l-2 41z" />
    <glyph glyph-name="uni0157" unicode="&#x157;" horiz-adv-x="517" 
d="M404 263q-74 64 -120 73v-236q70 -25 111 -51l-1 -49h-385l-1 35q34 21 75 36v325l-75 19l-2 49q96 34 219 39l59 -88l70 82q19 6 42 6q45 0 83 -23.5t50 -63.5zM236 -69q61 -28 61 -85q0 -46 -36 -99.5t-80 -77.5l-56 41q32 43 32 80q0 34 -27 54l-2 41z" />
    <glyph glyph-name="Rcaron" unicode="&#x158;" horiz-adv-x="746" 
d="M743 55l-1 -55h-248l-129 249l-48 -1v-180l75 -13l-1 -55h-363l-6 32q37 28 85 52v514l-76 13l1 55l359 8q125 0 206 -60.5t81 -153.5q0 -58 -34 -106t-92 -76l132 -213zM317 350q24 -7 47 -7q102 0 102 112q0 76 -42 122l-107 -15v-212zM357 811l137 124l77 -64
l-155 -156l-131 -2l-151 147l88 77z" />
    <glyph glyph-name="rcaron" unicode="&#x159;" horiz-adv-x="517" 
d="M404 263q-74 64 -120 73v-236q70 -25 111 -51l-1 -49h-385l-1 35q34 21 75 36v325l-75 19l-2 49q96 34 219 39l59 -88l70 82q19 6 42 6q45 0 83 -23.5t50 -63.5zM282 636l123 143l81 -70l-137 -172l-139 -2l-150 157l96 86z" />
    <glyph glyph-name="Sacute" unicode="&#x15a;" horiz-adv-x="622" 
d="M589 190q0 -94 -76 -151.5t-198 -57.5q-62 0 -136 15.5t-129 42.5l1 2l-1 28q0 100 21 172h90l81 -149q37 -13 89 -18q52 23 52 66q0 48 -74 85l-108 51l-43 24q-110 67 -110 173q0 95 78 154t203 59q56 0 121 -11.5t109 -29.5q-6 -128 -24 -198h-105l-49 130
q-43 16 -94 19q-44 -26 -44 -70q0 -26 24 -45.5t132 -67.5t149 -101t41 -122zM421 922l66 -138l-264 -100l-51 89z" />
    <glyph glyph-name="sacute" unicode="&#x15b;" horiz-adv-x="472" 
d="M211 384q0 -22 23.5 -38.5t69.5 -41t74 -43.5t50 -50.5t22 -72.5q0 -71 -59 -114.5t-157 -43.5q-113 0 -219 54l63 146q86 -69 174 -108q15 13 15 31q0 15 -14 29t-89 53.5t-103.5 76t-28.5 80.5q0 72 65.5 117t165.5 45q98 0 164 -34l2 -36q0 -54 -17 -108h-99l-38 93
l-21 2q-43 -8 -43 -37zM145 605l157 197l120 -106q-43 -35 -179 -167z" />
    <glyph glyph-name="uni015E" unicode="&#x15e;" horiz-adv-x="622" 
d="M589 190q0 -90 -72 -148t-190 -61l-20 -37q56 0 95.5 -25t39.5 -59q0 -57 -61.5 -96.5t-150.5 -36.5l-21 34q45 16 69 39t24 45q0 19 -18.5 29.5t-51.5 7.5l-27 47l46 56q-109 10 -201 54l1 2l-1 28q0 100 21 172h90l81 -149q37 -13 89 -18q52 23 52 66q0 48 -74 85
l-108 51l-43 24q-110 67 -110 173q0 95 78 154t203 59q56 0 121 -11.5t109 -29.5q-6 -128 -24 -198h-105l-49 130q-43 16 -94 19q-44 -26 -44 -70q0 -26 24 -45.5t132 -67.5t149 -101t41 -122z" />
    <glyph glyph-name="uni015F" unicode="&#x15f;" horiz-adv-x="472" 
d="M450 138q0 -64 -50 -107t-138 -50l-20 -37q56 0 95.5 -25t39.5 -59q0 -57 -61.5 -96.5t-150.5 -36.5l-21 34q45 16 69 39t24 45q0 19 -18.5 29.5t-51.5 7.5l-27 47l44 54q-90 10 -169 51l63 146q86 -69 174 -108q15 13 15 31q0 15 -14 29t-89 53.5t-103.5 76t-28.5 80.5
q0 72 65.5 117t165.5 45q98 0 164 -34l2 -36q0 -54 -17 -108h-99l-38 93l-21 2q-43 -8 -43 -37q0 -22 23.5 -38.5t69.5 -41t74 -43.5t50 -50.5t22 -72.5z" />
    <glyph glyph-name="Scaron" unicode="&#x160;" horiz-adv-x="622" 
d="M589 190q0 -94 -76 -151.5t-198 -57.5q-62 0 -136 15.5t-129 42.5l1 2l-1 28q0 100 21 172h90l81 -149q37 -13 89 -18q52 23 52 66q0 48 -74 85l-108 51l-43 24q-110 67 -110 173q0 95 78 154t203 59q56 0 121 -11.5t109 -29.5q-6 -128 -24 -198h-105l-49 130
q-43 16 -94 19q-44 -26 -44 -70q0 -26 24 -45.5t132 -67.5t149 -101t41 -122zM323 811l137 124l77 -64l-155 -156l-131 -2l-151 147l88 77z" />
    <glyph glyph-name="scaron" unicode="&#x161;" horiz-adv-x="472" 
d="M211 384q0 -22 23.5 -38.5t69.5 -41t74 -43.5t50 -50.5t22 -72.5q0 -71 -59 -114.5t-157 -43.5q-113 0 -219 54l63 146q86 -69 174 -108q15 13 15 31q0 15 -14 29t-89 53.5t-103.5 76t-28.5 80.5q0 72 65.5 117t165.5 45q98 0 164 -34l2 -36q0 -54 -17 -108h-99l-38 93
l-21 2q-43 -8 -43 -37zM254 636l123 143l81 -70l-137 -172l-139 -2l-150 157l96 86z" />
    <glyph glyph-name="uni0162" unicode="&#x162;" horiz-adv-x="692" 
d="M686 672l1 -23q0 -45 -7 -116t-16 -114h-107l-16 154l-89 10v-512l92 -16l-1 -55h-171l-31 -56q56 0 95.5 -25t39.5 -59q0 -57 -61.5 -96.5t-150.5 -36.5l-21 34q45 16 69 39t24 45q0 19 -18.5 29.5t-51.5 7.5l-27 47l58 71h-144l-6 32q31 25 95 56v495l-91 -10l-16 -154
h-106q-23 105 -23 225l1 28l341 -4l337 4h1z" />
    <glyph glyph-name="uni0163" unicode="&#x163;" horiz-adv-x="421" 
d="M276 349v-185q0 -39 39 -39l76 4l4 -53l-177 -93h-3l-21 -39q56 0 95.5 -25t39.5 -59q0 -57 -61.5 -96.5t-150.5 -36.5l-21 34q45 16 69 39t24 45q0 19 -18.5 29.5t-51.5 7.5l-27 47l56 69q-73 34 -73 110v242h-78l-1 56q37 34 90 70l60 137h90l33 -139h136v-57l-51 -68
h-78z" />
    <glyph glyph-name="Tcaron" unicode="&#x164;" horiz-adv-x="692" 
d="M686 672l1 -23q0 -45 -7 -116t-16 -114h-107l-16 154l-89 10v-512l92 -16l-1 -55h-390l-6 32q31 25 95 56v495l-91 -10l-16 -154h-106q-23 105 -23 225l1 28l341 -4l337 4h1zM346 811l137 124l77 -64l-155 -156l-131 -2l-151 147l88 77z" />
    <glyph glyph-name="tcaron" unicode="&#x165;" horiz-adv-x="632" 
d="M276 349v-185q0 -39 39 -39l76 4l4 -53l-177 -93q-55 -2 -98.5 32.5t-44.5 82.5v252h-78l-1 56q37 34 90 70l60 137h90l33 -139h136v-57l-51 -68h-78zM597 796q34 -50 34 -107q0 -61 -36.5 -122.5t-100.5 -111.5l-60 47q54 83 54 134q0 40 -34 44v55z" />
    <glyph glyph-name="Umacron" unicode="&#x16a;" horiz-adv-x="773" 
d="M767 634q-37 -28 -85 -52v-297q-1 -164 -78 -234.5t-200 -70.5q-146 0 -231.5 83t-89.5 229v306l-77 13l1 55h365l6 -32q-37 -28 -85 -52v-325q0 -87 37 -128.5t97 -41.5q47 0 79 27q33 46 34 173v310l-80 14l1 55h300zM603 851l5 -59l-47 -50h-373l-6 84q49 25 113 25
h308z" />
    <glyph glyph-name="umacron" unicode="&#x16b;" horiz-adv-x="656" 
d="M654 65l-144 -82q-33 1 -64 23.5t-51 61.5q-79 -60 -152 -85q-36 -4 -80.5 15t-72.5 62q-12 19 -13 93v243l-75 19l-2 49q96 34 219 39l59 -53v-256q0 -84 71 -78l24 4v281l-51 18l-2 49q85 32 195 35l59 -53v-311q0 -31 24 -31l33 1l20 1zM500 671l5 -59l-47 -50h-314
l-6 84q51 25 113 25h249z" />
    <glyph glyph-name="Uring" unicode="&#x16e;" horiz-adv-x="773" 
d="M767 634q-37 -28 -85 -52v-297q-1 -164 -78 -234.5t-200 -70.5q-146 0 -231.5 83t-89.5 229v306l-77 13l1 55h365l6 -32q-37 -28 -85 -52v-325q0 -87 37 -128.5t97 -41.5q47 0 79 27q33 46 34 173v310l-80 14l1 55h300zM258 836q0 55 36 92t91 37q54 0 91 -37.5t37 -94.5
q0 -55 -34.5 -89.5t-89.5 -34.5t-93 35t-38 92zM327 818q0 -26 17.5 -42t42.5 -16t41 16t16 41q0 26 -17 42.5t-42 16.5t-41.5 -16.5t-16.5 -41.5z" />
    <glyph glyph-name="uring" unicode="&#x16f;" horiz-adv-x="656" 
d="M654 65l-144 -82q-33 1 -64 23.5t-51 61.5q-79 -60 -152 -85q-36 -4 -80.5 15t-72.5 62q-12 19 -13 93v243l-75 19l-2 49q96 34 219 39l59 -53v-256q0 -84 71 -78l24 4v281l-51 18l-2 49q85 32 195 35l59 -53v-311q0 -31 24 -31l33 1l20 1zM180 654q0 55 36 92t91 37
q54 0 91 -37.5t37 -94.5q0 -55 -34.5 -89.5t-89.5 -34.5t-93 35t-38 92zM249 636q0 -26 17.5 -42t42.5 -16t41 16t16 41q0 26 -17 42.5t-42 16.5t-41.5 -16.5t-16.5 -41.5z" />
    <glyph glyph-name="Uhungarumlaut" unicode="&#x170;" horiz-adv-x="773" 
d="M767 634q-37 -28 -85 -52v-297q-1 -164 -78 -234.5t-200 -70.5q-146 0 -231.5 83t-89.5 229v306l-77 13l1 55h365l6 -32q-37 -28 -85 -52v-325q0 -87 37 -128.5t97 -41.5q47 0 79 27q33 46 34 173v310l-80 14l1 55h300zM352 941l99 -96q-45 -32 -174 -137l-80 71z
M571 923l99 -96q-37 -26 -174 -137l-80 71z" />
    <glyph glyph-name="uhungarumlaut" unicode="&#x171;" horiz-adv-x="656" 
d="M654 65l-144 -82q-33 1 -64 23.5t-51 61.5q-79 -60 -152 -85q-36 -4 -80.5 15t-72.5 62q-12 19 -13 93v243l-75 19l-2 49q96 34 219 39l59 -53v-256q0 -84 71 -78l24 4v281l-51 18l-2 49q85 32 195 35l59 -53v-311q0 -31 24 -31l33 1l20 1zM258 778l110 -88
q-53 -44 -125 -118l-45 -43l-86 64zM478 778l110 -88q-53 -44 -125 -118l-45 -43l-86 64z" />
    <glyph glyph-name="Uogonek" unicode="&#x172;" horiz-adv-x="773" 
d="M767 634q-37 -28 -85 -52v-301q-3 -233 -172 -286q-63 -40 -94 -71.5t-31 -66.5q0 -52 54 -52q34 0 76 26l26 -54l-129 -71l-25 -2q-59 0 -97.5 34t-38.5 84q0 91 134 158q-144 7 -223 93t-79 233v292l-77 13l1 55h365l6 -32q-37 -28 -85 -52v-325q0 -87 37 -128.5
t97 -41.5q47 0 79 27q33 46 34 173v310l-80 14l1 55h300z" />
    <glyph glyph-name="uogonek" unicode="&#x173;" horiz-adv-x="656" 
d="M467 -107q0 -52 54 -52q35 0 77 26l25 -55l-129 -70l-25 -2q-59 0 -97.5 34t-38.5 83q0 83 114 148q-32 24 -52 63q-79 -60 -152 -85q-36 -4 -80.5 15t-72.5 62q-12 19 -13 93v243l-75 19l-2 49q96 34 219 39l59 -53v-256q0 -84 71 -78l24 4v281l-51 18l-2 49
q85 32 195 35l59 -53v-311q0 -31 24 -31l33 1l20 1l3 -45l-66 -38q-61 -39 -91 -69t-30 -65z" />
    <glyph glyph-name="Ydieresis" unicode="&#x178;" horiz-adv-x="697" 
d="M452 70l85 -15l-1 -55h-364l-6 32q34 27 84 52v158l-190 358l-64 11l1 55h308l6 -32l-47 -32l80 -150l28 -89h7l119 236l-68 12l1 55h269l6 -32q-35 -28 -92 -56l-162 -302v-206zM342 830q-24 -71 -90 -106q-74 25 -110 89q12 78 93 123q87 -38 107 -106zM599 830
q-24 -71 -90 -106q-74 25 -110 89q12 78 93 123q87 -38 107 -106z" />
    <glyph glyph-name="Zacute" unicode="&#x179;" horiz-adv-x="689" 
d="M653 235q-3 -99 -26 -235l-538 -1l-58 91l372 483l-167 -14l-49 -143h-114q-11 68 -11 144l5 106h536l45 -88l-364 -475l188 9l59 140zM453 922l66 -138l-264 -100l-51 89z" />
    <glyph glyph-name="zacute" unicode="&#x17a;" horiz-adv-x="537" 
d="M514 177l-40 -198l-333 48l-65 -45l-66 55l267 372l-78 -14l-46 -98h-107q-8 37 -8 99q0 50 5 80v6h387l33 21l63 -61l-242 -327l118 29zM171 605l157 197l120 -106q-43 -35 -179 -167z" />
    <glyph glyph-name="Zdotaccent" unicode="&#x17b;" horiz-adv-x="689" 
d="M653 235q-3 -99 -26 -235l-538 -1l-58 91l372 483l-167 -14l-49 -143h-114q-11 68 -11 144l5 106h536l45 -88l-364 -475l188 9l59 140zM459 830q-23 -71 -89 -106q-75 25 -110 89q11 77 93 123q87 -37 106 -106z" />
    <glyph glyph-name="zdotaccent" unicode="&#x17c;" horiz-adv-x="537" 
d="M514 177l-40 -198l-333 48l-65 -45l-66 55l267 372l-78 -14l-46 -98h-107q-8 37 -8 99q0 50 5 80v6h387l33 21l63 -61l-242 -327l118 29zM379 648q-23 -71 -89 -106q-75 25 -110 89q11 77 93 123q87 -37 106 -106z" />
    <glyph glyph-name="Zcaron" unicode="&#x17d;" horiz-adv-x="689" 
d="M653 235q-3 -99 -26 -235l-538 -1l-58 91l372 483l-167 -14l-49 -143h-114q-11 68 -11 144l5 106h536l45 -88l-364 -475l188 9l59 140zM355 811l137 124l77 -64l-155 -156l-131 -2l-151 147l88 77z" />
    <glyph glyph-name="zcaron" unicode="&#x17e;" horiz-adv-x="537" 
d="M514 177l-40 -198l-333 48l-65 -45l-66 55l267 372l-78 -14l-46 -98h-107q-8 37 -8 99q0 50 5 80v6h387l33 21l63 -61l-242 -327l118 29zM280 636l123 143l81 -70l-137 -172l-139 -2l-150 157l96 86z" />
    <glyph glyph-name="uni0218" unicode="&#x218;" horiz-adv-x="622" 
d="M589 190q0 -94 -76 -151.5t-198 -57.5q-62 0 -136 15.5t-129 42.5l1 2l-1 28q0 100 21 172h90l81 -149q37 -13 89 -18q52 23 52 66q0 48 -74 85l-108 51l-43 24q-110 67 -110 173q0 95 78 154t203 59q56 0 121 -11.5t109 -29.5q-6 -128 -24 -198h-105l-49 130
q-43 16 -94 19q-44 -26 -44 -70q0 -26 24 -45.5t132 -67.5t149 -101t41 -122zM351 -69q61 -28 61 -85q0 -46 -36 -99.5t-80 -77.5l-56 41q32 43 32 80q0 34 -27 54l-2 41z" />
    <glyph glyph-name="uni0219" unicode="&#x219;" horiz-adv-x="472" 
d="M211 384q0 -22 23.5 -38.5t69.5 -41t74 -43.5t50 -50.5t22 -72.5q0 -71 -59 -114.5t-157 -43.5q-113 0 -219 54l63 146q86 -69 174 -108q15 13 15 31q0 15 -14 29t-89 53.5t-103.5 76t-28.5 80.5q0 72 65.5 117t165.5 45q98 0 164 -34l2 -36q0 -54 -17 -108h-99l-38 93
l-21 2q-43 -8 -43 -37zM286 -69q61 -28 61 -85q0 -46 -36 -99.5t-80 -77.5l-56 41q32 43 32 80q0 34 -27 54l-2 41z" />
    <glyph glyph-name="uni021A" unicode="&#x21a;" horiz-adv-x="692" 
d="M686 672l1 -23q0 -45 -7 -116t-16 -114h-107l-16 154l-89 10v-512l92 -16l-1 -55h-390l-6 32q31 25 95 56v495l-91 -10l-16 -154h-106q-23 105 -23 225l1 28l341 -4l337 4h1zM385 -69q61 -28 61 -85q0 -46 -36 -99.5t-80 -77.5l-56 41q32 43 32 80q0 34 -27 54l-2 41z
" />
    <glyph glyph-name="uni021B" unicode="&#x21b;" horiz-adv-x="421" 
d="M276 349v-185q0 -39 39 -39l76 4l4 -53l-177 -93q-55 -2 -98.5 32.5t-44.5 82.5v252h-78l-1 56q37 34 90 70l60 137h90l33 -139h136v-57l-51 -68h-78zM238 -69q61 -28 61 -85q0 -46 -36 -99.5t-80 -77.5l-56 41q32 43 32 80q0 34 -27 54l-2 41z" />
    <glyph glyph-name="circumflex" unicode="&#x2c6;" horiz-adv-x="451" 
d="M163 751h127l133 -162l-60 -57l-141 110l-124 -115l-71 54z" />
    <glyph glyph-name="caron" unicode="&#x2c7;" horiz-adv-x="474" 
d="M251 642l123 143l81 -70l-137 -172l-139 -2l-150 157l96 86z" />
    <glyph glyph-name="uni02C9" unicode="&#x2c9;" 
d="M194 677l5 -59l-47 -50h-314l-6 84q51 25 113 25h249z" />
    <glyph glyph-name="breve" unicode="&#x2d8;" horiz-adv-x="398" 
d="M378 719q-1 -75 -50 -122.5t-125 -47.5q-75 0 -125 47t-54 123l109 2q2 -34 20.5 -52t42.5 -18q25 0 42 18.5t17 51.5z" />
    <glyph glyph-name="dotaccent" unicode="&#x2d9;" horiz-adv-x="260" 
d="M229 654q-23 -71 -89 -106q-75 25 -110 89q11 77 93 123q87 -37 106 -106z" />
    <glyph glyph-name="ring" unicode="&#x2da;" horiz-adv-x="306" 
d="M25 836q0 55 36 92t91 37q54 0 91 -37.5t37 -94.5q0 -55 -34.5 -89.5t-89.5 -34.5t-93 35t-38 92zM94 818q0 -26 17.5 -42t42.5 -16t41 16t16 41q0 26 -17 42.5t-42 16.5t-41.5 -16.5t-16.5 -41.5z" />
    <glyph glyph-name="ogonek" unicode="&#x2db;" horiz-adv-x="317" 
d="M293 36q-70 -44 -103 -76t-33 -68q0 -52 54 -52q35 0 77 26l25 -55l-129 -70l-25 -2q-59 0 -97.5 34t-38.5 83q0 60 64.5 114.5t186.5 88.5z" />
    <glyph glyph-name="tilde" unicode="&#x2dc;" horiz-adv-x="531" 
d="M28 597q55 95 86.5 126.5t70.5 31.5q23 0 75.5 -29.5t96.5 -62.5l84 86l61 -44q-79 -161 -149 -161q-16 0 -33.5 7.5t-71 42t-69.5 34.5t-34 -18t-53 -62z" />
    <glyph glyph-name="hungarumlaut" unicode="&#x2dd;" horiz-adv-x="545" 
d="M176 784l110 -88q-53 -44 -125 -118l-45 -43l-86 64zM396 784l110 -88q-53 -44 -125 -118l-45 -43l-86 64z" />
    <glyph glyph-name="pi" unicode="&#x3c0;" horiz-adv-x="817" 
d="M756 341l-93 6l33 -347l-150 -1l-58 35l-3 324l-67 4l-4 -131q-2 -81 -16.5 -134t-53.5 -84.5t-111 -31.5q-91 0 -192 39l57 142q45 -46 100 -92q13 17 17 96l8 209l-54 3l-101 -68l-38 62q20 26 64 60t73 42h624l4 -104z" />
    <glyph glyph-name="endash" unicode="&#x2013;" horiz-adv-x="586" 
d="M528 328l5 -58l-47 -53h-445l-6 85q53 25 111 26h382z" />
    <glyph glyph-name="emdash" unicode="&#x2014;" horiz-adv-x="1047" 
d="M989 328l5 -58l-47 -53h-906l-6 85q54 26 117 26h837z" />
    <glyph glyph-name="quoteleft" unicode="&#x2018;" horiz-adv-x="270" 
d="M230 704q-57 -53 -68 -115l59 -56q-8 -33 -37 -65.5t-65 -41.5q-53 20 -75 55.5t-22 71.5q0 58 46.5 112.5t120.5 88.5z" />
    <glyph glyph-name="quoteright" unicode="&#x2019;" horiz-adv-x="270" 
d="M40 476q57 51 68 116l-59 56q8 33 37.5 65.5t64.5 40.5q53 -19 75 -55t22 -72q0 -58 -46.5 -112.5t-120.5 -88.5z" />
    <glyph glyph-name="quotesinglbase" unicode="&#x201a;" horiz-adv-x="270" 
d="M40 -124q57 51 68 116l-59 56q8 33 37.5 65.5t64.5 40.5q53 -19 75 -55t22 -72q0 -58 -46.5 -112.5t-120.5 -88.5z" />
    <glyph glyph-name="quotedblleft" unicode="&#x201c;" horiz-adv-x="507" 
d="M230 704q-57 -53 -68 -115l59 -56q-8 -33 -37 -65.5t-65 -41.5q-53 20 -75 55.5t-22 71.5q0 58 46.5 112.5t120.5 88.5zM467 704q-57 -53 -68 -115l59 -56q-8 -33 -37 -65.5t-65 -41.5q-53 20 -75 55.5t-22 71.5q0 58 46.5 112.5t120.5 88.5z" />
    <glyph glyph-name="quotedblright" unicode="&#x201d;" horiz-adv-x="508" 
d="M40 476q57 51 68 116l-59 56q8 33 37.5 65.5t64.5 40.5q53 -19 75 -55t22 -72q0 -58 -46.5 -112.5t-120.5 -88.5zM277 476q57 51 68 116l-59 56q8 33 37.5 65.5t64.5 40.5q53 -19 75 -55t22 -72q0 -58 -46.5 -112.5t-120.5 -88.5z" />
    <glyph glyph-name="quotedblbase" unicode="&#x201e;" horiz-adv-x="508" 
d="M40 -124q57 51 68 116l-59 56q8 33 37.5 65.5t64.5 40.5q53 -19 75 -55t22 -72q0 -58 -46.5 -112.5t-120.5 -88.5zM277 -124q57 51 68 116l-59 56q8 33 37.5 65.5t64.5 40.5q53 -19 75 -55t22 -72q0 -58 -46.5 -112.5t-120.5 -88.5z" />
    <glyph glyph-name="dagger" unicode="&#x2020;" horiz-adv-x="579" 
d="M502 371h-119l-29 -551h-141l-23 551h-150l-6 37l43 61h108l-7 172l42 48l180 -4l-11 -216h150l6 -37z" />
    <glyph glyph-name="daggerdbl" unicode="&#x2021;" horiz-adv-x="581" 
d="M539 237l6 -37l-43 -60h-129l-17 -320h-141l-14 320h-161l-6 37l43 60h120l-5 134h-150l-6 37l43 61h108l-7 172l42 48l180 -4l-11 -216h150l6 -37l-43 -61h-119l-7 -134h161z" />
    <glyph glyph-name="bullet" unicode="&#x2022;" horiz-adv-x="419" 
d="M370 251q-37 -114 -144 -170q-123 43 -177 143q19 124 150 198q133 -59 171 -171z" />
    <glyph glyph-name="ellipsis" unicode="&#x2026;" horiz-adv-x="943" 
d="M307 91q-22 -73 -93 -111q-80 27 -115 93q11 82 98 129q87 -39 110 -111zM615 91q-22 -74 -93 -111q-80 27 -115 93q11 82 98 129q87 -39 110 -111zM923 91q-22 -74 -93 -111q-80 27 -115 93q11 82 98 129q87 -39 110 -111z" />
    <glyph glyph-name="perthousand" unicode="&#x2030;" horiz-adv-x="1200" 
d="M36 435q0 71 48.5 124.5t115.5 53.5q68 0 117.5 -53.5t49.5 -124.5q0 -75 -46.5 -126t-115.5 -51q-70 0 -119.5 52t-49.5 125zM570 596l75 -58l-409 -576l-74 60zM230 358q22 24 22 64q0 38 -18.5 64t-45.5 26q-8 0 -21 -5q-18 -26 -18 -57q0 -35 16.5 -64.5t48.5 -29.5z
M466 155q0 71 48.5 124.5t115.5 53.5q68 0 117.5 -53.5t49.5 -124.5q0 -75 -46 -125.5t-116 -50.5q-69 0 -119 51.5t-50 124.5zM833 155q0 71 48.5 124.5t115.5 53.5q68 0 117.5 -53.5t49.5 -124.5q0 -75 -46 -125.5t-116 -50.5q-69 0 -119 51.5t-50 124.5zM660 78
q22 24 22 64q0 35 -18 62.5t-46 27.5q-8 0 -21 -5q-18 -26 -18 -60q0 -36 18.5 -63.5t48.5 -27.5zM1027 78q22 24 22 64q0 35 -18 62.5t-46 27.5q-8 0 -21 -5q-18 -26 -18 -60q0 -36 18.5 -63.5t48.5 -27.5z" />
    <glyph glyph-name="guilsinglleft" unicode="&#x2039;" horiz-adv-x="379" 
d="M228 480l92 -65l-89 -162l96 -154l-99 -70l-176 178v92z" />
    <glyph glyph-name="guilsinglright" unicode="&#x203a;" horiz-adv-x="379" 
d="M327 207l-176 -178l-99 70l96 154l-89 162l92 65l176 -181v-92z" />
    <glyph glyph-name="fraction" unicode="&#x2044;" horiz-adv-x="204" 
d="M387 698l71 -70l-591 -618l-72 68z" />
    <glyph glyph-name="Euro" unicode="&#x20ac;" horiz-adv-x="668" 
d="M622 141l30 -90l-184 -73q-157 -6 -245.5 57t-119.5 163h-120l-6 27l41 49h70l-2 55h-81l-6 27l41 49h58q30 122 122.5 193.5t221.5 71.5q131 0 213 -63h1q-15 -98 -40 -165h-90l-16 85q-66 31 -136 26q-61 -55 -81 -148h290l6 -27l-41 -49h-263v-4l3 -51h255l6 -27
l-41 -49h-197q46 -86 165 -95z" />
    <glyph glyph-name="uni20BD" unicode="&#x20bd;" horiz-adv-x="698" 
d="M323 229v-33h100l6 -41l-43 -39h-63v-39l124 -22l-1 -55h-404l-6 32q27 22 77 48v36h-81l-6 37l43 43h44v41h-81l-6 37l43 48h44v276l-76 13l1 55l367 8q123 1 201.5 -63.5t78.5 -164.5q0 -92 -74.5 -153.5t-190.5 -63.5h-97zM323 564v-239h54q48 0 72.5 33t24.5 82
q0 39 -12 81t-32 57z" />
    <glyph glyph-name="trademark" unicode="&#x2122;" horiz-adv-x="939" 
d="M197 735l194 2q2 -19 -3 -72t-11 -67h-68l-14 83l-35 3v-201l48 -9l-1 -26h-219l-3 14q11 11 49 30v192l-36 -3l-14 -83h-69q-5 12 -9.5 54t-4.5 70l1 15zM917 475v-26h-189l-3 14q15 14 39 28l-6 94l4 50l-74 -179l-81 -10l-81 193l4 -50l-5 -105l46 -9v-26h-163l-3 14
q14 13 43 30l10 209l-35 7l1 26h178l75 -177l73 177h150l3 -14q-17 -15 -37 -26l11 -212z" />
    <glyph glyph-name="uni2126" unicode="&#x2126;" horiz-adv-x="744" 
d="M716 367q0 -87 -45.5 -163t-123.5 -132l145 -17l-1 -55h-280v87q58 72 86 151.5t28 148.5q0 85 -37.5 135.5t-104.5 50.5t-105 -51.5t-38 -137.5q0 -72 28.5 -149.5t89.5 -143.5v-91h-294l-6 32q47 25 150 42q-180 114 -180 284q0 90 50 161.5t130.5 111t168.5 39.5
q140 0 239.5 -87.5t99.5 -215.5z" />
    <glyph glyph-name="partialdiff" unicode="&#x2202;" horiz-adv-x="600" 
d="M197 761q187 -59 275.5 -187t88.5 -285q0 -146 -73 -234t-194 -88q-111 0 -181 70t-70 180q0 104 65.5 181.5t154.5 77.5l99 -47q-21 87 -74 153t-132 94zM294 70q39 36 60 103.5t21 145.5l-1 37q-70 -9 -107.5 -60.5t-37.5 -114.5q0 -43 16.5 -74t48.5 -37z" />
    <glyph glyph-name="uni2206" unicode="&#x2206;" horiz-adv-x="743" 
d="M711 38l-42 -38h-623l-6 37l224 592l182 45l259 -598h1zM486 76l-161 400l-142 -400h303z" />
    <glyph glyph-name="product" unicode="&#x220f;" horiz-adv-x="842" 
d="M699 -30l89 -15l-1 -55h-298v727h-145v-657l89 -15l-1 -55h-377l-6 32q37 28 85 52v643h-98l-14 81q54 27 109 27h685l4 -59l-45 -49h-76v-657z" />
    <glyph glyph-name="summation" unicode="&#x2211;" horiz-adv-x="719" 
d="M657 -100h-611v72h1l-1 1l177 275l-193 407v80h599l-1 -5q2 -41 -5 -127t-17 -121h-123l-42 125l-142 6l-51 8l144 -313l-200 -309l83 15l192 7l44 132h123q10 -35 17 -121t5 -127z" />
    <glyph glyph-name="minus" unicode="&#x2212;" horiz-adv-x="594" 
d="M542 210h-490v110h490v-110z" />
    <glyph glyph-name="uni2215" unicode="&#x2215;" horiz-adv-x="204" 
d="M387 698l71 -70l-591 -618l-72 68z" />
    <glyph glyph-name="uni2219" unicode="&#x2219;" horiz-adv-x="309" 
d="M154 166q-30 12 -67.5 41t-56.5 55q43 88 100 122q31 -13 65 -41.5t54 -54.5q-13 -33 -40 -68t-55 -54z" />
    <glyph glyph-name="radical" unicode="&#x221a;" horiz-adv-x="805" 
d="M739 703l-246 -787q-28 -10 -83.5 -14.5t-93.5 -2.5l-112 394l-92 -60l-71 101l154 140h122l87 -346l194 623z" />
    <glyph glyph-name="infinity" unicode="&#x221e;" horiz-adv-x="775" 
d="M588 534q70 0 117.5 -56t47.5 -140q0 -91 -56 -149t-137 -58q-53 0 -96 29.5t-86 82.5q-76 -111 -170 -111q-75 0 -126.5 53.5t-51.5 136.5q0 89 58 151.5t139 62.5q55 0 101 -30t93 -82q81 110 167 110zM167 375q0 -42 26 -69t65 -27t70 27q-39 50 -68 76.5t-58 26.5
q-14 0 -27 -7q-8 -16 -8 -27zM613 280q13 17 13 43q0 28 -19.5 51.5t-51.5 23.5q-39 0 -85 -32q37 -46 63.5 -69.5t53.5 -23.5q13 0 26 7z" />
    <glyph glyph-name="integral" unicode="&#x222b;" horiz-adv-x="475" 
d="M249 642q76 -24 165 -115l94 175q-105 49 -178 49q-106 0 -197 -92t-91 -205l185 -524q-75 24 -166 115l-94 -175q119 -49 175 -49q68 0 136 41.5t112 110.5t44 145z" />
    <glyph glyph-name="approxequal" unicode="&#x2248;" horiz-adv-x="587" 
d="M53 314q54 82 82 115t55 33q35 0 209 -89l88 72l50 -43q-49 -84 -78.5 -119.5t-60.5 -35.5t-110.5 41t-96.5 41q-22 0 -79 -59zM53 112q54 82 82 115t55 33q35 0 209 -89l88 72l50 -43q-49 -84 -78.5 -119.5t-60.5 -35.5t-110.5 41t-96.5 41q-22 0 -79 -59z" />
    <glyph glyph-name="notequal" unicode="&#x2260;" horiz-adv-x="576" 
d="M359 304l-56 -91h221v-97h-281l-75 -122l-50 29l58 93h-124v97h184l56 91h-240v97h300l76 123l50 -28l-59 -95h105v-97h-165z" />
    <glyph glyph-name="lessequal" unicode="&#x2264;" horiz-adv-x="594" 
d="M526 532l-310 -152l1 -6l309 -139l-47 -86l-409 188l-8 70l416 208zM542 0h-490v97h490v-97z" />
    <glyph glyph-name="greaterequal" unicode="&#x2265;" horiz-adv-x="594" 
d="M532 407l-8 -70l-409 -188l-47 86l309 139l1 6l-310 152l49 83zM542 97v-97h-490v97h490z" />
    <glyph glyph-name="uni25CA" unicode="&#x25ca;" horiz-adv-x="550" 
d="M516 367l-180 -367l-102 -8l-200 376l180 367l102 8zM379 367l-108 210l-6 -1l-94 -208l108 -210l6 1z" />
    <glyph glyph-name="f_b.liga" horiz-adv-x="1022" 
d="M758 494l33 3q82 0 134.5 -65t52.5 -166q0 -126 -82 -205t-220 -79q-102 0 -222 37l1 1v564l-225 29l52 -139h106l1 -56l-52 -69h-53v-252q43 -19 83 -48l-1 -49h-349l-1 35q29 18 66 33v282h-78l-1 56l57 38l22 14v64q0 92 63.5 153.5t161.5 61.5h290l59 -54v-266z
M718 84q53 55 53 148q0 55 -24.5 93t-66.5 38l-24 -3v-274l37 -4z" />
    <glyph glyph-name="f_f.liga" horiz-adv-x="810" 
d="M284 349v-255q55 -21 91 -45l-1 -49h-357l-1 35q29 18 66 33v282h-78l-1 56l57 38l22 14v65q0 96 63 162t154 66q78 0 161 -49l-102 -175q-63 61 -150 107l74 -160h114l1 -56l-52 -69h-61zM689 349v-255q55 -21 91 -45l-1 -49h-357l-1 35q29 18 66 33v282h-78l-1 56
l57 38l22 14v65q0 96 63 162t154 66q78 0 161 -49l-102 -175q-63 61 -150 107l74 -160h114l1 -56l-52 -69h-61z" />
    <glyph glyph-name="f_h.liga" horiz-adv-x="1060" 
d="M986 88l64 -39l-1 -49h-264v273q0 100 -70 96l-27 -5v-281l53 -34l-1 -49h-327l-1 35q34 21 75 36v509l-257 33l52 -139h106l1 -56l-52 -69h-53v-252q43 -19 83 -48l-1 -49h-349l-1 35q29 18 66 33v282h-78l-1 56l57 38l22 14v64q0 92 63.5 153.5t161.5 61.5h322l59 -54
v-256q67 49 132 71q39 2 83 -14t71 -59q11 -20 12 -93v-244z" />
    <glyph glyph-name="f_i.liga" horiz-adv-x="771" 
d="M284 349v-255q55 -21 91 -45l-1 -49h-357l-1 35q29 18 66 33v282h-78l-1 56l57 38l22 14v65q0 96 63 162t154 66q78 0 161 -49l-102 -175q-63 61 -150 107l74 -160h114l1 -56l-52 -69h-61zM597 543q-81 37 -133 102q43 83 111 135q76 -43 126 -116q-38 -74 -104 -121z
M687 88q43 -18 72 -39l-1 -49h-347l-1 35q32 20 76 37v324l-75 19l-2 49q96 34 219 39l59 -53v-362z" />
    <glyph glyph-name="f_j.liga" horiz-adv-x="751" 
d="M284 349v-255q55 -21 91 -45l-1 -49h-357l-1 35q29 18 66 33v282h-78l-1 56l57 38l22 14v65q0 96 63 162t154 66q78 0 161 -49l-102 -175q-63 61 -150 107l74 -160h114l1 -56l-52 -69h-61zM598 543q-81 37 -133 102q43 83 111 135q76 -44 126 -116q-37 -73 -104 -121z
M410 464q96 34 219 39l59 -53v-489q0 -74 -76 -124.5t-203 -58.5l-17 41q95 32 95 112v465l-75 19z" />
    <glyph glyph-name="f_k.liga" horiz-adv-x="1059" 
d="M984 76q25 -20 46 -31l-4 -48h-214q-13 12 -40 52l-85 135v-184h-276l-1 35q32 20 76 37v508l-256 33l52 -139h106l1 -56l-52 -69h-53v-252q43 -19 83 -48l-1 -49h-349l-1 35q29 18 66 33v282h-78l-1 56l57 38l22 14v64q0 92 63.5 153.5t161.5 61.5h320v0h1l59 -54v-412
l96 131l-54 13l-2 49q95 34 221 39l51 -73l-142 -178z" />
    <glyph glyph-name="f_l.liga" horiz-adv-x="773" 
d="M686 88q43 -18 72 -39l-1 -49h-347l-1 35q32 20 76 37v508l-255 33l52 -139h106l1 -56l-52 -69h-53v-252q43 -19 83 -48l-1 -49h-349l-1 35q29 18 66 33v282h-78l-1 56l57 38l22 14v64q0 92 63.5 153.5t161.5 61.5h320l59 -54v-595z" />
    <glyph glyph-name="f_t.liga" horiz-adv-x="826" 
d="M284 349v-255q55 -21 91 -45l-1 -49h-357l-1 35q29 18 66 33v282h-78l-1 56l57 38l22 14v65q0 96 63 162t154 66q78 0 161 -49l-102 -175q-63 61 -150 107l74 -160h114l1 -56l-52 -69h-61zM681 349v-185q0 -39 39 -39l76 4l4 -53l-177 -93q-55 -2 -98.5 32.5t-44.5 82.5
v252h-78l-1 56q37 34 90 70l60 137h90l33 -139h136v-57l-51 -68h-78z" />
    <glyph glyph-name="one.dnom" horiz-adv-x="286" 
d="M271 29v-29h-240l-3 15q28 25 66 34v178l-58 -22l-20 42l148 80v1h1v-1l50 -31v-249z" />
    <glyph glyph-name="two.dnom" horiz-adv-x="320" 
d="M311 109l-18 -109h-241l-20 53l67 58q83 72 83 118q0 42 -34 53l-36 -104h-65q-13 39 -13 100l1 14q60 44 133 44q57 0 94 -31t37 -75q0 -76 -124 -149l4 -7z" />
    <glyph glyph-name="three.dnom" horiz-adv-x="320" 
d="M247 167q28 -7 45 -28.5t17 -50.5q0 -48 -44 -73t-107 -25q-75 0 -135 27l26 109q66 -59 113 -83q26 12 26 37q0 43 -61 43h-24l-3 54h28q54 6 54 51q0 43 -42 51l-42 -80h-55q-5 17 -7.5 50.5t-0.5 52.5q53 34 130 34q56 0 92.5 -28.5t36.5 -68.5q0 -47 -47 -69v-3z" />
    <glyph glyph-name="four.dnom" horiz-adv-x="344" 
d="M324 132v-40l-20 -22h-37v-31l36 -9v-30h-215l-3 15q28 20 73 32v23h-138l-24 55l172 210v1h2l97 -17v-188zM158 130v21l14 82l-78 -104z" />
    <glyph glyph-name="one.numr" horiz-adv-x="286" 
d="M271 363v-29h-240l-3 15q28 25 66 34v178l-58 -22l-20 42l148 80v1h1v-1l50 -31v-249z" />
    <glyph glyph-name="two.numr" horiz-adv-x="320" 
d="M311 443l-18 -109h-241l-20 53l67 58q83 72 83 118q0 42 -34 53l-36 -104h-65q-13 39 -13 100l1 14q60 44 133 44q57 0 94 -31t37 -75q0 -76 -124 -149l4 -7z" />
    <glyph glyph-name="three.numr" horiz-adv-x="320" 
d="M247 501q28 -7 45 -28.5t17 -50.5q0 -48 -44 -73t-107 -25q-75 0 -135 27l26 109q66 -59 113 -83q26 12 26 37q0 43 -61 43h-24l-3 54h28q54 6 54 51q0 43 -42 51l-42 -80h-55q-5 17 -7.5 50.5t-0.5 52.5q53 34 130 34q56 0 92.5 -28.5t36.5 -68.5q0 -47 -47 -69v-3z" />
    <glyph glyph-name="four.numr" horiz-adv-x="344" 
d="M324 466v-40l-20 -22h-37v-31l36 -9v-30h-215l-3 15q28 20 73 32v23h-138l-24 55l172 210v1h2l97 -17v-188zM158 464v21l14 82l-78 -104z" />
    <glyph glyph-name="acutecomb" unicode="&#x301;" 
d="M-104 611l157 197l120 -106q-43 -35 -179 -167z" />
    <glyph glyph-name="uni0306" unicode="&#x306;" 
d="M178 719q-1 -75 -50 -122.5t-125 -47.5q-75 0 -125 47t-54 123l109 2q2 -34 20.5 -52t42.5 -18q25 0 42 18.5t17 51.5z" />
    <glyph glyph-name="uni030C" unicode="&#x30c;" 
d="M5 642l123 143l81 -70l-137 -172l-139 -2l-150 157l96 86z" />
    <glyph glyph-name="acutecomb.case" 
d="M99 922l66 -138l-264 -100l-51 89z" />
    <glyph glyph-name="uni0306.case" 
d="M178 893q-8 -83 -56.5 -124t-117.5 -41q-73 0 -123 43t-57 121l109 3q8 -68 62 -68t60 67z" />
    <glyph glyph-name="uni030C.case" 
d="M0 671l137 124l77 -64l-155 -156l-131 -2l-151 147l88 77z" />
    <glyph glyph-name="uni0327.case" 
d="M-5 -56q56 0 95.5 -25t39.5 -59q0 -57 -61.5 -96.5t-150.5 -36.5l-21 34q45 16 69 39t24 45q0 19 -18.5 29.5t-51.5 7.5l-27 47l63 77h73z" />
    <glyph glyph-name="uni0302.case" 
d="M-63 804h131l157 -175l-64 -62l-161 116l-153 -116l-68 62z" />
    <glyph glyph-name="uni0326.case" 
d="M39 -69q61 -28 61 -85q0 -46 -36 -99.5t-80 -77.5l-56 41q32 43 32 80q0 34 -27 54l-2 41z" />
    <glyph glyph-name="uni0308.case" 
d="M-28 654q-24 -71 -90 -106q-74 25 -110 89q12 78 93 123q87 -38 107 -106zM229 654q-24 -71 -90 -106q-74 25 -110 89q12 78 93 123q87 -38 107 -106z" />
    <glyph glyph-name="uni0307.case" 
d="M104 654q-23 -71 -89 -106q-75 25 -110 89q11 77 93 123q87 -37 106 -106z" />
    <glyph glyph-name="dotbelowcomb.case" 
d="M104 -204q-23 -71 -89 -106q-75 27 -110 89q11 78 93 124q87 -38 106 -107z" />
    <glyph glyph-name="gravecomb.case" 
d="M101 684l-264 100l66 138l249 -149z" />
    <glyph glyph-name="uni030B.case" 
d="M-34 765l99 -96q-45 -32 -174 -137l-80 71zM185 747l99 -96q-37 -26 -174 -137l-80 71z" />
    <glyph glyph-name="uni0331.case" 
d="M195 -128l5 -59l-47 -50h-341l-6 84q52 25 118 25h271z" />
    <glyph glyph-name="uni0304.case" 
d="M219 851l5 -59l-47 -50h-373l-6 84q49 25 113 25h308z" />
    <glyph glyph-name="uni0328.case" 
d="M-30 11q-69 -44 -102.5 -76.5t-33.5 -68.5q0 -52 54 -52q34 0 76 26l26 -54l-129 -71l-25 -2q-59 0 -97.5 34t-38.5 84q0 59 64.5 114t185.5 88z" />
    <glyph glyph-name="uni030A.case" 
d="M-127 836q0 55 36 92t91 37q54 0 91 -37.5t37 -94.5q0 -55 -34.5 -89.5t-89.5 -34.5t-93 35t-38 92zM-58 818q0 -26 17.5 -42t42.5 -16t41 16t16 41q0 26 -17 42.5t-42 16.5t-41.5 -16.5t-16.5 -41.5z" />
    <glyph glyph-name="tildecomb.case" 
d="M-233 767q54 82 82 115t55 33q35 0 209 -89l88 72l50 -43q-49 -84 -78.5 -119.5t-60.5 -35.5t-110.5 41t-96.5 41q-22 0 -79 -59z" />
    <glyph glyph-name="uni0327" unicode="&#x327;" 
d="M-5 -56q56 0 95.5 -25t39.5 -59q0 -57 -61.5 -96.5t-150.5 -36.5l-21 34q45 16 69 39t24 45q0 19 -18.5 29.5t-51.5 7.5l-27 47l63 77h73z" />
    <glyph glyph-name="uni0302" unicode="&#x302;" 
d="M-58 751h127l133 -162l-60 -57l-141 110l-124 -115l-71 54z" />
    <glyph glyph-name="uni0326" unicode="&#x326;" 
d="M39 -69q61 -28 61 -85q0 -46 -36 -99.5t-80 -77.5l-56 41q32 43 32 80q0 34 -27 54l-2 41z" />
    <glyph glyph-name="uni0308" unicode="&#x308;" 
d="M-28 654q-24 -71 -90 -106q-74 25 -110 89q12 78 93 123q87 -38 107 -106zM229 654q-24 -71 -90 -106q-74 25 -110 89q12 78 93 123q87 -38 107 -106z" />
    <glyph glyph-name="uni0307" unicode="&#x307;" 
d="M104 654q-23 -71 -89 -106q-75 25 -110 89q11 77 93 123q87 -37 106 -106z" />
    <glyph glyph-name="dotbelowcomb" unicode="&#x323;" 
d="M104 -204q-23 -71 -89 -106q-75 27 -110 89q11 78 93 124q87 -38 106 -107z" />
    <glyph glyph-name="gravecomb" unicode="&#x300;" 
d="M-173 702l120 106l157 -197l-98 -76q-136 132 -179 167z" />
    <glyph glyph-name="uni030B" unicode="&#x30b;" 
d="M-49 784l110 -88q-53 -44 -125 -118l-45 -43l-86 64zM171 784l110 -88q-53 -44 -125 -118l-45 -43l-86 64z" />
    <glyph glyph-name="uni0331" unicode="&#x331;" 
d="M195 -128l5 -59l-47 -50h-341l-6 84q52 25 118 25h271z" />
    <glyph glyph-name="uni0304" unicode="&#x304;" 
d="M194 677l5 -59l-47 -50h-314l-6 84q51 25 113 25h249z" />
    <glyph glyph-name="uni0328" unicode="&#x328;" 
d="M13 36q-70 -44 -103 -76t-33 -68q0 -52 54 -52q35 0 77 26l25 -55l-129 -70l-25 -2q-59 0 -97.5 34t-38.5 83q0 60 64.5 114.5t186.5 88.5z" />
    <glyph glyph-name="uni030A" unicode="&#x30a;" 
d="M-127 836q0 55 36 92t91 37q54 0 91 -37.5t37 -94.5q0 -55 -34.5 -89.5t-89.5 -34.5t-93 35t-38 92zM-58 818q0 -26 17.5 -42t42.5 -16t41 16t16 41q0 26 -17 42.5t-42 16.5t-41.5 -16.5t-16.5 -41.5z" />
    <glyph glyph-name="tildecomb" unicode="&#x303;" 
d="M-225 597q55 95 86.5 126.5t70.5 31.5q23 0 75.5 -29.5t96.5 -62.5l84 86l61 -44q-79 -161 -149 -161q-16 0 -33.5 7.5t-71 42t-69.5 34.5t-34 -18t-53 -62z" />
    <glyph glyph-name="uni00200326" 
d="M39 -69q61 -28 61 -85q0 -46 -36 -99.5t-80 -77.5l-56 41q32 43 32 80q0 34 -27 54l-2 41z" />
    <glyph glyph-name="uni0312" unicode="&#x312;" 
d="M111 775q-57 -53 -68 -115l59 -56q-8 -33 -37 -65.5t-65 -41.5q-53 20 -75 55.5t-22 71.5q0 58 46.5 112.5t120.5 88.5z" />
    <glyph glyph-name="uni0312.case" 
d="M111 775q-57 -53 -68 -115l59 -56q-8 -33 -37 -65.5t-65 -41.5q-53 20 -75 55.5t-22 71.5q0 58 46.5 112.5t120.5 88.5z" />
    <glyph glyph-name="uni030C.calt" 
d="M143 755q34 -50 34 -107q0 -61 -36.5 -122.5t-100.5 -111.5l-60 47q54 83 54 134q0 40 -34 44v55z" />
    <glyph glyph-name="uni0904" unicode="&#x904;" horiz-adv-x="898" 
d="M938 538h-186l76 -52v-505l-54 -27l-132 69v178q-15 -6 -33 -6q-29 0 -65 15q6 -24 6 -47q0 -79 -52 -130.5t-138 -51.5q-89 0 -179.5 64.5t-165.5 231.5l91 59q45 -97 94 -146.5t109 -49.5q45 0 70.5 24t25.5 54q0 46 -40 64l-98 -62l-105 154q58 53 139 60
q73 47 73 103l-1 13q-39 4 -88.5 -22.5t-95.5 -71.5l-97 126q96 103 205 103q83 0 150 -64.5t67 -135.5q0 -64 -52 -122q38 -24 84 -24q59 0 96 35v164h-72l-65 83l25 49h133q-8 34 -36.5 53t-116.5 35t-132 40q-111 60 -111 258l104 10q13 -94 105 -118l55 -11
q118 -19 158.5 -50t62 -82.5t25.5 -134.5h121l65 -83z" />
    <glyph glyph-name="uni0905" unicode="&#x905;" horiz-adv-x="898" 
d="M938 538h-186l76 -52v-505l-54 -27l-132 69v178q-15 -6 -33 -6q-29 0 -65 15q6 -24 6 -47q0 -79 -52 -130.5t-138 -51.5q-89 0 -179.5 64.5t-165.5 231.5l91 59q45 -97 94 -146.5t109 -49.5q45 0 70.5 24t25.5 54q0 46 -40 64l-98 -62l-105 154q58 53 139 60
q73 47 73 103l-1 13q-39 4 -88.5 -22.5t-95.5 -71.5l-97 126q96 103 205 103q83 0 150 -64.5t67 -135.5q0 -64 -52 -122q38 -24 84 -24q59 0 96 35v164h-72l-65 83l25 49h368l65 -83z" />
    <glyph glyph-name="uni0906" unicode="&#x906;" horiz-adv-x="1214" 
d="M1254 538h-186l76 -52v-505l-54 -27l-132 69v515h-206l76 -52v-505l-54 -27l-132 69v178q-15 -6 -33 -6q-29 0 -65 15q6 -24 6 -47q0 -79 -52 -130.5t-138 -51.5q-89 0 -179.5 64.5t-165.5 231.5l91 59q45 -97 94 -146.5t109 -49.5q45 0 70.5 24t25.5 54q0 46 -40 64
l-98 -62l-105 154q58 53 139 60q73 47 73 103l-1 13q-39 4 -88.5 -22.5t-95.5 -71.5l-97 126q96 103 205 103q83 0 150 -64.5t67 -135.5q0 -64 -52 -122q38 -24 84 -24q59 0 96 35v164h-72l-65 83l25 49h684l65 -83z" />
    <glyph glyph-name="uni0907" unicode="&#x907;" horiz-adv-x="600" 
d="M640 538h-208l76 -52v-143h-268q-26 0 -41.5 -12.5t-15.5 -29.5q0 -14 11 -25l204 38q85 -31 129 -87.5t44 -122.5q0 -85 -65 -129t-153 -57l122 -98l-135 -97l-129 200q-69 19 -152 78l38 143l84 -2l60 -84l26 -2q57 0 111 31.5t65 70.5l-158 -42q-120 38 -189 101.5
t-69 131.5q0 59 50 98t143 39h122v52h-342l-65 83l25 49h640l65 -83z" />
    <glyph glyph-name="uni0908" unicode="&#x908;" horiz-adv-x="600" 
d="M640 538h-208l76 -52v-143h-268q-26 0 -41.5 -12.5t-15.5 -29.5q0 -14 11 -25l204 38q85 -31 129 -87.5t44 -122.5q0 -85 -65 -129t-153 -57l122 -98l-135 -97l-129 200q-69 19 -152 78l38 143l84 -2l60 -84l26 -2q57 0 111 31.5t65 70.5l-158 -42q-120 38 -189 101.5
t-69 131.5q0 59 50 98t143 39h122v52h-342l-65 83l25 49h349q-81 88 -81 170q0 67 50.5 115t124.5 48q49 0 93.5 -21t72.5 -53l-25 -86q-34 16 -69 16q-43 0 -72.5 -23.5t-29.5 -67.5q0 -46 42 -98h185l65 -83z" />
    <glyph glyph-name="uni0909" unicode="&#x909;" horiz-adv-x="600" 
d="M640 538h-199q50 -48 50 -104q0 -53 -35 -95q51 -36 77.5 -85.5t26.5 -102.5q0 -87 -61.5 -145t-157.5 -58t-184.5 69.5t-165.5 242.5l96 52q47 -101 95 -153t110 -52q47 0 74.5 28t27.5 63q0 45 -38 66l-100 -64l-110 162q28 26 70.5 44t81.5 20q28 22 28 53t-34 59
h-292l-65 83l25 49h640l65 -83z" />
    <glyph glyph-name="uni090A" unicode="&#x90a;" horiz-adv-x="895" 
d="M441 538q50 -48 50 -104q0 -53 -35 -95l18 -13q92 102 186 102q85 0 149.5 -69.5t64.5 -156.5q0 -121 -150 -222l-124 135q65 53 98.5 86.5t33.5 57.5q0 22 -25 22q-51 0 -148 -107l1 -23q0 -87 -61.5 -145t-157.5 -58t-184.5 69.5t-165.5 242.5l96 52q47 -101 95 -153
t110 -52q47 0 74.5 28t27.5 63q0 45 -38 66l-100 -64l-110 162q28 26 70.5 44t81.5 20q28 22 28 53t-34 59h-292l-65 83l25 49h935l65 -83l-25 -49h-494z" />
    <glyph glyph-name="uni090B" unicode="&#x90b;" horiz-adv-x="973" 
d="M519 538l76 -52v-175l35 -3q54 0 97 30l-62 97l30 57l166 -4q24 -42 24 -93q0 -46 -20 -77q110 -116 110 -203q0 -59 -44 -108.5t-132 -64.5l-97 99l10 52q107 32 107 94q0 17 -10 39q-35 -37 -88.5 -60.5t-109.5 -23.5l-16 1v-162l-54 -27l-132 69v133l-189 -148
l-128 150l240 156q-30 26 -58 26q-24 0 -55.5 -18.5t-108.5 -72.5l-113 173q116 86 188 86q75 0 158 -79l66 -63v172h-409l-65 83l25 49h1013l65 -83l-25 -49h-494z" />
    <glyph glyph-name="uni090B.ss06" horiz-adv-x="973" 
d="M1046 -79q-73 -75 -166 -75q-87 0 -158 63t-71 141q0 107 158 155l-15 27q-77 -70 -183 -70l-16 1v-182l-54 -27l-132 69v133l-189 -148l-128 150l240 156q-30 26 -58 26q-24 0 -55.5 -18.5t-108.5 -72.5l-113 173q116 86 188 86q75 0 158 -79l66 -63v172h-409l-65 83
l25 49h1013l65 -83l-25 -49h-494l76 -52v-175l35 -3q54 0 97 30l-62 97l30 57l166 -4q24 -42 24 -94q0 -54 -27 -88l97 -183l-27 -52q-53 -10 -98.5 -27.5t-45.5 -38.5q0 -18 25 -18q29 0 78 24.5t75 51.5z" />
    <glyph glyph-name="uni0960" unicode="&#x960;" horiz-adv-x="981" 
d="M1106 -219q-70 -75 -168 -75q-85 0 -151 56.5t-66 127.5q0 18 7 41q-97 51 -97 130q0 100 179 146l-17 27q-77 -62 -181 -62l-17 1v-192l-54 -27l-132 69v133l-189 -148l-128 150l240 156q-30 26 -58 26q-24 0 -55.5 -18.5t-108.5 -72.5l-113 173q116 86 188 86
q75 0 158 -79l66 -63v172h-409l-65 83l25 49h1033l65 -83l-25 -49h-514l76 -52v-165l37 -3q53 0 93 25l-60 92l30 57l166 -4q24 -42 24 -93q0 -53 -27 -87l97 -175l-27 -52q-59 -8 -111.5 -30t-52.5 -45q0 -10 10 -18q61 46 177 65l64 -90l-27 -52q-132 -27 -132 -59
q0 -15 23 -15q29 0 75.5 24.5t67.5 51.5z" />
    <glyph glyph-name="uni090C" unicode="&#x90c;" horiz-adv-x="840" 
d="M880 538h-323l76 -52v-31q60 -29 96.5 -82t36.5 -113q0 -56 -28.5 -106t-81.5 -114t-53 -77q0 -23 22 -23q51 0 111 127l127 -113q-68 -147 -185 -147q-86 0 -156.5 67.5t-70.5 145.5q0 35 14 64.5t55 80.5t57 78t16 57q0 47 -41 47q-33 0 -59.5 -61.5t-26.5 -134.5
l-43 -30l-138 83q-3 61 16 113l-13 1q-34 0 -57.5 -23t-23.5 -63q0 -50 43 -92t142 -100l-71 -95q-309 162 -309 355q0 79 52.5 130.5t130.5 51.5q33 0 59 -10l92 -75q43 50 108 71v70h-454l-65 83l25 49h880l65 -83z" />
    <glyph glyph-name="uni0961" unicode="&#x961;" horiz-adv-x="840" 
d="M957 -203q-69 -114 -175 -114q-68 0 -126.5 46t-71.5 109q-63 25 -101 71t-38 101q0 43 20.5 78.5t59 82t53.5 73.5t15 56q0 47 -41 47q-33 0 -59.5 -61.5t-26.5 -134.5l-43 -30l-138 83q-3 61 16 113l-13 1q-34 0 -57.5 -23t-23.5 -63q0 -50 43 -92t142 -100l-71 -95
q-309 162 -309 355q0 79 52.5 130.5t130.5 51.5q33 0 59 -10l92 -75q43 50 108 71v70h-454l-65 83l25 49h880l65 -83l-25 -49h-323l76 -52v-31q60 -29 96.5 -82t36.5 -112q0 -82 -83 -182l-74 -85q-18 -22 -18 -34q0 -15 11 -26q43 73 148 109l88 -86l-10 -48
q-108 -59 -108 -92q0 -13 15 -13q23 0 61 29t59 66z" />
    <glyph glyph-name="uni090D" unicode="&#x90d;" horiz-adv-x="620" 
d="M660 538h-168l76 -52v-155q0 -80 -30.5 -129t-121.5 -93l-92 123l58 51v255h-230l76 -52v-311l210 -101q125 -62 168 -105t43 -96q0 -72 -55 -123l-167 73q33 42 33 71q0 35 -55 62l-194 95q-171 84 -171 249v238h-40l-65 83l25 49h660l65 -83zM538 910
q-15 -89 -68.5 -145t-139.5 -56q-82 0 -153 53.5t-110 153.5l83 66q31 -64 62.5 -91.5t73.5 -27.5q93 0 113 121z" />
    <glyph glyph-name="uni090E" unicode="&#x90e;" horiz-adv-x="620" 
d="M660 538h-168l76 -52v-155q0 -80 -30.5 -129t-121.5 -93l-92 123l58 51v255h-230l76 -52v-311l210 -101q125 -62 168 -105t43 -96q0 -72 -55 -123l-167 73q33 42 33 71q0 35 -55 62l-194 95q-171 84 -171 249v238h-40l-65 83l25 49h441q-8 34 -36.5 53t-116.5 35t-132 40
q-111 60 -111 258l104 10q13 -94 105 -118l55 -11q118 -19 158.5 -50t62 -82.5t25.5 -134.5h105l65 -83z" />
    <glyph glyph-name="uni090F" unicode="&#x90f;" horiz-adv-x="620" 
d="M660 538h-168l76 -52v-155q0 -80 -30.5 -129t-121.5 -93l-92 123l58 51v255h-230l76 -52v-311l210 -101q125 -62 168 -105t43 -96q0 -72 -55 -123l-167 73q33 42 33 71q0 35 -55 62l-194 95q-171 84 -171 249v238h-40l-65 83l25 49h660l65 -83z" />
    <glyph glyph-name="uni0910" unicode="&#x910;" horiz-adv-x="620" 
d="M660 538h-168l76 -52v-155q0 -80 -30.5 -129t-121.5 -93l-92 123l58 51v255h-230l76 -52v-311l210 -101q125 -62 168 -105t43 -96q0 -72 -55 -123l-167 73q33 42 33 71q0 35 -55 62l-194 95q-171 84 -171 249v238h-40l-65 83l25 49h419l-37 67q-46 79 -109 79
q-55 0 -141 -57l-97 192q87 53 165 53q146 0 267 -204l77 -130h116l65 -83z" />
    <glyph glyph-name="uni0911" unicode="&#x911;" horiz-adv-x="1214" 
d="M916 709q-82 0 -153 53.5t-110 153.5l83 66q31 -64 62.5 -91.5t73.5 -27.5q93 0 113 121l139 -74q-15 -89 -68.5 -145t-139.5 -56zM1254 538h-186l76 -52v-505l-54 -27l-132 69v515h-206l76 -52v-505l-54 -27l-132 69v178q-15 -6 -33 -6q-29 0 -65 15q6 -24 6 -47
q0 -79 -52 -130.5t-138 -51.5q-89 0 -179.5 64.5t-165.5 231.5l91 59q45 -97 94 -146.5t109 -49.5q45 0 70.5 24t25.5 54q0 46 -40 64l-98 -62l-105 154q58 53 139 60q73 47 73 103l-1 13q-39 4 -88.5 -22.5t-95.5 -71.5l-97 126q96 103 205 103q83 0 150 -64.5t67 -135.5
q0 -64 -52 -122q38 -24 84 -24q59 0 96 35v164h-72l-65 83l25 49h684l65 -83z" />
    <glyph glyph-name="uni0912" unicode="&#x912;" horiz-adv-x="1214" 
d="M1254 538h-186l76 -52v-505l-54 -27l-132 69v515h-206l76 -52v-505l-54 -27l-132 69v178q-15 -6 -33 -6q-29 0 -65 15q6 -24 6 -47q0 -79 -52 -130.5t-138 -51.5q-89 0 -179.5 64.5t-165.5 231.5l91 59q45 -97 94 -146.5t109 -49.5q45 0 70.5 24t25.5 54q0 46 -40 64
l-98 -62l-105 154q58 53 139 60q73 47 73 103l-1 13q-39 4 -88.5 -22.5t-95.5 -71.5l-97 126q96 103 205 103q83 0 150 -64.5t67 -135.5q0 -64 -52 -122q38 -24 84 -24q59 0 96 35v164h-72l-65 83l25 49h457q-8 34 -36.5 53t-116.5 35t-132 40q-111 60 -111 258l104 10
q13 -94 105 -118l55 -11q118 -19 158.5 -50t62 -82.5t25.5 -134.5h113l65 -83z" />
    <glyph glyph-name="uni0913" unicode="&#x913;" horiz-adv-x="1214" 
d="M1254 538h-186l76 -52v-505l-54 -27l-132 69v515h-206l76 -52v-505l-54 -27l-132 69v178q-15 -6 -33 -6q-29 0 -65 15q6 -24 6 -47q0 -79 -52 -130.5t-138 -51.5q-89 0 -179.5 64.5t-165.5 231.5l91 59q45 -97 94 -146.5t109 -49.5q45 0 70.5 24t25.5 54q0 46 -40 64
l-98 -62l-105 154q58 53 139 60q73 47 73 103l-1 13q-39 4 -88.5 -22.5t-95.5 -71.5l-97 126q96 103 205 103q83 0 150 -64.5t67 -135.5q0 -64 -52 -122q38 -24 84 -24q59 0 96 35v164h-72l-65 83l25 49h419l-32 57q-46 79 -109 79q-55 0 -141 -57l-97 192q87 53 165 53
q79 0 143.5 -53t123.5 -151l72 -120h140l65 -83z" />
    <glyph glyph-name="uni0972" unicode="&#x972;" horiz-adv-x="898" 
d="M938 538h-186l76 -52v-505l-54 -27l-132 69v178q-15 -6 -33 -6q-29 0 -65 15q6 -24 6 -47q0 -79 -52 -130.5t-138 -51.5q-89 0 -179.5 64.5t-165.5 231.5l91 59q45 -97 94 -146.5t109 -49.5q45 0 70.5 24t25.5 54q0 46 -40 64l-98 -62l-105 154q58 53 139 60
q73 47 73 103l-1 13q-39 4 -88.5 -22.5t-95.5 -71.5l-97 126q96 103 205 103q83 0 150 -64.5t67 -135.5q0 -64 -52 -122q38 -24 84 -24q59 0 96 35v164h-72l-65 83l25 49h368l65 -83zM916 910q-15 -89 -68.5 -145t-139.5 -56q-82 0 -153 53.5t-110 153.5l83 66
q31 -64 62.5 -91.5t73.5 -27.5q93 0 113 121z" />
    <glyph glyph-name="uni0973" unicode="&#x973;" horiz-adv-x="898" 
d="M938 538h-186l76 -52v-505l-54 -27l-132 69v178q-15 -6 -33 -6q-29 0 -65 15q6 -24 6 -47q0 -79 -52 -130.5t-138 -51.5q-89 0 -179.5 64.5t-165.5 231.5l91 59q45 -97 94 -146.5t109 -49.5q45 0 70.5 24t25.5 54q0 46 -40 64l-98 -62l-105 154q58 53 139 60
q73 47 73 103l-1 13q-39 4 -88.5 -22.5t-95.5 -71.5l-97 126q96 103 205 103q83 0 150 -64.5t67 -135.5q0 -64 -52 -122q38 -24 84 -24q59 0 96 35v164h-72l-65 83l25 49h130v185h128v-185h110l65 -83z" />
    <glyph glyph-name="uni0974" unicode="&#x974;" horiz-adv-x="1214" 
d="M1254 538h-186l76 -52v-505l-54 -27l-132 69v515h-206l76 -52v-505l-54 -27l-132 69v178q-15 -6 -33 -6q-29 0 -65 15q6 -24 6 -47q0 -79 -52 -130.5t-138 -51.5q-89 0 -179.5 64.5t-165.5 231.5l91 59q45 -97 94 -146.5t109 -49.5q45 0 70.5 24t25.5 54q0 46 -40 64
l-98 -62l-105 154q58 53 139 60q73 47 73 103l-1 13q-39 4 -88.5 -22.5t-95.5 -71.5l-97 126q96 103 205 103q83 0 150 -64.5t67 -135.5q0 -64 -52 -122q38 -24 84 -24q59 0 96 35v164h-72l-65 83l25 49h443v185h128v-185h113l65 -83z" />
    <glyph glyph-name="uni0975" unicode="&#x975;" horiz-adv-x="1214" 
d="M1254 538h-186l76 -52v-505l-54 -27l-132 69v515h-206l76 -52v-505l-54 -27l-132 69v178q-15 -6 -33 -6q-29 0 -65 15q6 -24 6 -47q0 -79 -52 -130.5t-138 -51.5q-89 0 -179.5 64.5t-165.5 231.5l91 59q45 -97 94 -146.5t109 -49.5q45 0 70.5 24t25.5 54q0 46 -40 64
l-98 -62l-105 154q58 53 139 60q73 47 73 103l-1 13q-39 4 -88.5 -22.5t-95.5 -71.5l-97 126q96 103 205 103q83 0 150 -64.5t67 -135.5q0 -64 -52 -122q38 -24 84 -24q59 0 96 35v164h-72l-65 83l25 49h447q-7 35 -40 37l-129 1q-96 0 -157.5 59t-61.5 149l103 29
q21 -113 96.5 -113t94.5 -2l32 -4l2 9q-8 5 -71 28q-53 21 -81 60.5t-28 86.5t25 90l108 -16q-13 -30 -13 -52q0 -37 55 -66l64 -34q65 -34 96 -96t31 -132l-2 -34h113l65 -83z" />
    <glyph glyph-name="uni0976" unicode="&#x976;" horiz-adv-x="898" 
d="M938 538h-186l76 -52v-505l-54 -27l-132 69v178q-15 -6 -33 -6q-29 0 -65 15q6 -24 6 -47q0 -79 -52 -130.5t-138 -51.5q-89 0 -179.5 64.5t-165.5 231.5l91 59q45 -97 94 -146.5t109 -49.5q45 0 70.5 24t25.5 54q0 46 -40 64l-98 -62l-105 154q58 53 139 60
q73 47 73 103l-1 13q-39 4 -88.5 -22.5t-95.5 -71.5l-97 126q96 103 205 103q83 0 150 -64.5t67 -135.5q0 -64 -52 -122q38 -24 84 -24q59 0 96 35v164h-72l-65 83l25 49h368l65 -83zM343 -64q65 -65 166 -65q117 0 192 75l83 -134q-31 -42 -91.5 -68.5t-128.5 -26.5
q-80 0 -151.5 39.5t-116.5 123.5z" />
    <glyph glyph-name="uni0977" unicode="&#x977;" horiz-adv-x="898" 
d="M938 538h-186l76 -52v-505l-54 -27l-132 69v178q-15 -6 -33 -6q-29 0 -65 15q6 -24 6 -47q0 -79 -52 -130.5t-138 -51.5q-89 0 -179.5 64.5t-165.5 231.5l91 59q45 -97 94 -146.5t109 -49.5q45 0 70.5 24t25.5 54q0 46 -40 64l-98 -62l-105 154q58 53 139 60
q73 47 73 103l-1 13q-39 4 -88.5 -22.5t-95.5 -71.5l-97 126q96 103 205 103q83 0 150 -64.5t67 -135.5q0 -64 -52 -122q38 -24 84 -24q59 0 96 35v164h-72l-65 83l25 49h368l65 -83zM340 -294q65 -65 166 -65q117 0 192 75l83 -134q-31 -42 -91.5 -68.5t-128.5 -26.5
q-80 0 -151.5 39.5t-116.5 123.5zM340 -64q65 -65 166 -65q117 0 192 75l83 -134q-31 -42 -91.5 -68.5t-128.5 -26.5q-80 0 -151.5 39.5t-116.5 123.5z" />
    <glyph glyph-name="uni0914" unicode="&#x914;" horiz-adv-x="1214" 
d="M1254 538h-186l76 -52v-505l-54 -27l-132 69v515h-206l76 -52v-505l-54 -27l-132 69v178q-15 -6 -33 -6q-29 0 -65 15q6 -24 6 -47q0 -79 -52 -130.5t-138 -51.5q-89 0 -179.5 64.5t-165.5 231.5l91 59q45 -97 94 -146.5t109 -49.5q45 0 70.5 24t25.5 54q0 46 -40 64
l-98 -62l-105 154q58 53 139 60q73 47 73 103l-1 13q-39 4 -88.5 -22.5t-95.5 -71.5l-97 126q96 103 205 103q83 0 150 -64.5t67 -135.5q0 -64 -52 -122q38 -24 84 -24q59 0 96 35v164h-72l-65 83l25 49h409l-29 30q-50 51 -100 51q-47 0 -135 -53l-85 153q87 60 158 60
q87 0 180 -109l89 -111l-45 107q-35 84 -69.5 120.5t-90.5 36.5q-46 0 -115 -24l-67 184q74 28 133 28q97 0 163 -73.5t119 -221.5l64 -178h105l65 -83z" />
    <glyph glyph-name="uni0915" unicode="&#x915;" horiz-adv-x="845" 
d="M885 538h-443l76 -52v-59q48 32 102 32q86 0 149 -69.5t63 -158.5q0 -140 -172 -253l-129 132q74 57 107.5 91t33.5 64q0 24 -23 24q-48 0 -131 -92v-216l-54 -27l-132 69v62l-35 -3q-59 0 -124 27t-109.5 78t-44.5 119q0 76 51.5 126.5t134.5 50.5l44 -3l83 -45v103
h-332l-65 83l25 49h885l65 -83zM216 208q69 14 116 73v60q-19 6 -37 6q-42 0 -68 -29t-26 -65q0 -27 15 -45z" />
    <glyph glyph-name="uni0916" unicode="&#x916;" horiz-adv-x="920" 
d="M960 538h-186l76 -52v-505l-54 -27l-89 46q-87 -56 -213 -56q-149 0 -278 89t-197 240l38 90l139 -1v176h-196l-65 83l25 49h960l65 -83zM664 538h-361l76 -52v-105q15 49 55 81t99 32l47 -5l84 -52v101zM664 361q-22 7 -44 7q-42 0 -66.5 -26.5t-24.5 -59.5
q0 -23 12 -38l14 -1q63 0 109 57v61zM478 78q108 0 186 47v6l-35 -3q-91 0 -168 51t-88 127q-15 -48 -80 -89l-51 -31q36 -53 99 -80.5t137 -27.5z" />
    <glyph glyph-name="uni0917" unicode="&#x917;" horiz-adv-x="690" 
d="M730 538h-186l76 -52v-505l-54 -27l-132 69v515h-206l76 -52v-361l-65 -37q-67 19 -138.5 83.5t-92.5 127.5l36 58h79l-4 181h-119l-65 83l25 49h730l65 -83z" />
    <glyph glyph-name="uni0918" unicode="&#x918;" horiz-adv-x="728" 
d="M768 538h-186l76 -52v-505l-54 -27l-132 69v54q-39 -14 -83 -14q-107 0 -200 70.5t-93 159.5q0 40 22 79q-115 68 -115 153l1 13h-24l-65 83l25 49h788l65 -83zM472 538h-246q-36 -22 -36 -65q0 -15 6 -30q46 23 105 23q33 0 64 -7l72 -119l-25 -49l-28 2
q-53 0 -84.5 -22t-30.5 -50q0 -9 4 -16l24 -3q47 0 99 31t76 72v233z" />
    <glyph glyph-name="uni0919" unicode="&#x919;" horiz-adv-x="770" 
d="M835 587l-25 -49h-363l76 -52v-143h-233q-77 0 -77 -37q0 -15 15 -30l177 50q84 -30 130 -88.5t46 -127.5q0 -83 -61 -139.5t-156 -56.5q-193 0 -368 255l78 66q106 -161 235 -161q55 0 94.5 26.5t47.5 66.5l-131 -50q-124 43 -195 106t-71 132q0 61 51 98.5t137 38.5
h115v46h-357l-65 83l25 49h810zM646 388q29 -11 62 -38.5t52 -52.5q-12 -31 -38 -64t-53 -51q-28 11 -64 38t-54 53q41 83 95 115z" />
    <glyph glyph-name="uni091A" unicode="&#x91a;" horiz-adv-x="738" 
d="M778 538h-186l76 -52v-505l-54 -27l-132 69v51q-35 -11 -74 -11q-115 0 -208.5 69.5t-93.5 156.5q0 31 13 56h-78l-63 86l25 49h376l72 -103l-25 -49h-88q-57 -38 -57 -101l2 -22l26 -2q50 0 98.5 29t74.5 70v236h-482l-65 83l25 49h778l65 -83z" />
    <glyph glyph-name="uni091B" unicode="&#x91b;" horiz-adv-x="805" 
d="M845 538h-242l76 -52v-33q46 -38 73 -96t27 -121q0 -132 -104.5 -230t-248.5 -98q-124 0 -216.5 69.5t-92.5 159.5q0 36 15 64q-121 71 -121 168q0 54 40.5 92.5t119.5 38.5h105l74 -108l-25 -49h-73q-80 0 -80 -40q0 -18 23 -37q46 27 106 27q33 0 71 -9l74 -121
l-38 -47q-28 12 -54 12q-30 0 -49.5 -15t-19.5 -37q0 -20 10 -30l37 -4q145 0 236 102q-76 35 -128.5 94t-52.5 120q0 50 36 89.5t90 50.5v40h-513l-65 83l25 49h845l65 -83zM548 317q0 -74 62 -110q23 48 23 97q0 56 -19 79l-12 1q-54 0 -54 -67z" />
    <glyph glyph-name="uni091C" unicode="&#x91c;" horiz-adv-x="770" 
d="M810 538h-186l76 -52v-505l-54 -27l-132 69v278h-98q53 -56 53 -124t-45 -111.5t-117 -43.5q-115 0 -193.5 105.5t-123.5 279.5l116 39q43 -145 75 -191.5t73 -46.5q29 0 44.5 17t15.5 42q0 52 -49 77l-69 22v91h318v81h-514l-65 83l25 49h810l65 -83z" />
    <glyph glyph-name="uni091D" unicode="&#x91d;" horiz-adv-x="888" 
d="M928 538h-186l76 -52v-505l-54 -27l-132 69v125l-24 -2l-43 5q6 -22 6 -47q0 -85 -65 -129t-153 -57l122 -98l-135 -97l-129 200q-69 19 -152 78l38 143l84 -2l60 -84l26 -2q57 0 111 31.5t65 70.5l-158 -42q-120 38 -189 101.5t-69 131.5q0 59 50 98t143 39h122v52h-342
l-65 83l25 49h928l65 -83zM536 286q60 0 96 27v225h-200l76 -52v-143h-268q-26 0 -41.5 -12.5t-15.5 -29.5q0 -14 11 -25l204 38q77 -28 138 -28z" />
    <glyph glyph-name="uni091D.NEP" horiz-adv-x="907" 
d="M947 538h-396l76 -52v-98h44q97 0 173.5 -74.5t76.5 -165.5q0 -106 -127 -206l-138 120q96 73 96 119q0 38 -66 38h-59v-238l-54 -27l-132 69v182h-90v-86l-65 -37q-67 19 -140 88.5t-91 132.5l36 58h82l-1 139q0 45 -11 63q-26 1 -44.5 -14t-18.5 -38q0 -33 38 -64
l-67 -51q-119 84 -119 163q0 56 41.5 95.5t103.5 39.5q94 0 175 -79t81 -173v-81h90v177l-65 83l25 49h506l65 -83z" />
    <glyph glyph-name="uni091E" unicode="&#x91e;" horiz-adv-x="830" 
d="M870 538h-186l76 -52v-505l-54 -27l-132 69v157q-29 5 -52 14q-19 -64 -71.5 -104.5t-123.5 -40.5q-82 0 -177.5 63.5t-181.5 227.5l92 62q60 -103 106.5 -146.5t101.5 -43.5q48 0 74.5 27.5t26.5 65.5q0 47 -37 72l-106 -86l-108 143q65 76 158 76q83 0 155.5 -56
t93.5 -138q25 -1 49 3v219h-574l-65 83l25 49h870l65 -83z" />
    <glyph glyph-name="uni091F" unicode="&#x91f;" horiz-adv-x="598" 
d="M638 538h-231l76 -52v-215h-171q-57 0 -86.5 -24t-29.5 -61q0 -23 17 -48q30 -15 69 -15q55 0 114.5 25t98.5 65l101 -153q-48 -56 -109 -79.5t-118 -23.5q-80 0 -162 40.5t-135 109t-53 147.5q0 85 60.5 136.5t167.5 54.5h57v93h-304l-65 83l25 49h638l65 -83z" />
    <glyph glyph-name="uni0920" unicode="&#x920;" horiz-adv-x="660" 
d="M700 538h-288l76 -52v-119q62 -43 101 -103.5t39 -126.5q0 -86 -65 -139.5t-170 -53.5q-143 0 -253.5 91t-110.5 206q0 88 67 141t179 53h34v103h-309l-65 83l25 49h700l65 -83zM323 100q63 0 99 29.5t36 69.5q0 34 -25 67h-116q-54 0 -83 -24.5t-29 -61.5q0 -27 17 -53
q41 -27 101 -27z" />
    <glyph glyph-name="uni0921" unicode="&#x921;" horiz-adv-x="630" 
d="M670 538h-203l76 -52v-133h-252q-72 0 -72 -34q0 -17 20 -32l186 38q88 -32 131 -91.5t43 -122.5q0 -80 -61.5 -134t-157.5 -54q-203 0 -376 256l78 66q111 -166 248 -166q49 0 92.5 21.5t52.5 62.5l-145 -45q-122 43 -195 109.5t-73 140.5q0 60 49 97t144 37h122v36
h-377l-65 83l25 49h670l65 -83z" />
    <glyph glyph-name="uni0922" unicode="&#x922;" horiz-adv-x="649" 
d="M689 538h-231l76 -52v-188h-199q-65 0 -101 -35t-36 -85q0 -51 33 -88q56 -30 126 -30l-71 47q-15 34 -15 66q0 53 39 83t98 30q85 0 149 -61.5t64 -137.5q0 -72 -60.5 -123.5t-149.5 -51.5q-83 0 -174 45.5t-152 122.5t-61 165q0 99 70.5 159.5t188.5 60.5h72v73h-355
l-65 83l25 49h689l65 -83zM429 132q0 -25 14 -53q49 26 49 67q0 35 -27 35q-14 0 -25 -13t-11 -36z" />
    <glyph glyph-name="uni0923" unicode="&#x923;" horiz-adv-x="783" 
d="M823 538h-186l76 -52v-505l-54 -27l-132 69v515h-142l76 -52v-184q0 -94 -42 -141t-110 -47q-98 0 -186 80t-92 172v172h-51l-65 83l25 49h843l65 -83zM282 538h-145l70 -52v-228q11 -9 28 -9q47 0 47 55v234z" />
    <glyph glyph-name="uni0924" unicode="&#x924;" horiz-adv-x="645" 
d="M685 538h-186l76 -52v-505l-54 -27l-132 69v256h-91q-44 0 -68 -20t-24 -53q0 -34 27 -71.5t89 -99.5l-98 -83q-99 94 -151 171.5t-52 150.5q0 80 59.5 130.5t161.5 51.5h147v82h-389l-65 83l25 49h685l65 -83z" />
    <glyph glyph-name="uni0925" unicode="&#x925;" horiz-adv-x="691" 
d="M731 538h-186l76 -52v-505l-54 -27l-132 69v57q-42 -17 -86 -17q-100 0 -191 74.5t-143 198.5l21 56q218 25 218 132q0 20 -10 39q-8 5 -20 5q-18 0 -33 -13.5t-15 -37.5q0 -30 23 -56l-69 -42q-107 74 -107 150q0 51 42 88t102 37q90 0 166 -77.5t76 -166.5
q0 -65 -47.5 -121.5t-149.5 -84.5l26 -47q63 5 117 33.5t80 74.5v233l-65 83l25 49h296l65 -83z" />
    <glyph glyph-name="uni0926" unicode="&#x926;" horiz-adv-x="629" 
d="M669 538h-234l76 -52v-191h-183q-62 0 -94.5 -27.5t-32.5 -67.5q0 -34 23 -65q33 -15 67 -15q41 0 87 22l-11 81l113 39l134 -168q-24 -45 -75 -79l99 -170l-175 -71l-39 188l-51 -5q-75 0 -157 40.5t-137 109.5t-55 151q0 95 66.5 151t180.5 56h66v73h-337l-65 83l25 49
h669l65 -83z" />
    <glyph glyph-name="uni0927" unicode="&#x927;" horiz-adv-x="725" 
d="M765 538h-186l76 -52v-505l-54 -27l-132 69v54q-39 -14 -83 -14q-107 0 -200 70.5t-93 159.5q0 47 28 89q-111 80 -111 174q0 61 46.5 103.5t115.5 42.5t117.5 -41t97.5 -119l-69 -58q-39 54 -54 69l-16 1q-28 0 -47 -17.5t-19 -45.5q0 -24 15 -46q42 21 99 21
q34 0 66 -7l72 -119l-25 -49l-28 2q-53 0 -84.5 -22t-30.5 -50q0 -9 4 -16l24 -3q47 0 99 31t76 72v233l-65 83l25 49h296l65 -83z" />
    <glyph glyph-name="uni0928" unicode="&#x928;" horiz-adv-x="630" 
d="M670 538h-186l76 -52v-505l-54 -27l-132 69v245h-112v-102l-72 -36q-63 31 -118.5 105.5t-64.5 140.5l36 58h331v104h-374l-65 83l25 49h670l65 -83z" />
    <glyph glyph-name="uni0929" unicode="&#x929;" horiz-adv-x="630" 
d="M670 538h-186l76 -52v-505l-54 -27l-132 69v245h-112v-102l-72 -36q-63 31 -118.5 105.5t-64.5 140.5l36 58h331v104h-374l-65 83l25 49h670l65 -83zM243 -141q-28 11 -64 38t-54 53q41 83 95 115q29 -11 62 -38.5t52 -52.5q-12 -31 -38 -64t-53 -51z" />
    <glyph glyph-name="uni092A" unicode="&#x92a;" horiz-adv-x="633" 
d="M673 538h-186l76 -52v-505l-54 -27l-132 69v87q-21 -7 -46 -7q-60 0 -131.5 42.5t-120.5 107t-49 125.5v160h-30l-65 83l25 49h673l65 -83zM377 538h-226l76 -52v-223q13 -4 33 -4q37 0 69 19.5t48 57.5v202z" />
    <glyph glyph-name="uni092B" unicode="&#x92b;" horiz-adv-x="869" 
d="M909 538h-452l76 -52v-53q49 31 101 31q86 0 149 -69.5t63 -158.5q0 -140 -172 -253l-129 132q74 57 107.5 91t33.5 64q0 24 -23 24q-48 0 -130 -91v-222l-54 -27l-132 69v100q-101 0 -204 92t-103 186v137h-40l-65 83l25 49h909l65 -83zM347 538h-186l76 -52v-203
q16 -8 35 -8q43 0 75 34v229z" />
    <glyph glyph-name="uni092C" unicode="&#x92c;" horiz-adv-x="666" 
d="M706 538h-186l76 -52v-505l-54 -27l-132 69v45q-29 -10 -66 -10q-69 0 -145.5 34.5t-128 94.5t-51.5 131q0 78 57.5 132t143.5 54q27 0 57 -6l133 -63v103h-410l-65 83l25 49h706l65 -83zM410 335q-48 23 -89 23l-19 -1l83 -120q13 11 25 29v69zM223 199q20 -6 41 -6
q31 0 60 10l-87 124q-31 -29 -31 -72q0 -32 17 -56z" />
    <glyph glyph-name="uni092D" unicode="&#x92d;" horiz-adv-x="717" 
d="M747 538h-186l76 -52v-505l-54 -27l-132 69v172h-100v-86l-65 -37q-67 19 -140 88.5t-91 132.5l36 58h82l-1 149q0 45 -11 63q-26 1 -44.5 -14t-18.5 -38q0 -33 38 -64l-67 -51q-119 84 -119 163q0 56 41.5 95.5t103.5 39.5q94 0 175 -79t81 -173v-91h100v187l-65 83
l25 49h296l65 -83z" />
    <glyph glyph-name="uni092E" unicode="&#x92e;" horiz-adv-x="704" 
d="M744 538h-186l76 -52v-505l-54 -27l-132 69v165h-144v-81l-65 -37q-67 19 -140 88.5t-91 132.5l36 58h82l-8 189h-118l-65 83l25 49h744l65 -83zM448 538h-220l76 -52v-137h144v189z" />
    <glyph glyph-name="uni092F" unicode="&#x92f;" horiz-adv-x="681" 
d="M721 538h-186l76 -52v-505l-54 -27l-132 69v56q-35 -16 -76 -16q-100 0 -191 74.5t-143 198.5l21 56q152 18 152 73q0 36 -55 73h-133l-65 83l25 49h721l65 -83zM425 538h-153q89 -73 89 -151q0 -108 -143 -145l20 -45q58 0 109 30.5t78 77.5v233z" />
    <glyph glyph-name="uni0930" unicode="&#x930;" horiz-adv-x="505" 
d="M545 538h-232l76 -52v-132q0 -51 -25.5 -83t-84.5 -69l206 -114v-54l-124 -103l-342 332l38 100h139v175h-196l-65 83l25 49h545l65 -83z" />
    <glyph glyph-name="uni0931" unicode="&#x931;" horiz-adv-x="505" 
d="M545 538h-232l76 -52v-132q0 -51 -25.5 -83t-84.5 -69l206 -114v-54l-124 -103l-342 332l38 100h139v175h-196l-65 83l25 49h545l65 -83zM149 -171q-28 11 -64 38t-54 53q41 83 95 115q29 -11 62 -38.5t52 -52.5q-12 -31 -38 -64t-53 -51z" />
    <glyph glyph-name="uni0932" unicode="&#x932;" horiz-adv-x="788" 
d="M828 538h-186l76 -52v-505l-54 -27l-132 69v312q-66 -60 -66 -184l-43 -30l-138 83q-1 61 19 113l-16 1q-34 0 -57.5 -23t-23.5 -63q0 -50 43 -92t142 -100l-71 -95q-309 162 -309 355q0 79 52.5 130.5t130.5 51.5q33 0 59 -10l99 -81q69 69 179 73v74h-532l-65 83l25 49
h828l65 -83z" />
    <glyph glyph-name="uni0932.MAR" horiz-adv-x="790" 
d="M830 538h-286l76 -52v-38q61 -28 103.5 -83.5t42.5 -130.5q0 -161 -193 -299l-142 119q82 62 126.5 126t44.5 110q0 25 -11.5 42t-31.5 17q-38 0 -65.5 -59.5t-27.5 -138.5l-43 -30l-138 83q-2 65 18 113l-15 1q-34 0 -57.5 -23t-23.5 -63q0 -50 43 -92t142 -100l-71 -95
q-309 162 -309 355q0 79 52.5 130.5t130.5 51.5q33 0 59 -10l97 -79q33 35 83 54v91h-434l-65 83l25 49h830l65 -83z" />
    <glyph glyph-name="uni0933" unicode="&#x933;" horiz-adv-x="810" 
d="M850 538h-285l76 -52v-65q68 -35 111 -107t43 -151q0 -90 -54 -148t-137 -58q-65 0 -111 27l-72 75q-39 -55 -74.5 -78.5t-84.5 -23.5q-100 0 -172.5 81t-72.5 193q0 100 59 166t149 66l28 -2l47 -15l97 -100q31 52 58 73v119h-455l-65 83l25 49h850l65 -83zM540 97
q41 0 66.5 34.5t25.5 80.5q0 69 -52 107l-112 -187q35 -35 72 -35zM228 71q58 76 120 188q-37 37 -74 37q-41 0 -66.5 -35.5t-25.5 -77.5q0 -28 12 -60.5t34 -51.5z" />
    <glyph glyph-name="uni0934" unicode="&#x934;" horiz-adv-x="810" 
d="M850 538h-285l76 -52v-65q68 -35 111 -107t43 -151q0 -90 -54 -148t-137 -58q-65 0 -111 27l-72 75q-39 -55 -74.5 -78.5t-84.5 -23.5q-100 0 -172.5 81t-72.5 193q0 100 59 166t149 66l28 -2l47 -15l97 -100q31 52 58 73v119h-455l-65 83l25 49h850l65 -83zM540 97
q41 0 66.5 34.5t25.5 80.5q0 69 -52 107l-112 -187q35 -35 72 -35zM228 71q58 76 120 188q-37 37 -74 37q-41 0 -66.5 -35.5t-25.5 -77.5q0 -28 12 -60.5t34 -51.5zM427 -209q-28 11 -64 38t-54 53q41 83 95 115q29 -11 62 -38.5t52 -52.5q-12 -31 -38 -64t-53 -51z" />
    <glyph glyph-name="uni0935" unicode="&#x935;" horiz-adv-x="665" 
d="M705 538h-186l76 -52v-505l-54 -27l-132 69v54q-34 -13 -67 -13q-68 0 -144 32.5t-127 90.5t-51 129q0 77 56 129.5t142 52.5q26 0 58 -6l133 -58v104h-409l-65 83l25 49h705l65 -83zM232 205l19 -1q47 0 89 22t69 59v52q-36 16 -80 16q-52 0 -81.5 -29.5t-29.5 -69.5
q0 -26 14 -49z" />
    <glyph glyph-name="uni0936" unicode="&#x936;" horiz-adv-x="857" 
d="M897 538h-186l76 -52v-505l-54 -27l-132 69v515h-125q57 -71 57 -156q0 -74 -51.5 -143t-142.5 -109l165 -48l9 -55l-114 -115l-212 169q-88 5 -142 50l47 150l53 11l54 -49q45 18 77 40q-93 25 -151 78t-58 120q0 29 11 57h-78l-65 83l25 49h897l65 -83zM309 538
q-26 0 -41.5 -19t-15.5 -48q0 -36 23 -68t70 -47q27 44 27 97q0 85 -63 85z" />
    <glyph glyph-name="uni0936.MAR" horiz-adv-x="857" 
d="M897 538h-186l76 -52v-505l-54 -27l-132 69v515h-205v-60q62 -38 102 -100.5t40 -126.5q0 -62 -39 -119t-120 -91l146 -82v-55l-79 -59l-248 169q-94 9 -144 42l56 166l50 9l47 -50q63 12 109 53.5t46 81.5q0 27 -21 51q-90 -14 -234 -114l-93 166q85 74 196 96v23h-210
l-65 83l25 49h897l65 -83z" />
    <glyph glyph-name="uni0937" unicode="&#x937;" horiz-adv-x="663" 
d="M703 538h-186l76 -52v-505l-54 -27l-132 69v90q-28 -9 -57 -9q-65 0 -141 40t-127.5 103.5t-51.5 130.5v160h-30l-65 83l25 49h703l65 -83zM407 538h-138l137 -197q1 0 1 2v195zM262 257q53 0 95 28l-135 194v-216q18 -6 40 -6z" />
    <glyph glyph-name="uni0938" unicode="&#x938;" horiz-adv-x="809" 
d="M849 538h-186l76 -52v-505l-54 -27l-132 69v187h-271l-13 -8l206 -114v-54l-124 -103l-342 332l38 100h139v175h-196l-65 83l25 49h859l65 -83zM553 538h-250l76 -52v-127h174v179z" />
    <glyph glyph-name="uni0939" unicode="&#x939;" horiz-adv-x="610" 
d="M650 538h-193l76 -52v-147h-276q-63 0 -63 -39l2 -13q50 18 108 18q113 0 192.5 -59.5t79.5 -146.5q0 -94 -96 -157l-148 102q80 63 103 110q-30 10 -62 10q-53 0 -89.5 -28t-36.5 -74q0 -55 59.5 -92.5t237.5 -72.5l-35 -118q-207 37 -329.5 124t-122.5 201q0 80 58 135
q-74 62 -74 131q0 51 43.5 87t122.5 36h160v45h-367l-65 83l25 49h650l65 -83z" />
    <glyph glyph-name="uni0958" unicode="&#x958;" horiz-adv-x="845" 
d="M186 -124q-28 11 -64 38t-54 53q41 83 95 115q29 -11 62 -38.5t52 -52.5q-12 -31 -38 -64t-53 -51zM885 538h-443l76 -52v-59q48 32 102 32q86 0 149 -69.5t63 -158.5q0 -140 -172 -253l-129 132q74 57 107.5 91t33.5 64q0 24 -23 24q-48 0 -131 -92v-216l-54 -27
l-132 69v62l-35 -3q-59 0 -124 27t-109.5 78t-44.5 119q0 76 51.5 126.5t134.5 50.5l44 -3l83 -45v103h-332l-65 83l25 49h885l65 -83zM216 208q69 14 116 73v60q-19 6 -37 6q-42 0 -68 -29t-26 -65q0 -27 15 -45z" />
    <glyph glyph-name="uni0959" unicode="&#x959;" horiz-adv-x="920" 
d="M960 538h-186l76 -52v-505l-54 -27l-89 46q-87 -56 -213 -56q-149 0 -278 89t-197 240l38 90l139 -1v176h-196l-65 83l25 49h960l65 -83zM664 538h-361l76 -52v-105q15 49 55 81t99 32l47 -5l84 -52v101zM664 361q-22 7 -44 7q-42 0 -66.5 -26.5t-24.5 -59.5
q0 -23 12 -38l14 -1q63 0 109 57v61zM478 78q108 0 186 47v6l-35 -3q-91 0 -168 51t-88 127q-15 -48 -80 -89l-51 -31q36 -53 99 -80.5t137 -27.5zM196 -196q-28 11 -64 38t-54 53q41 83 95 115q29 -11 62 -38.5t52 -52.5q-12 -31 -38 -64t-53 -51z" />
    <glyph glyph-name="uni095A" unicode="&#x95a;" horiz-adv-x="690" 
d="M730 538h-186l76 -52v-505l-54 -27l-132 69v515h-206l76 -52v-361l-65 -37q-67 19 -138.5 83.5t-92.5 127.5l36 58h79l-4 181h-119l-65 83l25 49h730l65 -83zM304 -135q-28 11 -64 38t-54 53q41 83 95 115q29 -11 62 -38.5t52 -52.5q-12 -31 -38 -64t-53 -51z" />
    <glyph glyph-name="uni095B" unicode="&#x95b;" horiz-adv-x="770" 
d="M810 538h-186l76 -52v-505l-54 -27l-132 69v278h-98q53 -56 53 -124t-45 -111.5t-117 -43.5q-115 0 -193.5 105.5t-123.5 279.5l116 39q43 -145 75 -191.5t73 -46.5q29 0 44.5 17t15.5 42q0 52 -49 77l-69 22v91h318v81h-514l-65 83l25 49h810l65 -83zM343 -199
q-28 11 -64 38t-54 53q41 83 95 115q29 -11 62 -38.5t52 -52.5q-12 -31 -38 -64t-53 -51z" />
    <glyph glyph-name="uni095C" unicode="&#x95c;" horiz-adv-x="630" 
d="M670 538h-203l76 -52v-133h-252q-72 0 -72 -34q0 -17 20 -32l186 38q88 -32 131 -91.5t43 -122.5q0 -80 -61.5 -134t-157.5 -54q-203 0 -376 256l78 66q111 -166 248 -166q49 0 92.5 21.5t52.5 62.5l-145 -45q-122 43 -195 109.5t-73 140.5q0 60 49 97t144 37h122v36
h-377l-65 83l25 49h670l65 -83zM361 -293q-28 11 -64 38t-54 53q41 83 95 115q29 -11 62 -38.5t52 -52.5q-12 -31 -38 -64t-53 -51z" />
    <glyph glyph-name="uni095D" unicode="&#x95d;" horiz-adv-x="649" 
d="M689 538h-231l76 -52v-188h-199q-65 0 -101 -35t-36 -85q0 -51 33 -88q56 -30 126 -30l-71 47q-15 34 -15 66q0 53 39 83t98 30q85 0 149 -61.5t64 -137.5q0 -72 -60.5 -123.5t-149.5 -51.5q-83 0 -174 45.5t-152 122.5t-61 165q0 99 70.5 159.5t188.5 60.5h72v73h-355
l-65 83l25 49h689l65 -83zM429 132q0 -25 14 -53q49 26 49 67q0 35 -27 35q-14 0 -25 -13t-11 -36zM394 -304q-28 11 -64 38t-54 53q41 83 95 115q29 -11 62 -38.5t52 -52.5q-12 -31 -38 -64t-53 -51z" />
    <glyph glyph-name="uni095E" unicode="&#x95e;" horiz-adv-x="869" 
d="M909 538h-452l76 -52v-53q49 31 101 31q86 0 149 -69.5t63 -158.5q0 -140 -172 -253l-129 132q74 57 107.5 91t33.5 64q0 24 -23 24q-48 0 -130 -91v-222l-54 -27l-132 69v100q-101 0 -204 92t-103 186v137h-40l-65 83l25 49h909l65 -83zM347 538h-186l76 -52v-203
q16 -8 35 -8q43 0 75 34v229zM199 -85q-28 11 -64 38t-54 53q41 83 95 115q29 -11 62 -38.5t52 -52.5q-12 -31 -38 -64t-53 -51z" />
    <glyph glyph-name="uni095F" unicode="&#x95f;" horiz-adv-x="681" 
d="M721 538h-186l76 -52v-505l-54 -27l-132 69v56q-35 -16 -76 -16q-100 0 -191 74.5t-143 198.5l21 56q152 18 152 73q0 36 -55 73h-133l-65 83l25 49h721l65 -83zM425 538h-153q89 -73 89 -151q0 -108 -143 -145l20 -45q58 0 109 30.5t78 77.5v233zM228 -136
q-28 11 -64 38t-54 53q41 83 95 115q29 -11 62 -38.5t52 -52.5q-12 -31 -38 -64t-53 -51z" />
    <glyph glyph-name="uni0979" unicode="&#x979;" horiz-adv-x="770" 
d="M810 538h-186l76 -52v-505l-54 -27l-132 69v278h-98q53 -56 53 -124t-45 -111.5t-117 -43.5q-115 0 -193.5 105.5t-123.5 279.5l116 39q43 -145 75 -191.5t73 -46.5q29 0 44.5 17t15.5 42q0 52 -49 77l-69 22v91h318v81h-514l-65 83l25 49h810l65 -83zM198 -193
q-28 11 -64 38t-54 53q41 83 95 115q29 -11 62 -38.5t52 -52.5q-12 -31 -38 -64t-53 -51zM330 -328q-28 11 -64 38t-54 53q41 83 95 115q29 -11 62 -38.5t52 -52.5q-12 -31 -38 -64t-53 -51zM459 -193q-28 11 -64 38t-54 53q41 83 95 115q29 -11 62 -38.5t52 -52.5
q-12 -31 -38 -64t-53 -51z" />
    <glyph glyph-name="uni097A" unicode="&#x97a;" horiz-adv-x="681" 
d="M721 538h-186l76 -52v-505l-54 -27l-132 69v56q-35 -16 -76 -16q-100 0 -191 74.5t-143 198.5l21 56q152 18 152 73q0 36 -55 73h-133l-65 83l25 49h721l65 -83zM425 538h-153q89 -73 89 -151v-11l64 -55v217zM238 197q76 0 136 49l-55 47q-35 -33 -101 -51z" />
    <glyph glyph-name="uni097B" unicode="&#x97b;" horiz-adv-x="690" 
d="M730 538h-186l76 -52v-596l-35 -49h-462l-65 83l25 49h351v565h-206l76 -52v-361l-65 -37q-67 19 -138.5 83.5t-92.5 127.5l36 58h79l-4 181h-119l-65 83l25 49h730l65 -83z" />
    <glyph glyph-name="uni097C" unicode="&#x97c;" horiz-adv-x="770" 
d="M810 538h-186l76 -52v-596l-35 -49h-532l-65 83l25 49h421v328h-98q53 -56 53 -124t-45 -111.5t-117 -43.5q-115 0 -193.5 105.5t-123.5 279.5l116 39q43 -145 75 -191.5t73 -46.5q29 0 44.5 17t15.5 42q0 52 -49 77l-69 22v91h318v81h-514l-65 83l25 49h810l65 -83z" />
    <glyph glyph-name="uni097E" unicode="&#x97e;" horiz-adv-x="630" 
d="M695 587l-25 -49h-203l76 -52v-133h-252q-72 0 -72 -34q0 -17 20 -32l186 38q88 -32 131 -91.5t43 -122.5q0 -80 -61.5 -134t-157.5 -54q-203 0 -376 256l78 66q111 -166 248 -166q49 0 92.5 21.5t52.5 62.5l-145 -45q-122 43 -195 109.5t-73 140.5q0 60 49 97t144 37
h122v36h-377l-65 83l25 49h670zM561 -110l65 -83l-25 -49h-463l-65 83l25 49h463z" />
    <glyph glyph-name="uni097F" unicode="&#x97f;" horiz-adv-x="666" 
d="M706 538h-186l76 -52v-596l-35 -49h-432l-65 83l25 49h321v95q-29 -10 -66 -10q-69 0 -145.5 34.5t-128 94.5t-51.5 131q0 78 57.5 132t143.5 54q27 0 57 -6l133 -63v103h-410l-65 83l25 49h706l65 -83zM410 335q-48 23 -89 23l-19 -1l83 -120q13 11 25 29v69zM223 199
q20 -6 41 -6q31 0 60 10l-87 124q-31 -29 -31 -72q0 -32 17 -56z" />
    <glyph glyph-name="uni093D" unicode="&#x93d;" horiz-adv-x="580" 
d="M239 454q0 -17 18.5 -29.5t55.5 -31.5q222 -111 222 -258q0 -75 -57 -128t-144 -53q-96 0 -171.5 64t-110.5 171l104 59q48 -145 146 -145q32 0 55.5 17.5t23.5 48.5q0 27 -22 48t-87 61.5t-106.5 71t-65.5 65t-24 77.5q0 66 55 105.5t145 39.5h169l69 -106l-25 -47h-185
q-65 0 -65 -30z" />
    <glyph glyph-name="uni097D" unicode="&#x97d;" horiz-adv-x="607" 
d="M557 388q0 -131 -164 -208v-199l-54 -27l-129 69v293q87 15 129 53t42 79q0 25 -14 42q-37 -4 -93.5 -27t-104.5 -53l-83 177q100 76 199 76q102 0 187 -87t85 -188z" />
    <glyph glyph-name="uni093E" unicode="&#x93e;" horiz-adv-x="316" 
d="M356 538h-186l76 -52v-505l-54 -27l-132 69v515h-60l-65 83l25 49h356l65 -83z" />
    <glyph glyph-name="uni093F" unicode="&#x93f;" horiz-adv-x="316" 
d="M332 863q-75 0 -124 -31.5t-49 -87.5q0 -36 25 -74h132l65 -83l-25 -49h-176l76 -52v-505l-54 -27l-132 69v515h-70l-65 83l25 49h112q-66 68 -66 155q0 93 71.5 150t179.5 57q106 0 249 -65t302 -214l-57 -74q-110 86 -218 135t-201 49z" />
    <glyph glyph-name="uni0940" unicode="&#x940;" horiz-adv-x="316" 
d="M356 538h-186l76 -52v-505l-54 -27l-132 69v515h-60l-65 83l25 49h107q-34 91 -70.5 143.5t-94.5 52.5q-38 0 -63 -23.5t-25 -58.5t26 -71l-74 -37q-99 75 -99 184q0 75 52.5 125t136.5 50q126 0 205 -102.5t130 -262.5h125l65 -83z" />
    <glyph glyph-name="uni0941" unicode="&#x941;" 
d="M-361 -60q26 46 70 73.5t92 27.5q78 0 140 -65.5t62 -146.5q0 -74 -53.5 -123.5t-136.5 -49.5q-172 0 -366 244l80 75l98 -103q78 -77 145 -77q43 0 71 25t28 59q0 27 -18 51l-102 -96z" />
    <glyph glyph-name="uni0942" unicode="&#x942;" 
d="M-47 -271q-63 -70 -139 -70q-82 0 -148.5 61t-66.5 140q0 72 56 123t138 51q126 0 243 -150q52 -67 114 -162l-85 -73q-84 120 -113 156.5t-58 57t-63 20.5q-39 0 -68 -26.5t-29 -60.5q0 -18 9 -28l116 72z" />
    <glyph glyph-name="uni0943" unicode="&#x943;" 
d="M-70 -67q-61 -14 -114 -44.5t-53 -59.5t39 -29q32 0 82.5 26.5t85.5 57.5l73 -160q-35 -36 -85.5 -55.5t-97.5 -19.5q-94 0 -171 65t-77 153q0 89 82 146.5t215 63.5h21v-144z" />
    <glyph glyph-name="uni0944" unicode="&#x944;" 
d="M118 -367q-70 -75 -168 -75q-85 0 -151 56.5t-66 127.5q0 19 6 36q-116 43 -116 132q0 73 75.5 109t194.5 56h37v-142q-59 -8 -111.5 -30t-52.5 -45q0 -13 16 -21q58 47 181 68l64 -90l-27 -52q-132 -27 -132 -59q0 -15 23 -15q29 0 75.5 24.5t67.5 51.5z" />
    <glyph glyph-name="uni0962" unicode="&#x962;" 
d="M209 -328q-29 -55 -84 -55q-41 0 -73.5 30t-32.5 69q0 29 34 70l24 29q14 17 14 31q0 23 -19 23q-16 0 -31 -24t-19 -71l-86 6q-2 37 9 73q-10 7 -22 7q-30 0 -30 -35q0 -23 17 -43t54 -47l-49 -47q-123 77 -123 164q0 44 29 72.5t69 28.5q49 0 82 -45q33 43 86 43
q48 0 80.5 -34t32.5 -78q0 -50 -39 -93q-37 -37 -37 -51q0 -12 11 -12q9 0 23 12t23 26z" />
    <glyph glyph-name="uni0963" unicode="&#x963;" 
d="M225 -390q-31 -51 -79 -51q-31 0 -56.5 20.5t-25.5 58.5q-61 26 -61 78q0 29 34 70l24 29q14 17 14 31q0 23 -19 23q-16 0 -31 -24t-19 -71l-86 6q-2 37 9 73q-10 7 -22 7q-30 0 -30 -35q0 -23 17 -43t54 -47l-49 -47q-123 77 -123 164q0 44 29 72.5t69 28.5q49 0 82 -45
q33 43 86 43q48 0 80.5 -34t32.5 -78q0 -50 -39 -93q-37 -37 -37 -51q0 -5 4 -9q21 22 63 34l30 -53q-30 -7 -46.5 -20.5t-16.5 -22.5q0 -11 13 -11q28 0 52 34z" />
    <glyph glyph-name="uni0945" unicode="&#x945;" 
d="M28 910q-15 -89 -68.5 -145t-139.5 -56q-82 0 -153 53.5t-110 153.5l83 66q31 -64 62.5 -91.5t73.5 -27.5q93 0 113 121z" />
    <glyph glyph-name="uni0946" unicode="&#x946;" 
d="M-511 1066q13 -94 105 -118l67 -13q75 -13 121.5 -33.5t79.5 -81t34 -178.5h-111q-4 76 -78 98l-74 17q-78 14 -127.5 36t-85 84t-35.5 179z" />
    <glyph glyph-name="uni0947" unicode="&#x947;" 
d="M-628 951q87 53 165 53q79 0 144 -53.5t123 -150.5l90 -151l-100 -46l-75 134q-46 79 -109 79q-56 0 -141 -57z" />
    <glyph glyph-name="uni0948" unicode="&#x948;" 
d="M-92 608l-100 -35l-122 127q-50 51 -100 51q-47 0 -135 -53l-85 153q87 60 158 60q87 0 180 -109l89 -112l-45 108q-35 84 -69.5 120.5t-90.5 36.5q-46 0 -115 -24l-67 184q74 28 133 28q93 0 157 -67t117 -206z" />
    <glyph glyph-name="uni0949" unicode="&#x949;" horiz-adv-x="316" 
d="M356 538h-186l76 -52v-505l-54 -27l-132 69v515h-60l-65 83l25 49h356l65 -83zM226 910q-15 -89 -68.5 -145t-139.5 -56q-82 0 -153 53.5t-110 153.5l83 66q31 -64 62.5 -91.5t73.5 -27.5q93 0 113 121z" />
    <glyph glyph-name="uni094A" unicode="&#x94a;" horiz-adv-x="316" 
d="M356 538h-186l76 -52v-505l-54 -27l-132 69v515h-60l-65 83l25 49h129q-8 34 -36.5 53t-116.5 35t-132 40q-111 60 -111 258l104 10q13 -94 105 -118l55 -11q118 -19 158.5 -50t62 -82.5t25.5 -134.5h113l65 -83z" />
    <glyph glyph-name="uni094B" unicode="&#x94b;" horiz-adv-x="316" 
d="M356 538h-186l76 -52v-505l-54 -27l-132 69v515h-60l-65 83l25 49h91l-32 57q-46 79 -109 79q-56 0 -141 -57l-97 192q87 53 165 53q79 0 143.5 -53t123.5 -151l72 -120h140l65 -83z" />
    <glyph glyph-name="uni094C" unicode="&#x94c;" horiz-adv-x="316" 
d="M356 538h-186l76 -52v-505l-54 -27l-132 69v515h-60l-65 83l25 49h81l-29 30q-50 51 -100 51q-47 0 -135 -53l-85 153q87 60 158 60q87 0 180 -109l89 -111l-45 107q-35 84 -69.5 120.5t-90.5 36.5q-46 0 -115 -24l-67 184q74 28 133 28q97 0 163 -73.5t119 -221.5
l64 -178h105l65 -83z" />
    <glyph glyph-name="uni0956" unicode="&#x956;" 
d="M-499 -64q65 -65 166 -65q117 0 192 75l83 -134q-31 -42 -91.5 -68.5t-128.5 -26.5q-80 0 -151.5 39.5t-116.5 123.5z" />
    <glyph glyph-name="uni0957" unicode="&#x957;" 
d="M-499 -294q65 -65 166 -65q117 0 192 75l83 -134q-31 -42 -91.5 -68.5t-128.5 -26.5q-80 0 -151.5 39.5t-116.5 123.5zM-499 -64q65 -65 166 -65q117 0 192 75l83 -134q-31 -42 -91.5 -68.5t-128.5 -26.5q-80 0 -151.5 39.5t-116.5 123.5z" />
    <glyph glyph-name="uni093A" unicode="&#x93a;" 
d="M-115 584l-31 -20l-97 47v244h128v-271z" />
    <glyph glyph-name="uni093B" unicode="&#x93b;" horiz-adv-x="316" 
d="M356 538h-186l76 -52v-505l-54 -27l-132 69v515h-60l-65 83l25 49h107v185h128v-185h121l65 -83z" />
    <glyph glyph-name="uni094F" unicode="&#x94f;" horiz-adv-x="316" 
d="M356 538h-186l76 -52v-505l-54 -27l-132 69v515h-60l-65 83l25 49h119q-7 35 -40 37l-129 1q-96 0 -157.5 59t-61.5 149l103 29q21 -113 96.5 -113t94.5 -2l32 -4l2 9q-8 5 -71 28q-53 21 -81 60.5t-28 86.5t25 90l108 -16q-13 -30 -13 -52q0 -37 55 -66l64 -34
q65 -34 96 -96t31 -132l-2 -34h113l65 -83z" />
    <glyph glyph-name="uni0955" unicode="&#x955;" horiz-adv-x="373" 
d="M397 910q-15 -89 -68.5 -145t-139.5 -56q-82 0 -153 53.5t-110 153.5l83 66q31 -64 62.5 -91.5t73.5 -27.5q93 0 113 121zM-65 621l25 49h413l65 -83l-25 -49h-413z" />
    <glyph glyph-name="uni094D" unicode="&#x94d;" 
d="M-118 -208l-104 -54l-105 109q79 72 157 72q71 0 139 -64l161 -153l-68 -71z" />
    <glyph glyph-name="uni0900" unicode="&#x900;" 
d="M-507 899q16 90 79.5 145.5t148.5 55.5q91 0 169 -57.5t114 -149.5l-83 -66q-57 119 -156 119q-49 0 -86.5 -32t-46.5 -89zM-218 896q26 -17 50.5 -48.5t35.5 -61.5q-18 -24 -49 -50t-59 -37q-49 29 -91 110q18 24 52 50t61 37z" />
    <glyph glyph-name="uni0901" unicode="&#x901;" 
d="M-238 883q-27 11 -61 37t-52 50q42 81 91 110q28 -11 59 -37t49 -50q-11 -30 -35.5 -61.5t-50.5 -48.5zM24 900q-16 -90 -79.5 -145.5t-148.5 -55.5q-91 0 -169 57.5t-114 149.5l83 66q57 -119 156 -119q49 0 86.5 32t46.5 89z" />
    <glyph glyph-name="uni0902" unicode="&#x902;" 
d="M0 730q-30 11 -67.5 39.5t-56.5 55.5q44 88 100 121q31 -12 65 -40.5t54 -54.5q-13 -33 -40 -67.5t-55 -53.5z" />
    <glyph glyph-name="uni0903" unicode="&#x903;" horiz-adv-x="366" 
d="M184 293q-28 11 -64 38t-54 53q41 83 95 115q29 -11 62 -38.5t52 -52.5q-12 -31 -38 -64t-53 -51zM191 16q-28 11 -64 38t-54 53q41 83 95 115q29 -11 62 -38.5t52 -52.5q-12 -31 -38 -64t-53 -51z" />
    <glyph glyph-name="uni093C" unicode="&#x93c;" 
d="M23 -206q-28 11 -64 38t-54 53q41 83 95 115q29 -11 62 -38.5t52 -52.5q-12 -31 -38 -64t-53 -51z" />
    <glyph glyph-name="uni0951" unicode="&#x951;" 
d="M-101 736l-31 -20l-97 47v244l31 20l97 -47v-244z" />
    <glyph glyph-name="uni0952" unicode="&#x952;" 
d="M-411 -127l20 31h314l47 -97l-20 -31h-314z" />
    <glyph glyph-name="uni0953" unicode="&#x953;" 
d="M-68 793l-64 -73h-42l-183 184l68 71h42z" />
    <glyph glyph-name="uni0954" unicode="&#x954;" 
d="M-231 720l-68 71l183 184h42l64 -77l-179 -178h-42z" />
    <glyph glyph-name="uni0971" unicode="&#x971;" horiz-adv-x="415" 
d="M222 499q-30 11 -67.5 39.5t-56.5 55.5q44 88 100 121q31 -12 65 -40.5t54 -54.5q-13 -33 -40 -67.5t-55 -53.5z" />
    <glyph glyph-name="uni0930094D" 
d="M-182 591q-171 127 -171 249q0 67 50.5 115t124.5 48q49 0 93.5 -21t72.5 -53l-25 -86q-34 16 -69 16q-43 0 -72.5 -23.5t-29.5 -67.5q0 -38 22 -70t72 -84z" />
    <glyph glyph-name="uni0930094D.MAR" horiz-adv-x="300" 
d="M-65 621l25 49h337l65 -83l-25 -49h-337zM450 205q-71 -79 -180 -79q-81 0 -160 49t-135 144l79 94q77 -108 176 -108q64 0 106 44h45z" />
    <glyph glyph-name="uni094D0930" 
d="M170 -270l-123 129l-106 -127l-122 99l183 199h53l204 -218z" />
    <glyph glyph-name="uni0915094D0930" horiz-adv-x="845" 
d="M885 538h-443l76 -52v-59q48 32 102 32q86 0 149 -69.5t63 -158.5q0 -140 -172 -253l-129 132q74 57 107.5 91t33.5 64q0 24 -23 24q-48 0 -131 -92v-216l-54 -27l-132 69v58l-211 -148l-133 109l143 92q-112 70 -112 180q0 75 49 123.5t126 48.5q25 0 55 -6l83 -45v103
h-332l-65 83l25 49h885l65 -83zM293 347q-40 0 -61.5 -23.5t-21.5 -56.5q0 -28 16 -52q66 13 106 65v61q-19 6 -39 6z" />
    <glyph glyph-name="uni0915094D0930.ss03" horiz-adv-x="902" 
d="M942 538h-443l76 -52v-60q45 28 96 28q86 0 149 -69.5t63 -158.5q0 -140 -172 -253l-129 132q74 57 107.5 91t33.5 64q0 24 -23 24q-48 0 -125 -86v-217l-54 -27l-132 69v106l-166 -130l-128 150l240 156q-30 26 -58 26q-24 0 -55.5 -18.5t-108.5 -72.5l-113 173
q116 86 188 86q75 0 158 -79l43 -41v159h-389l-65 83l25 49h942l65 -83z" />
    <glyph glyph-name="uni0916094D0930" horiz-adv-x="920" 
d="M960 538h-186l76 -52v-535l-54 -27l-106 56l-284 -188l-103 99l113 65q-118 19 -222.5 99.5t-174.5 217.5l38 90l139 -1v176h-196l-65 83l25 49h960l65 -83zM664 538h-361l76 -52v-105q15 49 55 81t99 32l47 -5l84 -52v101zM664 361q-22 7 -44 7q-42 0 -66.5 -26.5
t-24.5 -59.5q0 -23 12 -38l14 -1q63 0 109 57v61zM243 187q38 -56 103.5 -82.5t138.5 -26.5q103 0 179 47v6l-35 -3q-91 0 -168 51t-88 127q-15 -48 -80 -89z" />
    <glyph glyph-name="uni0917094D0930" horiz-adv-x="690" 
d="M730 538h-186l76 -52v-505l-54 -27l-132 69v32l-203 -153l-126 93l329 238v305h-206l76 -52v-315l-65 -43q-67 19 -138.5 83.5t-92.5 127.5l36 58h79l-3 141h-120l-65 83l25 49h730l65 -83z" />
    <glyph glyph-name="uni0918094D0930" horiz-adv-x="728" 
d="M768 538h-186l76 -52v-505l-54 -27l-132 69v63l-234 -181l-133 109l132 89l-13 7q-57 33 -92.5 80.5t-35.5 102.5q0 40 22 79q-115 68 -115 154l1 12h-24l-65 83l25 49h788l65 -83zM472 538h-246q-36 -22 -36 -65q0 -15 6 -30q44 23 104 23q33 0 65 -7l72 -119l-25 -49
l-28 2q-53 0 -84.5 -22t-30.5 -50q0 -9 4 -16l24 -3q45 0 95.5 26t79.5 63v247z" />
    <glyph glyph-name="uni091A094D0930" horiz-adv-x="738" 
d="M778 538h-186l76 -52v-505l-54 -27l-132 69v63l-234 -181l-133 109l129 90q-138 81 -138 185q0 31 13 56h-78l-63 86l25 49h376l72 -103l-25 -49h-88q-57 -38 -57 -101l2 -22l26 -2q50 0 98.5 29t74.5 70v236h-482l-65 83l25 49h778l65 -83z" />
    <glyph glyph-name="uni091C094D0930" horiz-adv-x="770" 
d="M810 538h-186l76 -52v-515l-54 -27l-95 49l-224 -145l-116 100l303 181v182h-99q46 -50 46 -115q0 -68 -44 -111t-115 -43q-112 0 -190 102.5t-122 272.5l116 39q44 -145 74 -186.5t72 -41.5q29 0 45 16t16 39q0 46 -48 71l-69 22v91h318v71h-514l-65 83l25 49h810
l65 -83z" />
    <glyph glyph-name="uni091D094D0930" horiz-adv-x="898" 
d="M938 538h-166l76 -52v-559l-54 -27l-100 52l-127 -137l-126 75l221 225v55q-21 -6 -50 -6l-52 5q11 -33 11 -65q0 -85 -65 -129t-153 -57l122 -98l-135 -97l-129 200q-69 19 -152 78l38 143l84 -2l60 -84l26 -2q57 0 111 31.5t65 70.5l-158 -42q-120 38 -189 101.5
t-69 131.5q0 59 50 98t143 39h122v52h-342l-65 83l25 49h938l65 -83zM662 538h-230l76 -52v-143h-268q-26 0 -41.5 -12.5t-15.5 -29.5q0 -14 11 -25l204 38l8 -3q49 -17 106 -17q103 0 150 49v195z" />
    <glyph glyph-name="uni0924094D0930" horiz-adv-x="665" 
d="M705 538h-186l76 -52v-505l-54 -27l-132 69v133l-189 -148l-128 150l240 156q-30 26 -58 26q-24 0 -55.5 -18.5t-108.5 -72.5l-113 173q116 86 188 86q75 0 158 -79l66 -63v172h-409l-65 83l25 49h705l65 -83z" />
    <glyph glyph-name="uni0924094D0930.ss03" horiz-adv-x="675" 
d="M715 538h-186l76 -52v-505l-54 -27l-132 69v135l-96 -80l-91 109l153 102h-78q-39 0 -65 -26.5t-26 -58.5q0 -67 118 -185l-98 -83q-215 201 -215 340q0 80 61.5 130t163.5 50h173v82h-419l-65 83l25 49h715l65 -83z" />
    <glyph glyph-name="uni0925094D0930" horiz-adv-x="691" 
d="M731 538h-186l76 -52v-505l-54 -27l-132 69v67l-225 -160l-133 99l125 78l-8 4q-52 32 -100 91.5t-79 133.5l21 56q218 25 218 132q0 20 -10 39q-8 5 -20 5q-18 0 -33 -13.5t-15 -37.5q0 -30 23 -56l-69 -42q-107 74 -107 150q0 51 42 88t102 37q90 0 166 -77.5
t76 -166.5q0 -65 -48 -122t-151 -84q12 -31 28 -57q63 2 117 35t80 79v237l-65 83l25 49h296l65 -83z" />
    <glyph glyph-name="uni0926094D0930" horiz-adv-x="629" 
d="M669 538h-234l76 -52v-191h-178q-64 0 -96 -27.5t-32 -68.5q0 -36 19 -64q31 -16 69 -16q41 0 85 18l-11 86l113 39l134 -168q-25 -48 -80 -82l110 -189l-159 -66l-55 207l-257 -168l-123 89l189 110q-101 44 -158 112t-57 151q0 95 66.5 151t180.5 56h66v73h-337l-65 83
l25 49h669l65 -83z" />
    <glyph glyph-name="uni0927094D0930" horiz-adv-x="725" 
d="M765 538h-186l76 -52v-505l-54 -27l-132 69v63l-234 -181l-133 109l132 89l-13 7q-57 33 -92.5 80.5t-35.5 102.5q0 45 27 88q-110 75 -110 172q0 63 45.5 106t116.5 43q69 0 117.5 -41t97.5 -119l-69 -58q-39 54 -54 69l-13 1q-27 0 -42.5 -17.5t-15.5 -43.5
q0 -20 11 -45q44 18 94 18q33 0 64 -7l72 -119l-25 -49l-28 2q-53 0 -84.5 -22t-30.5 -50q0 -9 4 -16l24 -3q45 0 95.5 26t79.5 63v247l-65 83l25 49h296l65 -83z" />
    <glyph glyph-name="uni0928094D0930" horiz-adv-x="630" 
d="M670 538h-186l76 -52v-505l-54 -27l-132 69v47l-195 -144l-116 90l311 223v59h-112v-102l-72 -36q-63 31 -118.5 105.5t-64.5 140.5l36 58h331v74h-374l-65 83l25 49h670l65 -83z" />
    <glyph glyph-name="uni092A094D0930" horiz-adv-x="673" 
d="M713 538h-186l76 -52v-505l-54 -27l-132 69v99l-248 -183l-128 105l175 119l-41 30q-105 92 -105 191v154h-70l-65 83l25 49h713l65 -83zM417 538h-226l76 -52v-223q13 -4 32 -4q37 0 69.5 19.5t48.5 57.5v202z" />
    <glyph glyph-name="uni092B094D0930" horiz-adv-x="889" 
d="M929 538h-452l76 -52v-51q51 31 101 31q83 0 147.5 -73.5t64.5 -161.5q0 -68 -46 -129t-126 -109l-119 137q57 37 93.5 77t36.5 63q0 22 -22 22q-40 0 -130 -81v-230l-54 -27l-132 69v96l-218 -160l-133 109l179 120q-134 107 -135 209v141h-60l-65 83l25 49h929l65 -83z
M367 538h-186l76 -52v-203q16 -8 35 -8q43 0 75 34v229z" />
    <glyph glyph-name="uni092C094D0930" horiz-adv-x="673" 
d="M713 538h-186l76 -52v-505l-54 -27l-132 69v52l-227 -154l-133 99l131 81l-23 13q-62 38 -100.5 91t-38.5 113q0 78 57.5 132t143.5 54q27 0 57 -6l133 -63v103h-417l-65 83l25 49h713l65 -83zM417 335q-48 23 -89 23l-19 -1l83 -120l25 29v69zM244 327q-31 -29 -31 -72
q0 -32 17 -56q19 -8 41 -8q29 0 60 11z" />
    <glyph glyph-name="uni092D094D0930" horiz-adv-x="707" 
d="M757 538h-186l76 -52v-505l-54 -27l-112 59l-161 -116l-126 92l267 186v40h-110v-72l-65 -41q-67 19 -137.5 84t-88.5 127l36 58h76v129q0 45 -11 63q-24 1 -40 -15t-16 -40q0 -34 31 -61l-67 -51q-119 84 -119 163q0 56 41.5 95.5t103.5 39.5q94 0 175 -79t81 -173v-71
h110v167l-65 83l25 49h296l65 -83z" />
    <glyph glyph-name="uni092E094D0930" horiz-adv-x="717" 
d="M757 538h-186l76 -52v-505l-54 -27l-114 59l-162 -116l-126 92l270 188v28h-157v-73l-65 -40q-67 19 -137.5 84t-88.5 127l36 58h76l-7 177h-118l-65 83l25 49h757l65 -83zM461 538h-233l76 -52v-125h157v177z" />
    <glyph glyph-name="uni092F094D0930" horiz-adv-x="681" 
d="M721 538h-186l76 -52v-505l-54 -27l-132 69v60l-215 -153l-133 99l125 78l-8 4q-52 32 -100 91.5t-79 133.5l21 56q152 18 152 73q0 36 -55 73h-133l-65 83l25 49h721l65 -83zM425 538h-153q89 -73 89 -151q0 -51 -37 -90t-113 -56q14 -34 27 -54q58 2 108 29.5t79 68.5
v253z" />
    <glyph glyph-name="uni0932094D0930" horiz-adv-x="800" 
d="M840 538h-186l76 -52v-505l-54 -27l-108 56l-206 -144l-122 92l304 209v177q-78 -55 -78 -193l-43 -30l-138 83q-1 61 19 113l-16 1q-34 0 -57.5 -23t-23.5 -63q0 -43 32.5 -80.5t102.5 -81.5l-114 -71q-216 141 -216 301q0 79 52.5 130.5t130.5 51.5q33 0 59 -10l99 -81
q75 73 191 73v74h-544l-65 83l25 49h840l65 -83z" />
    <glyph glyph-name="uni0932094D0930.MAR" horiz-adv-x="840" 
d="M880 538h-296l76 -52v-37q72 -30 114.5 -95.5t42.5 -149.5q0 -178 -199 -320l-135 108q168 134 193 229l-200 -208l-111 95l269 231q-20 10 -40 10q-40 0 -68.5 -29.5t-28.5 -67.5l1 -11l-132 -99l-61 40l-2 39q0 51 16 92q-17 5 -31 5q-34 0 -57.5 -23t-23.5 -63
q0 -50 43 -92t142 -100l-71 -95q-309 162 -309 355q0 79 52.5 130.5t130.5 51.5q33 0 59 -10l108 -88q43 50 112 72v82h-474l-65 83l25 49h880l65 -83z" />
    <glyph glyph-name="uni0935094D0930" horiz-adv-x="665" 
d="M705 538h-186l76 -52v-505l-54 -27l-132 69v68l-235 -160l-133 99l129 81l-17 9q-57 33 -95 83.5t-38 112.5q0 77 56 129.5t142 52.5q28 0 58 -6l133 -58v104h-409l-65 83l25 49h705l65 -83zM332 353q-55 0 -84.5 -29t-29.5 -69q0 -27 14 -50l28 -3q41 0 81.5 19.5
t67.5 51.5v64q-38 16 -77 16z" />
    <glyph glyph-name="uni0936094D0930" horiz-adv-x="772" 
d="M822 538h-186l76 -52v-505l-54 -27l-132 69v155l-219 -185l-118 118l190 141l-57 19l-7 -4l-186 -118l-114 131l151 91q-89 85 -89 167q0 63 49 109t117 46q82 0 145 -65t63 -151q0 -65 -43 -125l27 -1q46 0 91 14v173l-65 83l25 49h296l65 -83zM331 549q-14 10 -30 10
q-25 0 -43 -23.5t-18 -56.5q0 -28 14 -51q78 55 78 110z" />
    <glyph glyph-name="uni0937094D0930" horiz-adv-x="653" 
d="M693 538h-186l76 -52v-505l-54 -27l-132 69v110l-265 -196l-128 105l176 119q-66 43 -108 103t-42 114v160h-30l-65 83l25 49h693l65 -83zM397 538h-131l131 -195v195zM222 263q18 -6 40 -6q49 0 88 26l-128 190v-210z" />
    <glyph glyph-name="uni0938094D0930" horiz-adv-x="809" 
d="M849 538h-186l76 -52v-505l-54 -27l-105 55l-220 -172l-115 120l308 227v26h-271l-14 -9l133 -73v-28l-130 -92l-262 255l38 100l139 -1v176h-196l-65 83l25 49h859l65 -83zM553 538h-250l76 -52v-127h174v179z" />
    <glyph glyph-name="uni0939094D0930" horiz-adv-x="645" 
d="M685 538h-203l76 -52v-147h-296q-63 0 -63 -39l2 -13q56 18 118 18q137 0 228 -81t91 -205q0 -43 -12 -89l-140 32l25 169l-117 -179l-123 100l113 110q-147 0 -147 -98q0 -70 77.5 -109.5t219.5 -67.5l-35 -118q-200 36 -326 127t-126 205q0 85 69 141q-70 62 -70 128
q0 51 43.5 87t122.5 36h180v45h-392l-65 83l25 49h685l65 -83z" />
    <glyph glyph-name="uni0958094D0930" horiz-adv-x="845" 
d="M303 -187q-28 11 -64 38t-54 53q41 83 95 115q29 -11 62 -38.5t52 -52.5q-12 -31 -38 -64t-53 -51zM885 538h-443l76 -52v-59q48 32 102 32q86 0 149 -69.5t63 -158.5q0 -140 -172 -253l-129 132q74 57 107.5 91t33.5 64q0 24 -23 24q-48 0 -131 -92v-216l-54 -27
l-132 69v58l-211 -148l-133 109l143 92q-112 70 -112 180q0 75 49 123.5t126 48.5q25 0 55 -6l83 -45v103h-332l-65 83l25 49h885l65 -83zM293 347q-40 0 -61.5 -23.5t-21.5 -56.5q0 -28 16 -52q66 13 106 65v61q-19 6 -39 6z" />
    <glyph glyph-name="uni0959094D0930" horiz-adv-x="920" 
d="M208 -182q-28 11 -64 38t-54 53q41 83 95 115q29 -11 62 -38.5t52 -52.5q-12 -31 -38 -64t-53 -51zM960 538h-186l76 -52v-535l-54 -27l-106 56l-284 -188l-103 99l113 65q-118 19 -222.5 99.5t-174.5 217.5l38 90l139 -1v176h-196l-65 83l25 49h960l65 -83zM664 538
h-361l76 -52v-105q15 49 55 81t99 32l47 -5l84 -52v101zM664 361q-22 7 -44 7q-42 0 -66.5 -26.5t-24.5 -59.5q0 -23 12 -38l14 -1q63 0 109 57v61zM243 187q38 -56 103.5 -82.5t138.5 -26.5q103 0 179 47v6l-35 -3q-91 0 -168 51t-88 127q-15 -48 -80 -89z" />
    <glyph glyph-name="uni095A094D0930" horiz-adv-x="690" 
d="M730 538h-186l76 -52v-505l-54 -27l-132 69v32l-203 -153l-126 93l329 238v305h-206l76 -52v-315l-65 -43q-67 19 -138.5 83.5t-92.5 127.5l36 58h79l-3 141h-120l-65 83l25 49h730l65 -83zM419 -206q-28 11 -64 38t-54 53q41 83 95 115q29 -11 62 -38.5t52 -52.5
q-12 -31 -38 -64t-53 -51z" />
    <glyph glyph-name="uni095B094D0930" horiz-adv-x="770" 
d="M810 538h-186l76 -52v-515l-54 -27l-95 49l-224 -145l-116 100l303 181v182h-99q46 -50 46 -115q0 -68 -44 -111t-115 -43q-112 0 -190 102.5t-122 272.5l116 39q44 -145 74 -186.5t72 -41.5q29 0 45 16t16 39q0 46 -48 71l-69 22v91h318v71h-514l-65 83l25 49h810
l65 -83zM552 -238q-28 11 -64 38t-54 53q41 83 95 115q29 -11 62 -38.5t52 -52.5q-12 -31 -38 -64t-53 -51z" />
    <glyph glyph-name="uni095E094D0930" horiz-adv-x="889" 
d="M929 538h-452l76 -52v-51q51 31 101 31q83 0 147.5 -73.5t64.5 -161.5q0 -68 -46 -129t-126 -109l-119 137q57 37 93.5 77t36.5 63q0 22 -22 22q-40 0 -130 -81v-230l-54 -27l-132 69v96l-218 -160l-133 109l179 120q-134 107 -135 209v141h-60l-65 83l25 49h929l65 -83z
M367 538h-186l76 -52v-203q16 -8 35 -8q43 0 75 34v229zM317 -178q-28 11 -64 38t-54 53q41 83 95 115q29 -11 62 -38.5t52 -52.5q-12 -31 -38 -64t-53 -51z" />
    <glyph glyph-name="uni095F094D0930" horiz-adv-x="681" 
d="M721 538h-186l76 -52v-505l-54 -27l-132 69v60l-215 -153l-133 99l125 78l-8 4q-52 32 -100 91.5t-79 133.5l21 56q152 18 152 73q0 36 -55 73h-133l-65 83l25 49h721l65 -83zM425 538h-153q89 -73 89 -151q0 -51 -37 -90t-113 -56q14 -34 27 -54q58 2 108 29.5t79 68.5
v253zM396 -203q-28 11 -64 38t-54 53q41 83 95 115q29 -11 62 -38.5t52 -52.5q-12 -31 -38 -64t-53 -51z" />
    <glyph glyph-name="uni0915094D0937094D0930" horiz-adv-x="941" 
d="M981 538h-186l76 -52v-505l-54 -27l-132 69v95l-101 -92l-95 135l149 84q-45 -7 -98 -7q-94 0 -176 22q-80 -39 -114.5 -69t-34.5 -62q0 -15 8 -34l31 -3q30 0 55 9l-11 60l112 46l112 -148q-19 -35 -59 -63l110 -190l-175 -71l-43 208q-118 0 -214 81t-96 176
q0 96 115 166q-75 70 -75 164q0 74 47.5 119t120.5 45q68 0 119 -41t78.5 -99t27.5 -106q0 -38 -19 -76q121 2 226 45v121h-150l-65 83l25 49h446l65 -83zM345 530q-19 21 -43 21q-25 0 -44.5 -21.5t-19.5 -52.5q0 -32 24 -56q83 49 83 109z" />
    <glyph glyph-name="uni0915094D0937" horiz-adv-x="851" 
d="M891 538h-186l76 -52v-505l-54 -27l-132 69v211q-25 -5 -62 -5q-82 0 -170 31q-80 -39 -114 -69t-34 -62q0 -15 8 -34l30 -3q52 0 105 31l-10 52l110 50l114 -146q-24 -44 -72 -78l113 -195l-175 -71l-45 215q-28 -7 -52 -7q-63 0 -132.5 36t-116.5 95.5t-47 125.5
q0 99 126 173q-86 80 -86 167q0 66 49.5 110t119.5 44q67 0 118 -41t78.5 -99t27.5 -106q0 -45 -26 -87q78 6 143 42v135h-60l-65 83l25 49h356l65 -83zM345 530q-19 21 -43 21q-26 0 -45 -21.5t-19 -54.5q0 -31 20 -56q87 49 87 111z" />
    <glyph glyph-name="uni091C094D091E" horiz-adv-x="790" 
d="M830 538h-186l76 -52v-505l-54 -27l-132 69v318h-293q-68 0 -81 -31l190 -28q161 -136 161 -254q0 -67 -46 -108t-118 -48l123 -53l9 -55l-114 -115l-204 224q-80 11 -133 58l50 167l53 11l67 -79q34 -7 66 -7q40 0 65 11.5t25 29.5q0 28 -61 38l-110 19
q-61 44 -106.5 115t-45.5 119q0 62 44 101t124 39h335v43h-534l-65 83l25 49h830l65 -83z" />
    <glyph glyph-name="uni0917094D0930094D092F" horiz-adv-x="1061" 
d="M1101 538h-186l76 -52v-505l-54 -27l-132 69v56q-35 -16 -76 -16q-86 0 -171 59l-267 -230l-126 93l293 238q-37 51 -63 113l21 56q152 18 152 73q0 36 -55 73h-285l76 -52v-331l-65 -37q-67 19 -138.5 83.5t-92.5 127.5l36 58h79l-4 151h-119l-65 83l25 49h1101l65 -83z
M805 538h-153q89 -73 89 -151q0 -108 -143 -145l20 -45q58 0 109 30.5t78 77.5v233z" />
    <glyph glyph-name="uni0919094D0915094D0930" horiz-adv-x="760" 
d="M825 587l-25 -49h-323l76 -52v-129h-270q-56 0 -56 -30q0 -20 22 -35l185 42q85 -30 123 -85.5t38 -114.5q0 -75 -55 -128t-140 -59l49 -31v-30q42 25 79 25q61 0 109.5 -54.5t48.5 -123.5q0 -118 -142 -192l-92 111q45 29 74.5 59.5t29.5 48.5q0 16 -17 16
q-31 0 -90 -63v-179l-41 -20l-104 52v48l-165 -125l-103 89l99 66q-85 58 -85 144q0 60 42 104t103 44q20 0 36 -4l73 -49v73q-77 18 -153 72.5t-137 145.5l78 66q43 -66 106.5 -105.5t126.5 -39.5q49 0 91.5 23t56.5 65l-153 -50q-111 41 -179.5 104.5t-68.5 131.5
q0 57 49.5 95t143.5 38h128v36h-393l-65 83l25 49h800zM657 398q29 -11 62 -38.5t52 -52.5q-12 -31 -38 -64t-53 -51q-28 11 -64 38t-54 53q41 83 95 115zM268 -188q-27 0 -50 -24t-23 -55q0 -17 7 -31q48 10 102 66v36q-19 8 -36 8z" />
    <glyph glyph-name="uni091B094D0930094D092F" horiz-adv-x="1456" 
d="M1496 538h-186l76 -52v-555l-54 -27l-132 69v38q-36 -18 -81 -18q-88 0 -167 56.5t-134 174.5l21 52q145 8 145 37q0 19 -68 20h-150q13 -45 13 -87q0 -98 -61.5 -182.5t-161.5 -122.5l101 -107l-89 -82l-123 129l-106 -127l-122 99l80 87q-80 29 -130 86.5t-50 120.5
q0 36 15 64q-121 71 -121 168q0 54 40.5 92.5t119.5 38.5h105l74 -108l-25 -49h-73q-80 0 -80 -40q0 -18 23 -37q46 27 106 27q33 0 71 -9l74 -121l-38 -47q-28 12 -54 12q-30 0 -49.5 -15t-19.5 -37q0 -20 10 -30l37 -4q145 0 236 102q-77 35 -129 94t-52 123
q0 62 48 106.5t114 44.5q49 0 95 -27h254q71 0 131 -36.5t95 -89.5t35 -98t-38 -78.5t-112 -48.5l14 -27q59 6 107.5 37t69.5 80v304h-1200l-65 83l25 49h1496l65 -83zM548 327q0 -74 62 -110q23 48 23 97q0 56 -19 79l-12 1q-54 0 -54 -67z" />
    <glyph glyph-name="uni091F094D091F094D092F" horiz-adv-x="1244" 
d="M1284 538h-186l76 -52v-555l-54 -27l-132 69v38q-36 -18 -81 -18q-88 0 -167 56.5t-134 174.5l21 52q145 8 145 37q0 19 -68 20h-203v-42h-179q-64 0 -99 -21.5t-35 -55.5q0 -23 17 -46q29 -12 69 -12q58 0 122.5 23.5t108.5 63.5l101 -153q-71 -71 -161 -93l53 -37v-169
h-156q-46 0 -75.5 -20t-29.5 -49q0 -23 14 -41q24 -8 52 -8q51 0 108.5 21t97.5 56l87 -132q-40 -47 -98.5 -70.5t-119.5 -23.5q-116 0 -205.5 71.5t-89.5 168.5q0 79 57 128t153 50h47v46q-127 9 -224 94t-97 190q0 87 68 140t184 53h51v73h-322l-65 83l25 49h1284l65 -83z
M988 538h-563l63 -43h198q71 0 131 -36.5t95 -89.5t35 -98t-38 -78.5t-112 -48.5l14 -27q59 6 107.5 37t69.5 80v304z" />
    <glyph glyph-name="uni0920094D0920094D092F" horiz-adv-x="1281" 
d="M1321 538h-186l76 -52v-555l-54 -27l-132 69v38q-36 -18 -81 -18q-88 0 -167 56.5t-134 174.5l21 52q145 8 145 37q0 19 -68 20h-181q60 -73 60 -153q0 -71 -47.5 -124.5t-130.5 -67.5l54 -36v-77q52 -35 83 -84.5t31 -103.5q0 -74 -55.5 -121.5t-146.5 -47.5
q-121 0 -215 75.5t-94 172.5q0 73 55.5 119t149.5 48h37v55q-124 17 -218 103t-94 184q0 82 64.5 134.5t169.5 55.5h46v73h-309l-65 83l25 49h1321l65 -83zM1025 538h-613l63 -43h248q71 0 131 -36.5t95 -89.5t35 -98t-38 -78.5t-112 -48.5l14 -27q59 6 107.5 37t69.5 80
v304zM312 142q57 0 97 24t40 67q0 36 -28 67h-111q-55 0 -82.5 -23.5t-27.5 -57.5q0 -28 17 -54q39 -23 95 -23zM346 -349q48 0 82 22t34 60q0 29 -21 54h-99q-45 0 -68 -20t-23 -50q0 -25 14 -47q35 -19 81 -19z" />
    <glyph glyph-name="uni0921094D0921094D092F" horiz-adv-x="1301" 
d="M1341 538h-186l76 -52v-555l-54 -27l-132 69v36q-36 -16 -81 -16q-88 0 -167 56.5t-134 174.5l21 52q145 9 145 45t-146 36h-401q-59 0 -59 -30q0 -19 23 -35l194 42q80 -21 130 -77.5t50 -123.5q0 -77 -69 -132t-167 -55q-55 0 -106 17q-26 -15 -26 -38q0 -20 20 -34
l176 40q80 -22 121 -77.5t41 -115.5q0 -75 -59 -127t-150 -52q-94 0 -187 57t-167 167l75 67q45 -66 104.5 -105.5t125.5 -39.5q48 0 88.5 19t50.5 57l-151 -46q-106 38 -170.5 98.5t-64.5 126.5q0 45 30 80q-71 55 -136 144l82 66q48 -70 111.5 -112t133.5 -42q53 0 102 23
t64 64l-171 -50q-117 41 -189 104.5t-72 131.5q0 57 52 95t151 38h136v36h-399l-65 83l25 49h1341l65 -83zM1045 538h-556l53 -36h199q71 0 131.5 -38t96 -92.5t35.5 -100.5q0 -45 -38 -78.5t-112 -48.5l14 -27q54 5 102.5 31.5t74.5 67.5v322z" />
    <glyph glyph-name="uni0922094D0930094D092F" horiz-adv-x="1310" 
d="M1350 538h-186l76 -52v-555l-54 -27l-132 69v38q-36 -18 -81 -18q-88 0 -167 56.5t-134 174.5l21 52q145 8 145 37q0 19 -68 20h-236v-35h-199q-65 0 -101 -35t-36 -85q0 -51 33 -88q56 -30 126 -30l-71 47q-15 34 -15 66q0 53 39 83t98 30q85 0 149 -61.5t64 -137.5
q0 -45 -26 -84.5t-71 -63.5l100 -107l-89 -82l-123 129l-106 -127l-122 99l85 92q-109 45 -177 127.5t-68 174.5q0 99 70.5 159.5t188.5 60.5h72v73h-355l-65 83l25 49h1350l65 -83zM1054 538h-596l63 -43h231q71 0 131 -36.5t95 -89.5t35 -98t-38 -78.5t-112 -48.5l14 -27
q59 6 107.5 37t69.5 80v304zM429 132q0 -25 14 -53q49 26 49 67q0 35 -27 35q-14 0 -25 -13t-11 -36z" />
    <glyph glyph-name="uni0926094D0917094D0930" horiz-adv-x="629" 
d="M679 538h-244l76 -52v-191h-183q-62 0 -94.5 -27.5t-32.5 -67.5q0 -34 23 -65q33 -15 67 -15q41 0 87 22l-11 81l113 39l134 -168q-26 -49 -83 -84l128 -316l-145 -51l-17 59l-113 -170l-123 80l195 235l-33 115l-50 -5l-52 5l28 -197l-54 -42q-62 9 -126 48.5t-97 93.5
l25 56l86 17l-13 86q-65 43 -105.5 104t-40.5 130q0 95 66.5 151t180.5 56h66v73h-337l-65 83l25 49h669l75 -83z" />
    <glyph glyph-name="uni0926094D0926094D092F" horiz-adv-x="1298" 
d="M1338 538h-186l76 -52v-555l-54 -27l-132 69v38q-36 -18 -81 -18q-88 0 -167 56.5t-134 174.5l21 52q145 8 145 37q0 19 -68 20h-521q-26 0 -41 -13t-15 -31q0 -15 10 -28q44 14 102 14h189l79 -124l-25 -49h-183q-65 0 -96 -23t-31 -57q0 -22 13 -43q33 -17 76 -17
q49 0 97 21l-9 62l107 37l118 -155q-22 -41 -69 -74l99 -171l-175 -71l-41 198l-50 -5q-74 0 -153 38.5t-131 102.5t-52 136q0 84 59 137q-87 66 -87 146q0 53 43 88t123 35h170v51h-364l-65 83l25 49h1338l65 -83zM1042 538h-588l63 -43h223q71 0 131 -36.5t95 -89.5
t35 -98t-38 -78.5t-112 -48.5l14 -27q59 6 107.5 37t69.5 80v304z" />
    <glyph glyph-name="uni0926094D0926094D0930" horiz-adv-x="614" 
d="M664 538h-210l76 -52v-157h-283q-66 0 -66 -44q0 -19 16 -36q46 12 96 12h189l79 -124l-25 -49h-183q-65 0 -96 -23t-31 -57q0 -22 13 -43q33 -27 83 -27q47 0 91 22l-10 71l107 37l118 -155q-22 -41 -69 -74l99 -171l-157 -71l-52 195l-245 -164l-123 89l174 104
q-84 37 -141.5 104t-57.5 142q0 88 65 142q-93 68 -93 151q0 53 43 88t123 35h170v55h-364l-65 83l25 49h654l75 -83z" />
    <glyph glyph-name="uni0926094D0927094D092F" horiz-adv-x="1653" 
d="M1693 538h-186l76 -52v-555l-54 -27l-132 69v38q-36 -18 -81 -18q-88 0 -167 56.5t-134 174.5l21 52q145 8 145 37q0 19 -68 20h-289v-38h-183q-62 0 -94.5 -27.5t-32.5 -67.5q0 -34 23 -65q33 -15 67 -15q41 0 87 22l-11 81l113 39l134 -168q-24 -45 -75 -79l99 -170
l-175 -71l-39 188l-33 -4q-29 -96 -95.5 -148t-146.5 -52q-92 0 -176.5 57t-93.5 131q-95 24 -143 77t-48 115q0 60 43 102.5t108 42.5q71 0 140 -62l50 -48l-50 -64q-48 41 -70 53q-51 -22 -51 -68q0 -43 43 -63q39 52 117 68l124 -93v-41q-41 -7 -67.5 -26t-26.5 -40
q0 -12 9 -22q44 -1 89.5 32.5t70.5 87.5q-84 41 -138.5 110t-54.5 151q0 95 66.5 151t180.5 56h66v73h-650l-65 83l25 49h1693l65 -83zM1397 538h-649l63 -43h284q71 0 131 -36.5t95 -89.5t35 -98t-38 -78.5t-112 -48.5l14 -27q59 6 107.5 37t69.5 80v304z" />
    <glyph glyph-name="uni0926094D092C094D0930" horiz-adv-x="639" 
d="M679 538h-234l76 -52v-191h-178q-64 0 -97.5 -30t-33.5 -73q0 -36 22 -67q38 -16 76 -16q41 0 80 18l-13 96l113 39l124 -168q-28 -50 -81 -83l117 -275l-119 -55l-28 90l-141 -198l-123 60l64 79q-88 18 -147.5 73.5t-59.5 122.5q0 77 77 126q-63 41 -101 99t-38 125
q0 95 66.5 151t180.5 56h66v73h-347l-65 83l25 49h679l65 -83zM408 -102q26 38 25 78q-55 3 -109 -26zM268 -174q55 0 101 33l-91 57q-26 -28 -26 -53q0 -23 16 -37z" />
    <glyph glyph-name="uni0926094D092D094D092F" horiz-adv-x="1670" 
d="M1710 538h-186l76 -52v-555l-54 -27l-132 69v38q-36 -18 -81 -18q-88 0 -167 56.5t-134 174.5l21 52q145 8 145 37q0 19 -68 20h-289v-38h-178q-64 0 -97.5 -30t-33.5 -73q0 -36 22 -67q38 -16 76 -16q41 0 80 18l-13 96l113 39l124 -168q-20 -38 -69 -71l103 -178
l-175 -71l-41 196l-241 -125l32 -64l-41 -51q-58 0 -143.5 23t-121.5 52l2 62l60 29l-83 124q-27 41 -41 49q-29 -12 -29 -45q0 -47 66 -68l-32 -78q-84 11 -138.5 49.5t-54.5 104.5q0 64 51 105t127 41q65 0 126.5 -30.5t92.5 -78.5l65 -103l89 42l-32 18q-68 41 -110 101
t-42 131q0 95 66.5 151t180.5 56h66v73h-667l-65 83l25 49h1710l65 -83zM1414 538h-649l63 -43h284q71 0 131 -36.5t95 -89.5t35 -98t-38 -78.5t-112 -48.5l14 -27q59 6 107.5 37t69.5 80v304z" />
    <glyph glyph-name="uni0926094D092D094D0930" horiz-adv-x="959" 
d="M999 538h-234l76 -52v-191h-178q-64 0 -97.5 -30t-33.5 -73q0 -36 22 -67q43 -22 85 -22q38 0 72 17l-14 103l113 39l124 -168q-23 -40 -70 -72l106 -189l-137 -69l-53 162l-63 -256l-153 49l84 197l-137 -71l32 -64l-41 -51q-58 0 -143.5 23t-121.5 52l2 62l60 29
l-83 124q-27 41 -41 49q-29 -12 -29 -45q0 -47 66 -68l-32 -78q-84 11 -138.5 49.5t-54.5 104.5q0 64 51 105t127 41q65 0 126.5 -30.5t92.5 -78.5l65 -103l89 42l-32 18q-68 41 -110 101t-42 131q0 95 66.5 151t180.5 56h66v73h-667l-65 83l25 49h999l65 -83z" />
    <glyph glyph-name="uni0926094D0930094D092F" horiz-adv-x="1250" 
d="M1295 538h-186l76 -52v-555l-54 -27l-132 69v38q-36 -18 -81 -18q-88 0 -167 56.5t-134 174.5l21 52q145 8 145 37q0 19 -68 20h-204v-38h-178q-64 0 -96 -27.5t-32 -68.5q0 -36 19 -64q31 -16 69 -16q41 0 85 18l-11 86l113 39l134 -168q-25 -48 -80 -82l110 -189
l-159 -66l-55 207l-257 -168l-123 89l189 110q-101 44 -158 112t-57 151q0 95 66.5 151t180.5 56h66v73h-337l-65 83l25 49h1295l65 -83zM999 538h-564l63 -43h199q71 0 131 -36.5t95 -89.5t35 -98t-38 -78.5t-112 -48.5l14 -27q59 6 107.5 37t69.5 80v304z" />
    <glyph glyph-name="uni0926094D0935094D092F" horiz-adv-x="1270" 
d="M1310 538h-186l76 -52v-555l-54 -27l-132 69v38q-36 -18 -81 -18q-88 0 -167 56.5t-134 174.5l21 52q145 8 145 37q0 19 -68 20h-209v-38h-178q-64 0 -97.5 -30t-33.5 -73q0 -36 22 -67q38 -16 76 -16q41 0 80 18l-13 96l113 39l124 -168q-28 -50 -81 -83l117 -275
l-119 -55l-28 92q-56 -66 -144 -66q-96 0 -174.5 61.5t-78.5 140.5q0 77 69 124q-64 41 -102.5 99t-38.5 126q0 95 66.5 151t180.5 56h66v73h-347l-65 83l25 49h1310l65 -83zM1014 538h-569l63 -43h204q71 0 131 -36.5t95 -89.5t35 -98t-38 -78.5t-112 -48.5l14 -27
q59 6 107.5 37t69.5 80v304zM282 -174q54 0 102.5 46t48.5 101q-60 3 -113.5 -33t-53.5 -79q0 -21 16 -35z" />
    <glyph glyph-name="uni0926094D0935094D0930" horiz-adv-x="639" 
d="M679 538h-234l76 -52v-191h-178q-64 0 -97.5 -30t-33.5 -73q0 -36 22 -67q38 -16 76 -16q41 0 80 18l-13 96l113 39l124 -168q-28 -50 -81 -83l117 -275l-119 -55l-28 90l-141 -198l-123 60l64 80q-84 18 -140.5 74t-56.5 122q0 77 69 124q-64 41 -102.5 99t-38.5 126
q0 95 66.5 151t180.5 56h66v73h-347l-65 83l25 49h679l65 -83zM282 -174q54 0 102.5 46t48.5 101q-60 3 -113.5 -33t-53.5 -79q0 -21 16 -35z" />
    <glyph glyph-name="uni0927094D0928094D092F" horiz-adv-x="1151" 
d="M1191 538h-186l76 -52v-505l-54 -27l-132 69v56q-35 -16 -76 -16q-120 0 -224 104l-216 -174l44 -81l-33 -50q-60 -2 -128.5 26t-103.5 68l-2 65l103 69q-78 36 -122 90t-44 113q0 46 27 87q-110 77 -110 173q0 63 45.5 106t116.5 43q69 0 117.5 -41t97.5 -119l-69 -58
q-39 54 -54 69l-13 1q-27 0 -42.5 -17.5t-15.5 -43.5q0 -20 11 -45q44 18 94 18q33 0 64 -7l72 -119l-25 -49l-28 2q-53 0 -84.5 -22t-30.5 -50q0 -9 4 -16q17 -7 39 -7q47 0 101 31.5t91 72.5l-16 34l21 56q152 18 152 73q0 36 -55 73h-134l-65 83l25 49h722l65 -83z
M895 538h-153q89 -73 89 -151q0 -108 -143 -145l20 -45q58 0 109 30.5t78 77.5v233z" />
    <glyph glyph-name="uni0927094D0935" horiz-adv-x="1125" 
d="M1165 538h-186l76 -52v-505l-54 -27l-132 69v54q-34 -13 -67 -13q-54 0 -115 21t-110 59q-86 -80 -196 -80q-107 0 -197.5 71t-90.5 158q0 46 27 87q-110 77 -110 173q0 63 45.5 106t116.5 43q69 0 117.5 -41t97.5 -119l-69 -58q-39 54 -54 69l-13 1q-27 0 -42.5 -17.5
t-15.5 -43.5q0 -20 11 -45q44 18 94 18q33 0 64 -7l72 -119l-25 -49l-28 2q-53 0 -84.5 -22t-30.5 -50q0 -9 4 -16l19 -2q44 0 99.5 30t92.5 69l-1 14q0 77 56 129.5t142 52.5q26 0 58 -6l133 -58v104h-410l-65 83l25 49h706l65 -83zM692 205l19 -1q47 0 89 22t69 59v52
q-36 16 -80 16q-52 0 -81.5 -29.5t-29.5 -69.5q0 -26 14 -49z" />
    <glyph glyph-name="uni0928094D0928094D092F" horiz-adv-x="999" 
d="M1039 538h-186l76 -52v-505l-54 -27l-132 69v56q-35 -16 -76 -16q-116 0 -216 96l-100 -74l50 -89l-46 -56q-58 8 -123 39.5t-103 74.5l4 68l233 169q-43 34 -96 34q-21 0 -54 -7l-4 -90l-82 -41q-102 91 -143 231l36 58q96 14 161 14q81 0 134.5 -21.5t93.5 -67.5
q94 21 94 64q0 36 -55 73h-451l-65 83l25 49h1039l65 -83zM743 538h-153q89 -73 89 -151q0 -108 -143 -145l20 -45q58 0 109 30.5t78 77.5v233z" />
    <glyph glyph-name="uni092A094D091F" horiz-adv-x="643" 
d="M683 538h-194l76 -52v-125q0 -97 -58 -164t-174 -90q-60 -14 -77.5 -30t-17.5 -42q0 -19 14 -38q26 -8 52 -8q58 0 123.5 29.5t109.5 74.5l101 -153q-107 -113 -252 -113q-128 0 -227 78t-99 183q0 89 78 143q-97 91 -98 176v131h-40l-65 83l25 49h683l65 -83zM386 538
h-230l76 -52v-213q17 -7 42 -7q110 0 112 158v114z" />
    <glyph glyph-name="uni092A094D0920" horiz-adv-x="633" 
d="M673 538h-184l76 -52v-115q0 -100 -59 -174q103 -74 103 -184q0 -82 -65 -134t-164 -52q-124 0 -222 77t-98 183q0 90 78 144q-97 91 -98 176v131h-40l-65 83l25 49h673l65 -83zM386 538h-230l76 -52v-213q17 -7 42 -7q110 0 112 158v114zM249 -12q29 -14 66 -14
q56 0 98.5 31t42.5 72q0 29 -25 60q-10 -6 -64 -18q-78 -15 -105.5 -36.5t-27.5 -55.5q0 -16 15 -39z" />
    <glyph glyph-name="uni092A094D091F094D092F" horiz-adv-x="1320" 
d="M1360 538h-186l76 -52v-564l-54 -27l-132 69v38q-36 -18 -81 -18q-88 0 -167 56.5t-134 174.5l21 52q145 8 145 37q0 19 -68 20h-217q-22 -175 -230 -217q-60 -14 -77.5 -30t-17.5 -42q0 -19 14 -38q26 -8 52 -8q58 0 123.5 29.5t109.5 74.5l101 -153
q-107 -113 -252 -113q-128 0 -227 78t-99 183q0 89 78 143q-97 91 -98 176v131h-40l-65 83l25 49h1360l65 -83zM156 538l76 -52v-213q17 -7 42 -7q110 0 112 158v114h-230zM1064 538h-575l76 -52h197q71 0 131 -36.5t95 -89.5t35 -98t-38 -78.5t-112 -48.5l14 -27
q59 6 107.5 37t69.5 80v313z" />
    <glyph glyph-name="uni092A094D0920094D092F" horiz-adv-x="1320" 
d="M1360 538h-186l76 -52v-564l-54 -27l-132 69v38q-36 -18 -81 -18q-88 0 -167 56.5t-134 174.5l21 52q145 8 145 37q0 19 -68 20h-219q-12 -74 -55 -127q103 -74 103 -184q0 -82 -65 -134t-164 -52q-124 0 -222 77t-98 183q0 90 78 144q-97 91 -98 176v131h-40l-65 83
l25 49h1360l65 -83zM156 538l76 -52v-213q17 -7 42 -7q110 0 112 158v114h-230zM1064 538h-575l76 -52h197q71 0 131 -36.5t95 -89.5t35 -98t-38 -78.5t-112 -48.5l14 -27q59 6 107.5 37t69.5 80v313zM249 -12q29 -14 66 -14q56 0 98.5 31t42.5 72q0 29 -25 60
q-10 -6 -64 -18q-78 -15 -105.5 -36.5t-27.5 -55.5q0 -16 15 -39z" />
    <glyph glyph-name="uni092D094D0930094D092F" horiz-adv-x="1123" 
d="M1163 538h-186l76 -52v-505l-54 -27l-132 69v56q-35 -16 -76 -16q-77 0 -154 47l-246 -228l-126 93l254 220h-168v-86l-65 -37q-67 19 -140 88.5t-91 132.5l36 58h82l-1 149q0 45 -11 63l-11 1q-21 0 -33.5 -16.5t-11.5 -40.5q4 -35 31 -60l-67 -51q-119 84 -119 163
q0 56 41.5 95.5t103.5 39.5q94 0 175 -79t81 -173v-91h112l15 41q152 18 152 73q0 36 -55 73h-133l-65 83l25 49h721l65 -83zM867 538h-153q89 -73 89 -151q0 -108 -143 -145l20 -45q58 0 109 30.5t78 77.5v233z" />
    <glyph glyph-name="uni0936094D0930094D092F" horiz-adv-x="1218" 
d="M1258 538h-186l76 -52v-505l-54 -27l-132 69v56q-35 -16 -76 -16q-70 0 -140.5 39.5t-126.5 114.5l-292 -224l-118 118l192 132l-80 27l-6 -3l-186 -118l-114 131l151 91q-89 87 -89 168q0 62 49 108t117 46q82 0 145 -65t63 -151q0 -67 -47 -131q44 -7 76 -7q48 0 92 11
l16 47q137 19 137 68q0 36 -55 73h-144l-65 83l25 49h732l65 -83zM331 549q-14 10 -30 10q-25 0 -43 -23.5t-18 -56.5q0 -28 14 -51q78 55 78 110zM962 538h-153q89 -73 89 -151q0 -108 -143 -145l20 -45q58 0 109 30.5t78 77.5v233z" />
    <glyph glyph-name="uni0937094D091F094D092F" horiz-adv-x="1327" 
d="M1367 538h-186l76 -52v-555l-54 -27l-132 69v38q-36 -18 -81 -18q-88 0 -167 56.5t-134 174.5l21 52q145 8 145 37q0 19 -68 20h-213q-6 -88 -68 -151t-173 -85q-60 -14 -77.5 -30t-17.5 -42q0 -19 14 -38q26 -8 52 -8q58 0 123.5 29.5t109.5 74.5l101 -153
q-107 -113 -252 -113q-128 0 -227 78t-99 183q0 89 78 143q-97 91 -98 176v141h-40l-65 83l25 49h1367l65 -83zM396 538h-124l117 -184l6 36zM1071 538h-572l63 -43h207q71 0 131 -36.5t95 -89.5t35 -98t-38 -78.5t-112 -48.5l14 -27q59 6 107.5 37t69.5 80v304zM232 263
q17 -7 42 -7q46 0 76 26l-118 184v-203z" />
    <glyph glyph-name="uni0937094D0920094D092F" horiz-adv-x="1327" 
d="M1367 538h-186l76 -52v-555l-54 -27l-132 69v38q-36 -18 -81 -18q-88 0 -167 56.5t-134 174.5l21 52q145 8 145 37q0 19 -68 20h-214q-8 -81 -64 -148q100 -73 100 -182q0 -82 -65 -134t-164 -52q-124 0 -222 77t-98 183q0 90 78 144q-97 91 -98 176v141h-40l-65 83
l25 49h1367l65 -83zM396 538h-124l117 -184l6 36zM1071 538h-572l63 -43h207q71 0 131 -36.5t95 -89.5t35 -98t-38 -78.5t-112 -48.5l14 -27q59 6 107.5 37t69.5 80v304zM232 263q17 -7 42 -7q46 0 76 26l-118 184v-203zM249 -22q29 -14 66 -14q56 0 98.5 31t42.5 72
q0 29 -25 60q-10 -6 -64 -18q-78 -15 -105.5 -36.5t-27.5 -55.5q0 -16 15 -39z" />
    <glyph glyph-name="uni0939094D092E094D092F" horiz-adv-x="1593" 
d="M1633 538h-186l76 -52v-505l-54 -27l-132 69v56q-35 -16 -76 -16q-129 0 -237 118h-196v-82l-65 -37q-56 16 -118 73l-275 -1q-127 -1 -127 -79q0 -87 157 -126l144 -32l-35 -118q-211 38 -331.5 124t-120.5 200q0 82 66 129q-82 64 -82 138q0 51 43.5 87t122.5 36h130
v45h-337l-65 83l25 49h1633l65 -83zM543 286l25 55h82l-8 197h-215l76 -52v-147h-246q-63 0 -63 -39q0 -15 10 -28q49 13 101 13zM752 538l76 -52v-149h99l21 55q152 18 152 73q0 36 -55 73h-293zM1337 538h-153q89 -73 89 -151q0 -108 -143 -145l20 -45q58 0 109 30.5
t78 77.5v233z" />
    <glyph glyph-name="uni0939094D092E094D092F.ss06" horiz-adv-x="1313" 
d="M1353 538h-186l76 -52v-535l-54 -27l-132 69v80q-57 -33 -156 -43l-281 -21l-26 -84l-54 -21q-52 19 -108 72t-83 105l30 48l79 5l4 42q-17 8 -49 8q-61 0 -108.5 -31.5t-47.5 -92.5q0 -72 71.5 -113.5t205.5 -69.5l-35 -118q-112 20 -210.5 66t-160 116t-61.5 157
q0 83 55 139q-76 62 -76 133q0 51 43.5 87t122.5 36h180v45h-392l-65 83l25 49h1353l65 -83zM761 159q-71 76 -114 177l21 56q152 18 152 73q0 36 -55 73h-283l76 -52v-147h-296q-63 0 -63 -39l2 -11q61 26 148 26q105 0 178 -40t94 -120zM1057 538h-153q89 -73 89 -151
q0 -109 -146 -145l23 -55q136 0 187 108v243z" />
    <glyph glyph-name="uni0919094D0915" horiz-adv-x="760" 
d="M825 587l-25 -49h-323l76 -52v-129h-270q-56 0 -56 -30q0 -20 22 -35l185 42q85 -30 123 -85.5t38 -114.5q0 -75 -55 -128t-140 -59l49 -31v-30q42 25 79 25q61 0 109.5 -54.5t48.5 -123.5q0 -118 -142 -192l-92 111q45 29 74.5 59.5t29.5 48.5q0 16 -17 16
q-31 0 -90 -63v-179l-41 -20l-104 52v47q-25 -10 -49 -10q-74 0 -139.5 56t-65.5 129q0 60 42 104t103 44q20 0 36 -4l73 -49v73q-77 18 -153 72.5t-137 145.5l78 66q43 -66 106.5 -105.5t126.5 -39.5q49 0 91.5 23t56.5 65l-153 -50q-111 41 -179.5 104.5t-68.5 131.5
q0 57 49.5 95t143.5 38h128v36h-393l-65 83l25 49h800zM657 398q29 -11 62 -38.5t52 -52.5q-12 -31 -38 -64t-53 -51q-28 11 -64 38t-54 53q41 83 95 115zM202 -289q59 12 102 63v30q-19 8 -36 8q-28 0 -50.5 -21t-22.5 -50q0 -16 7 -30z" />
    <glyph glyph-name="uni0919094D0917" horiz-adv-x="760" 
d="M825 587l-25 -49h-323l76 -52v-129h-270q-56 0 -56 -30q0 -20 22 -35l185 42q85 -30 123 -85.5t38 -114.5q0 -51 -28 -95.5t-78 -68.5l71 -71v-345l-54 -27l-96 61v359l-29 -1q-62 0 -127 25l55 -54v-237l-60 -33q-59 19 -115 69.5t-79 109.5l31 51l77 2l-2 143
q-82 57 -147 152l78 66q43 -66 106.5 -105.5t126.5 -39.5q49 0 91.5 23t56.5 65l-153 -50q-111 41 -179.5 104.5t-68.5 131.5q0 57 49.5 95t143.5 38h128v36h-393l-65 83l25 49h800zM657 398q29 -11 62 -38.5t52 -52.5q-12 -31 -38 -64t-53 -51q-28 11 -64 38t-54 53
q41 83 95 115z" />
    <glyph glyph-name="uni0919094D09170930" horiz-adv-x="760" 
d="M825 587l-25 -49h-323l76 -52v-129h-270q-56 0 -56 -30q0 -20 22 -35l185 42q85 -30 123 -85.5t38 -114.5q0 -49 -26 -92.5t-73 -68.5l74 -74v-365l-54 -27l-96 61v35l-146 -116l-114 77l260 198v187l-39 -3q-62 0 -127 25l55 -54v-207l-60 -43q-59 19 -115 69.5
t-79 109.5l31 51l77 2l-2 123q-82 57 -147 152l78 66q43 -66 106.5 -105.5t126.5 -39.5q49 0 91.5 23t56.5 65l-153 -50q-111 41 -179.5 104.5t-68.5 131.5q0 57 49.5 95t143.5 38h128v36h-393l-65 83l25 49h800zM657 398q29 -11 62 -38.5t52 -52.5q-12 -31 -38 -64t-53 -51
q-28 11 -64 38t-54 53q41 83 95 115z" />
    <glyph glyph-name="uni0919094D0918" horiz-adv-x="760" 
d="M825 587l-25 -49h-323l76 -52v-129h-270q-56 0 -56 -30q0 -20 22 -35l185 42q85 -30 123 -85.5t38 -114.5q0 -49 -26 -92.5t-73 -68.5l74 -74v-345l-54 -27l-96 61v34q-41 -19 -80 -19q-81 0 -151 56t-70 128q0 28 11 53q-45 22 -70.5 58t-25.5 77q0 59 54 109
q-41 41 -74 90l78 66q43 -66 106.5 -105.5t126.5 -39.5q49 0 91.5 23t56.5 65l-153 -50q-111 41 -179.5 104.5t-68.5 131.5q0 57 49.5 95t143.5 38h128v36h-393l-65 83l25 49h800zM657 398q29 -11 62 -38.5t52 -52.5q-12 -31 -38 -64t-53 -51q-28 11 -64 38t-54 53
q41 83 95 115zM420 -51l-39 -3q-78 0 -161 40q-41 -10 -41 -55q0 -16 7 -29q42 24 95 24l43 -4l54 -97l-19 -36q-47 -1 -72 -15.5t-25 -35.5q0 -9 4 -16q38 -2 84.5 19.5t69.5 53.5v154z" />
    <glyph glyph-name="uni0919094D09180930" horiz-adv-x="760" 
d="M825 587l-25 -49h-323l76 -52v-129h-270q-56 0 -56 -30q0 -20 22 -35l185 42q85 -30 123 -85.5t38 -114.5q0 -49 -26 -92.5t-73 -68.5l74 -74v-345l-54 -27l-96 61v45l-201 -144l-103 89l96 65q-93 58 -93 144q0 28 11 53q-45 22 -70.5 58t-25.5 77q0 59 54 109
q-41 41 -74 90l78 66q43 -66 106.5 -105.5t126.5 -39.5q49 0 91.5 23t56.5 65l-153 -50q-111 41 -179.5 104.5t-68.5 131.5q0 57 49.5 95t143.5 38h128v36h-393l-65 83l25 49h800zM657 398q29 -11 62 -38.5t52 -52.5q-12 -31 -38 -64t-53 -51q-28 11 -64 38t-54 53
q41 83 95 115zM420 -51l-39 -3q-78 0 -161 40q-41 -10 -41 -55q0 -16 7 -29q42 24 95 24l43 -4l54 -97l-19 -36q-97 -2 -97 -56q0 -15 7 -29q36 5 81.5 34t69.5 58v153z" />
    <glyph glyph-name="uni0919094D092E" horiz-adv-x="760" 
d="M825 587l-25 -49h-323l76 -52v-129h-270q-56 0 -56 -30q0 -20 22 -35l185 42q85 -30 123 -85.5t38 -114.5q0 -48 -25 -90.5t-70 -67.5l77 -77v-345l-54 -27l-96 61v117h-126v-72l-62 -33q-51 23 -108.5 77.5t-79.5 111.5l31 51h70l-7 193q-73 56 -131 141l78 66
q43 -66 106.5 -105.5t126.5 -39.5q49 0 91.5 23t56.5 65l-153 -50q-111 41 -179.5 104.5t-68.5 131.5q0 57 49.5 95t143.5 38h128v36h-393l-65 83l25 49h800zM657 398q29 -11 62 -38.5t52 -52.5q-12 -31 -38 -64t-53 -51q-28 11 -64 38t-54 53q41 83 95 115zM427 -50l-46 -4
q-72 0 -144 33l62 -62v-79h128v112z" />
    <glyph glyph-name="uni0919094D092F" horiz-adv-x="1400" 
d="M1440 538h-186l76 -52v-555l-54 -27l-132 69v38q-36 -18 -81 -18q-88 0 -167 56.5t-134 174.5l21 52q145 8 145 37q0 19 -68 20h-582q-30 0 -47.5 -10.5t-17.5 -26.5q0 -15 15 -30l177 50q84 -30 130 -88.5t46 -127.5q0 -83 -61 -139.5t-156 -56.5q-193 0 -368 255l78 66
q106 -161 235 -161q55 0 94.5 26.5t47.5 66.5l-131 -50q-124 43 -195 106t-71 132q0 61 51 98.5t137 38.5h130v56h-372l-65 83l25 49h1440l65 -83zM1144 538h-682l63 -43h317q71 0 131 -36.5t95 -89.5t35 -98t-38 -78.5t-112 -48.5l14 -27q59 6 107.5 37t69.5 80v304z
M648 319q26 -10 55.5 -34.5t47.5 -47.5q-10 -28 -34 -58t-48 -46q-26 9 -58.5 33.5t-48.5 48.5q39 75 86 104z" />
    <glyph glyph-name="uni091F094D0915" horiz-adv-x="623" 
d="M508 -59q61 0 109.5 -54.5t48.5 -123.5q0 -118 -142 -192l-92 111q45 29 74.5 59.5t29.5 48.5q0 16 -17 16q-31 0 -90 -63v-179l-41 -20l-104 52v47q-25 -10 -49 -10q-74 0 -139.5 56t-65.5 129q0 60 42 104t103 44q20 0 36 -4l73 -49v84q-113 27 -189 105.5t-76 169.5
q0 87 68 140t184 53h51v73h-322l-65 83l25 49h663l65 -83l-25 -49h-238l76 -52v-195h-179q-64 0 -99 -21.5t-35 -55.5q0 -23 17 -46q29 -12 69 -12q58 0 122.5 23.5t108.5 63.5l101 -153q-103 -103 -243 -103l66 -41v-30q42 25 79 25zM182 -259q59 12 102 63v30q-19 8 -36 8
q-28 0 -50.5 -21t-22.5 -50q0 -16 7 -30z" />
    <glyph glyph-name="uni091F094D091F" horiz-adv-x="613" 
d="M653 538h-228l76 -52v-195h-179q-64 0 -99 -21.5t-35 -55.5q0 -23 17 -46q29 -12 69 -12q58 0 122.5 23.5t108.5 63.5l101 -153q-71 -71 -161 -93l53 -37v-169h-156q-46 0 -75.5 -20t-29.5 -49q0 -23 14 -41q24 -8 52 -8q51 0 108.5 21t97.5 56l87 -132
q-40 -47 -98.5 -70.5t-119.5 -23.5q-116 0 -205.5 71.5t-89.5 168.5q0 79 57 128t153 50h47v46q-127 9 -224 94t-97 190q0 87 68 140t184 53h51v73h-322l-65 83l25 49h653l65 -83z" />
    <glyph glyph-name="uni091F094D0920" horiz-adv-x="613" 
d="M653 538h-228l76 -52v-195h-179q-64 0 -99 -21.5t-35 -55.5q0 -23 17 -46q29 -12 69 -12q58 0 122.5 23.5t108.5 63.5l101 -153q-82 -82 -186 -99l59 -39v-77q52 -35 83 -84.5t31 -103.5q0 -74 -55.5 -121.5t-146.5 -47.5q-121 0 -215 75.5t-94 172.5q0 73 55.5 119
t149.5 48h37v57q-122 14 -213.5 97.5t-91.5 184.5q0 87 68 140t184 53h51v73h-322l-65 83l25 49h653l65 -83zM329 -349q48 0 82 22t34 60q0 29 -21 54h-99q-45 0 -68 -20t-23 -50q0 -25 14 -47q35 -19 81 -19z" />
    <glyph glyph-name="uni091F094D0922" horiz-adv-x="613" 
d="M653 538h-228l76 -52v-195h-179q-64 0 -99 -21.5t-35 -55.5q0 -23 17 -46q29 -12 69 -12q58 0 122.5 23.5t108.5 63.5l101 -153q-70 -70 -157 -92l77 -53v-147h-163q-57 0 -88.5 -31t-31.5 -74q0 -39 24 -67q33 -10 74 -10l22 1l-57 35q-9 18 -9 40q0 40 29 69.5t87 29.5
q72 0 123.5 -46.5t51.5 -109.5q0 -58 -47.5 -96t-124.5 -38q-72 0 -147.5 32t-126 89t-50.5 128q0 79 59 130t157 54h61v53q-137 0 -243.5 87.5t-106.5 197.5q0 87 68 140t184 53h51v73h-322l-65 83l25 49h653l65 -83zM428 -331q0 -17 10 -36q45 17 45 43q0 11 -7.5 19
t-18.5 8q-29 0 -29 -34z" />
    <glyph glyph-name="uni091F094D092F" horiz-adv-x="1239" 
d="M1279 538h-186l76 -52v-555l-54 -27l-132 69v38q-36 -18 -81 -18q-88 0 -167 56.5t-134 174.5l21 52q145 8 145 37q0 19 -68 20h-216v-62h-171q-57 0 -86.5 -24t-29.5 -61q0 -23 17 -48q30 -15 69 -15q55 0 114.5 25t98.5 65l101 -153q-48 -56 -109 -79.5t-118 -23.5
q-80 0 -162 40.5t-135 109t-53 147.5q0 85 60.5 136.5t167.5 54.5h57v93h-304l-65 83l25 49h1279l65 -83zM983 538h-576l63 -43h211q71 0 131 -36.5t95 -89.5t35 -98t-38 -78.5t-112 -48.5l14 -27q59 6 107.5 37t69.5 80v304z" />
    <glyph glyph-name="uni091F094D0935" horiz-adv-x="613" 
d="M653 538h-228l76 -52v-195h-170q-143 0 -143 -81q0 -30 20 -55q27 -12 64 -12q59 0 125 28.5t108 71.5l101 -153q-40 -40 -84 -63v-342l-41 -20l-104 52v30q-27 -8 -57 -8q-97 0 -177.5 61t-80.5 140q0 80 71 128q-114 88 -114 204q0 87 68 140t184 53h51v73h-322l-65 83
l25 49h653l65 -83zM235 -137l12 -1q29 0 67 18t63 47v71q-62 0 -108.5 -28t-46.5 -72q0 -22 13 -35z" />
    <glyph glyph-name="uni0920094D0920" horiz-adv-x="650" 
d="M690 538h-278l76 -52v-88q60 -41 96 -98t36 -120q0 -71 -47.5 -124.5t-130.5 -67.5l54 -36v-77q52 -35 83 -84.5t31 -103.5q0 -74 -55.5 -121.5t-146.5 -47.5q-121 0 -215 75.5t-94 172.5q0 73 55.5 119t149.5 48h37v55q-124 17 -218 103t-94 184q0 82 64.5 134.5
t169.5 55.5h46v73h-309l-65 83l25 49h690l65 -83zM312 142q57 0 97 24t40 67q0 36 -28 67h-111q-55 0 -82.5 -23.5t-27.5 -57.5q0 -28 17 -54q39 -23 95 -23zM346 -349q48 0 82 22t34 60q0 29 -21 54h-99q-45 0 -68 -20t-23 -50q0 -25 14 -47q35 -19 81 -19z" />
    <glyph glyph-name="uni0920094D092F" horiz-adv-x="1291" 
d="M1331 538h-186l76 -52v-555l-54 -27l-132 69v38q-36 -18 -81 -18q-88 0 -167 56.5t-134 174.5l21 52q145 8 145 37q0 19 -68 20h-220q97 -91 97 -196q0 -86 -65 -139.5t-170 -53.5q-143 0 -253.5 91t-110.5 206q0 88 67 141t179 53h34v103h-309l-65 83l25 49h1331l65 -83
zM1035 538h-623l63 -43h258q71 0 131 -36.5t95 -89.5t35 -98t-38 -78.5t-112 -48.5l14 -27q59 6 107.5 37t69.5 80v304zM323 100q63 0 99 29.5t36 69.5q0 34 -25 67h-116q-54 0 -83 -24.5t-29 -61.5q0 -27 17 -53q41 -27 101 -27z" />
    <glyph glyph-name="uni0920094D0935" horiz-adv-x="660" 
d="M700 538h-288l76 -52v-88q60 -41 96 -98t36 -120q0 -102 -88 -159v-344l-41 -20l-104 52v30q-27 -8 -57 -8q-97 0 -177.5 61t-80.5 140q0 87 80 134q-57 42 -90 97t-33 112q0 82 64.5 134.5t169.5 55.5h46v73h-309l-65 83l25 49h700l65 -83zM310 300q-55 0 -82.5 -23.5
t-27.5 -57.5q0 -28 17 -54q39 -23 95 -23q57 0 97 24t40 67q0 36 -28 67h-111zM245 -145l12 -1q29 0 67 18t63 47v71q-62 0 -108.5 -28t-46.5 -72q0 -22 13 -35z" />
    <glyph glyph-name="uni0920094D0915" horiz-adv-x="660" 
d="M700 538h-211l76 -52v-129h-283q-59 0 -59 -30q0 -19 23 -35l194 42q80 -21 130 -77.5t50 -123.5q0 -75 -67 -130.5t-162 -56.5l48 -30v-30q42 25 79 25q61 0 109.5 -54.5t48.5 -123.5q0 -118 -142 -192l-92 111q45 29 74.5 59.5t29.5 48.5q0 16 -17 16q-31 0 -90 -63
v-179l-41 -20l-104 52v47q-25 -10 -49 -10q-74 0 -139.5 56t-65.5 129q0 60 42 104t103 44q20 0 36 -4l73 -49v75q-165 44 -295 226l82 66q48 -70 111.5 -112t133.5 -42q53 0 102 23t64 64l-171 -50q-117 41 -189 104.5t-72 131.5q0 57 52 95t151 38h136v36h-399l-65 83
l25 49h700l65 -83zM192 -289q59 12 102 63v30q-19 8 -36 8q-28 0 -50.5 -21t-22.5 -50q0 -16 7 -30z" />
    <glyph glyph-name="uni0920094D0917" horiz-adv-x="660" 
d="M700 538h-211l76 -52v-129h-283q-59 0 -59 -30q0 -19 23 -35l194 42q80 -21 130 -77.5t50 -123.5q0 -52 -34.5 -97.5t-93.5 -69.5l70 -67v-345l-57 -27l-100 61v359l-21 -1q-79 0 -153 35l67 -64v-237l-63 -33q-62 19 -120.5 69.5t-82.5 109.5l32 51l81 2l-2 155
q-78 58 -144 150l82 66q48 -70 111.5 -112t133.5 -42q53 0 102 23t64 64l-171 -50q-117 41 -189 104.5t-72 131.5q0 57 52 95t151 38h136v36h-399l-65 83l25 49h700l65 -83z" />
    <glyph glyph-name="uni0921094D091F" horiz-adv-x="660" 
d="M700 538h-211l76 -52v-129h-283q-59 0 -59 -30q0 -19 23 -35l194 42q80 -21 130 -77.5t50 -123.5q0 -60 -46 -110.5t-121 -68.5l65 -45v-169h-156q-46 0 -75.5 -20t-29.5 -49q0 -23 14 -41q24 -8 52 -8q51 0 108.5 21t97.5 56l87 -132q-40 -47 -98.5 -70.5t-119.5 -23.5
q-116 0 -205.5 71.5t-89.5 168.5q0 79 57 128t153 50h47v56q-95 7 -188.5 66.5t-172.5 170.5l82 66q48 -70 111.5 -112t133.5 -42q53 0 102 23t64 64l-171 -50q-117 41 -189 104.5t-72 131.5q0 57 52 95t151 38h136v36h-399l-65 83l25 49h700l65 -83z" />
    <glyph glyph-name="uni0921094D0921" horiz-adv-x="660" 
d="M700 538h-211l76 -52v-129h-283q-59 0 -59 -30q0 -19 23 -35l194 42q80 -21 130 -77.5t50 -123.5q0 -77 -69 -132t-167 -55q-55 0 -106 17q-26 -15 -26 -38q0 -20 20 -34l176 40q80 -22 121 -77.5t41 -115.5q0 -75 -59 -127t-150 -52q-94 0 -187 57t-167 167l75 67
q45 -66 104.5 -105.5t125.5 -39.5q48 0 88.5 19t50.5 57l-151 -46q-106 38 -170.5 98.5t-64.5 126.5q0 45 30 80q-71 55 -136 144l82 66q48 -70 111.5 -112t133.5 -42q53 0 102 23t64 64l-171 -50q-117 41 -189 104.5t-72 131.5q0 57 52 95t151 38h136v36h-399l-65 83l25 49
h700l65 -83z" />
    <glyph glyph-name="uni0921094D0922" horiz-adv-x="660" 
d="M700 538h-211l76 -52v-129h-283q-59 0 -59 -30q0 -19 23 -35l194 42q80 -21 130 -77.5t50 -123.5q0 -55 -38.5 -102.5t-103.5 -69.5l52 -36v-137h-163q-57 0 -88.5 -31t-31.5 -74q0 -39 24 -67q33 -10 74 -10l22 1l-57 35q-9 18 -9 40q0 40 29 69.5t87 29.5
q72 0 123.5 -46.5t51.5 -109.5q0 -58 -47.5 -96t-124.5 -38q-72 0 -147.5 32t-126 89t-50.5 128q0 79 59 130t157 54h61v22q-97 3 -194 63t-180 175l82 66q48 -70 111.5 -112t133.5 -42q53 0 102 23t64 64l-171 -50q-117 41 -189 104.5t-72 131.5q0 57 52 95t151 38h136v36
h-399l-65 83l25 49h700l65 -83zM432 -341q0 -17 10 -36q45 17 45 43q0 11 -7.5 19t-18.5 8q-29 0 -29 -34z" />
    <glyph glyph-name="uni0921094D092F" horiz-adv-x="1289" 
d="M1329 538h-186l76 -52v-555l-54 -27l-132 69v36q-36 -16 -81 -16q-88 0 -167 56.5t-134 174.5l21 52q145 8 145 37q0 19 -68 20h-464q-66 0 -66 -34q0 -17 20 -32l186 41q87 -32 130.5 -92.5t43.5 -124.5q0 -80 -61.5 -134t-157.5 -54q-203 0 -376 256l78 66
q111 -166 248 -166q49 0 92.5 21.5t52.5 62.5l-145 -45q-122 43 -195 109.5t-73 140.5q0 60 49 97t144 37h122v56h-377l-65 83l25 49h1329l65 -83zM1033 538h-569l79 -54h191q99 -1 178.5 -69.5t79.5 -143.5q0 -45 -38 -78.5t-112 -48.5l14 -27q54 5 102.5 31.5t74.5 67.5
v322z" />
    <glyph glyph-name="uni0921094D0935" horiz-adv-x="660" 
d="M700 538h-223l76 -52v-129h-270q-56 0 -56 -30q0 -20 22 -35l185 42q76 -21 123.5 -77.5t47.5 -123.5q0 -72 -60 -128v-356l-41 -20l-104 52v30q-27 -8 -57 -8q-97 0 -177.5 61t-80.5 140t69 127q-75 58 -140 153l78 66q46 -70 106 -112t127 -42q51 0 97.5 23t60.5 64
l-163 -50q-111 41 -179.5 104.5t-68.5 131.5q0 57 49.5 95t143.5 38h128v36h-393l-65 83l25 49h700l65 -83zM248 -177l20 -2q33 0 70.5 16.5t61.5 44.5v74q-67 3 -116 -26t-49 -73q0 -21 13 -34z" />
    <glyph glyph-name="uni0922094D0922" horiz-adv-x="659" 
d="M699 538h-231l76 -52v-163h-199q-67 0 -104.5 -35t-37.5 -85q0 -47 32 -88q45 -15 99 -15l28 1l-66 46q-12 21 -12 47q0 51 41.5 85.5t106.5 34.5q82 0 140.5 -55t58.5 -130q0 -54 -36.5 -96.5t-98.5 -59.5l40 -28v-137h-163q-57 0 -88.5 -31t-31.5 -74q0 -39 24 -67
q33 -10 74 -10l22 1l-57 35q-9 18 -9 40q0 40 29 69.5t87 29.5q72 0 123.5 -46.5t51.5 -109.5q0 -58 -47.5 -96t-124.5 -38q-72 0 -147.5 32t-126 89t-50.5 128q0 79 59 130t157 54h61v21q-81 9 -161 50t-132 106t-52 145q0 96 67.5 156t179.5 63h84v53h-365l-55 83l15 49
h699l65 -83zM437 165q0 -22 11 -44q54 24 54 63q0 15 -8 23t-18 8q-15 0 -27 -13t-12 -37zM438 -321q0 -17 10 -36q45 17 45 43q0 11 -7.5 19t-18.5 8q-29 0 -29 -34z" />
    <glyph glyph-name="uni0922094D092F" horiz-adv-x="1310" 
d="M1350 538h-186l76 -52v-555l-54 -27l-132 69v38q-36 -18 -81 -18q-88 0 -167 56.5t-134 174.5l21 52q145 8 145 37q0 19 -68 20h-236v-35h-199q-65 0 -101 -35t-36 -85q0 -51 33 -88q56 -30 126 -30l-71 47q-15 34 -15 66q0 53 39 83t98 30q85 0 149 -61.5t64 -137.5
q0 -72 -60.5 -123.5t-149.5 -51.5q-83 0 -174 45.5t-152 122.5t-61 165q0 99 70.5 159.5t188.5 60.5h72v73h-355l-65 83l25 49h1350l65 -83zM1054 538h-596l63 -43h231q71 0 131 -36.5t95 -89.5t35 -98t-38 -78.5t-112 -48.5l14 -27q59 6 107.5 37t69.5 80v304zM429 132
q0 -25 14 -53q49 26 49 67q0 35 -27 35q-14 0 -25 -13t-11 -36z" />
    <glyph glyph-name="uni0922094D0935" horiz-adv-x="659" 
d="M699 538h-231l76 -52v-163h-199q-67 0 -104.5 -35t-37.5 -85q0 -47 32 -88q45 -15 99 -15l28 1l-66 46q-12 21 -12 47q0 51 41.5 85.5t106.5 34.5q82 0 140.5 -55t58.5 -130q0 -81 -76 -130v-344l-41 -20l-104 52v30q-27 -8 -57 -8q-97 0 -177.5 61t-80.5 140q0 38 20 74
t58 58q-139 91 -139 224q0 96 67.5 156t179.5 63h84v53h-365l-55 83l15 49h699l65 -83zM437 165q0 -22 11 -44q54 24 54 63q0 15 -8 23t-18 8q-15 0 -27 -13t-12 -37zM258 -171l20 -2q33 0 70.5 16.5t61.5 44.5v74q-67 3 -116 -26t-49 -73q0 -21 13 -34z" />
    <glyph glyph-name="uni0926094D0917" horiz-adv-x="629" 
d="M679 538h-244l76 -52v-191h-183q-62 0 -94.5 -27.5t-32.5 -67.5q0 -34 23 -65q33 -15 67 -15q41 0 87 22l-11 81l113 39l134 -168q-26 -48 -79 -82l121 -268l-165 -61l-65 279l-53 -5l-41 3l31 -213l-54 -42q-64 10 -132.5 49.5t-100.5 92.5l25 56l88 17l-16 102
q-67 43 -108 104.5t-41 131.5q0 95 66.5 151t180.5 56h66v73h-337l-65 83l25 49h669l75 -83z" />
    <glyph glyph-name="uni0926094D0918" horiz-adv-x="882" 
d="M922 538h-234l76 -52v-191h-183q-62 0 -94.5 -27.5t-32.5 -67.5q0 -34 23 -65q33 -15 67 -15q41 0 87 22l-11 81l113 39l134 -168q-24 -45 -75 -79l99 -170l-175 -71l-39 188l-33 -4q-29 -96 -95.5 -148t-146.5 -52q-98 0 -184.5 62.5t-86.5 140.5l1 15q-121 59 -121 164
q0 77 68 127.5t170 50.5l36 -2q19 65 77.5 107t163.5 42h64v73h-590l-65 83l25 49h922l65 -83zM470 -3q-122 59 -171 163l-17 1q-45 0 -79 -21t-34 -53q0 -18 11 -29q36 29 91 41l124 -93v-41q-41 -7 -67.5 -26t-26.5 -40q0 -12 9 -22q44 -1 89.5 32.5t70.5 87.5z" />
    <glyph glyph-name="uni0926094D0926" horiz-adv-x="614" 
d="M664 538h-210l76 -52v-157h-283q-66 0 -66 -44q0 -19 16 -36q46 12 96 12h189l79 -124l-25 -49h-183q-65 0 -96 -23t-31 -57q0 -22 13 -43q33 -17 76 -17q49 0 97 21l-9 62l107 37l118 -155q-22 -41 -69 -74l99 -171l-175 -71l-41 198l-50 -5q-74 0 -153 38.5t-131 102.5
t-52 136q0 88 65 142q-93 68 -93 151q0 53 43 88t123 35h170v55h-364l-65 83l25 49h654l75 -83z" />
    <glyph glyph-name="uni0926094D0927" horiz-adv-x="942" 
d="M982 538h-234l76 -52v-191h-183q-62 0 -94.5 -27.5t-32.5 -67.5q0 -34 23 -65q33 -15 67 -15q41 0 87 22l-11 81l113 39l134 -168q-24 -45 -75 -79l99 -170l-175 -71l-39 188l-33 -4q-29 -96 -95.5 -148t-146.5 -52q-92 0 -176.5 57t-93.5 131q-95 24 -143 77t-48 115
q0 60 43 102.5t108 42.5q71 0 140 -62l50 -48l-50 -64q-48 41 -70 53q-51 -22 -51 -68q0 -43 43 -63q39 52 117 68l124 -93v-41q-41 -7 -67.5 -26t-26.5 -40q0 -12 9 -22q44 -1 89.5 32.5t70.5 87.5q-84 41 -138.5 110t-54.5 151q0 95 66.5 151t180.5 56h66v73h-650l-65 83
l25 49h982l65 -83z" />
    <glyph glyph-name="uni0926094D0928" horiz-adv-x="639" 
d="M679 538h-234l76 -52v-191h-178q-64 0 -97.5 -30t-33.5 -73q0 -36 22 -67q38 -16 76 -16q41 0 80 18l-13 96l113 39l124 -168q-24 -43 -68 -74l102 -175l-175 -71l-40 193l-172 -89l36 -89l-52 -48q-133 27 -219 119l9 67l175 85q-176 103 -176 246q0 95 66.5 151
t180.5 56h66v73h-347l-65 83l25 49h679l65 -83z" />
    <glyph glyph-name="uni0926094D092C" horiz-adv-x="639" 
d="M679 538h-234l76 -52v-191h-178q-64 0 -97.5 -30t-33.5 -73q0 -36 22 -67q38 -16 76 -16q41 0 80 18l-13 96l113 39l124 -168q-28 -50 -81 -83l117 -275l-119 -55l-28 91q-57 -65 -147 -65q-100 0 -180 61t-80 140q0 77 77 126q-63 41 -101 99t-38 125q0 95 66.5 151
t180.5 56h66v73h-347l-65 83l25 49h679l65 -83zM408 -102q26 38 25 78q-55 3 -109 -26zM268 -174q55 0 101 33l-91 57q-26 -28 -26 -53q0 -23 16 -37z" />
    <glyph glyph-name="uni0926094D092D" horiz-adv-x="959" 
d="M999 538h-234l76 -52v-191h-178q-64 0 -97.5 -30t-33.5 -73q0 -36 22 -67q38 -16 76 -16q41 0 80 18l-13 96l113 39l124 -168q-20 -38 -69 -71l103 -178l-175 -71l-41 196l-241 -125l32 -64l-41 -51q-58 0 -143.5 23t-121.5 52l2 62l60 29l-83 124q-27 41 -41 49
q-29 -12 -29 -45q0 -47 66 -68l-32 -78q-84 11 -138.5 49.5t-54.5 104.5q0 64 51 105t127 41q65 0 126.5 -30.5t92.5 -78.5l65 -103l89 42l-32 18q-68 41 -110 101t-42 131q0 95 66.5 151t180.5 56h66v73h-667l-65 83l25 49h999l65 -83z" />
    <glyph glyph-name="uni0926094D092E" horiz-adv-x="857" 
d="M897 538h-186l76 -52v-655l-54 -27l-132 69v79h-65v-54l-62 -36q-57 23 -122.5 81t-87.5 110l34 56h68l-2 46l-149 -13q-86 37 -150 106t-64 130q0 50 39.5 86t116.5 36h140v38h-297l-65 83l25 49h897l65 -83zM601 109v429h-214l76 -52v-137h-222q-69 0 -69 -29
q0 -6 3 -12h256l105 -102v-97h65z" />
    </font>
</defs>
</svg>
